<svg width="308" height="154" viewBox="0 0 308 154" fill="none" xmlns="http://www.w3.org/2000/svg">
    <g filter="url(#filter0_d_2966_11717)">
        <rect x="10.0001" y="8.00002" width="288" height="134" rx="5" fill="url(#paint0_linear_2966_11717)" />
    </g>
    <g clip-path="url(#clip0_2966_11717)">
        <path
            d="M244.177 84.9844C244.447 85.2854 244.679 85.619 244.986 85.8486C245.113 85.9418 245.456 85.8811 245.622 85.7728C247.149 84.7786 248.618 83.6934 250.181 82.7576C255.238 79.7294 260.708 77.728 266.466 76.476C266.784 76.4067 267.134 76.4673 267.468 76.4673C267.494 76.5756 267.52 76.6818 267.546 76.7901C267.201 76.9525 266.869 77.1626 266.507 77.2666C264.663 77.7951 262.788 78.2305 260.963 78.8219C255.662 80.5439 250.851 83.1757 246.527 86.6782C246.344 86.8255 246.178 86.9945 245.956 87.1981C246.296 87.6985 246.63 88.1793 246.955 88.6645C248.167 90.471 249.371 92.2862 249.924 94.4241C250.559 96.8848 249.856 98.4596 247.603 99.6877C247.243 99.8848 246.874 100.069 246.442 100.294C246.857 101.02 247.243 101.7 247.634 102.378C249.295 105.259 251.12 108.029 253.379 110.49C254.016 111.185 254.728 111.833 255.494 112.383C256.546 113.137 257.561 112.977 258.255 111.878C258.977 110.733 259.547 109.489 260.14 108.268C262.19 104.046 264.218 99.8112 266.265 95.5895C266.684 94.7274 267.363 94.4068 268.312 94.5411C268.921 94.6278 269.144 95.0003 268.899 95.5462C267.142 99.4689 265.403 103.398 263.62 107.308C262.677 109.377 261.505 111.317 260.171 113.172C258.75 115.147 256.312 115.489 254.306 114.361C252.25 113.204 250.629 111.556 249.186 109.725C247.267 107.293 245.77 104.6 244.295 101.895C243.873 101.126 243.869 101.12 243.022 101.36C241.365 101.83 239.711 102.309 238.057 102.787C237.965 102.813 237.88 102.868 237.753 102.926C237.939 103.355 238.137 103.758 238.288 104.178C238.786 105.564 238.463 106.413 237.194 107.169C236.075 107.837 234.833 108.17 233.56 108.142C231.664 108.099 229.771 107.871 227.875 107.743C226.714 107.665 225.546 107.652 224.387 107.551C224.053 107.52 223.577 107.362 223.453 107.117C223.239 106.695 223.656 106.398 224.016 106.221C224.256 106.101 224.548 106.015 224.812 106.03C227.146 106.158 229.477 106.316 231.81 106.457C232.759 106.515 233.711 106.598 234.66 106.593C235.717 106.589 236.088 106.123 235.809 105.12C235.643 104.525 235.337 103.957 235.023 103.418C234.925 103.247 234.602 103.132 234.372 103.119C229.588 102.837 226.888 99.757 226.172 95.7563C225.904 94.2552 225.882 92.7086 225.803 91.1794C225.779 90.7158 225.644 90.4775 225.212 90.2978C222.726 89.2645 220.139 88.7252 217.448 88.7967C214.991 88.8616 212.618 89.3967 210.35 90.3519C209.593 90.6703 208.831 90.8761 207.993 90.6573C210.732 89.3079 213.622 88.4739 216.658 88.0883C219.734 87.6985 222.743 87.9822 225.83 88.8508C225.886 88.1837 225.956 87.5728 225.976 86.962C225.978 86.8689 225.775 86.7324 225.64 86.6761C217.793 83.271 213.098 77.1431 210.401 69.2976C209.661 67.1467 209.137 64.9459 209.226 62.6521C209.303 60.7372 209.861 59.013 211.418 57.7285C211.564 57.6073 211.699 57.3755 211.704 57.1914C211.863 50.9725 213.895 45.2736 216.61 39.7652C219.157 34.5991 222.305 29.7883 225.45 24.9731C225.699 24.5918 225.939 24.2063 226.198 23.8337C226.943 22.7658 228.27 22.7095 229.062 23.7146C231.531 26.8424 233.205 30.3731 234.409 34.1378C235.553 37.7075 236.3 41.366 236.795 45.0743C237.304 48.8714 237.738 52.6794 238.247 56.4766C238.554 58.7726 238.943 61.06 239.301 63.3495C239.32 63.4752 239.384 63.5943 239.471 63.8434C239.711 63.5358 239.901 63.3235 240.058 63.0874C242.164 59.9315 244.236 56.756 246.375 53.6217C248.876 49.9545 251.766 46.6382 255.568 44.223C256.048 43.9176 256.65 43.7357 257.22 43.6577C257.967 43.5537 258.108 43.7508 258.01 44.4873C257.857 45.657 257.696 46.8245 257.521 47.992C257.137 50.5567 256.777 53.1256 256.343 55.6816C255.16 62.6586 253.678 69.5575 250.637 76.0211C249.103 79.2811 247.18 82.2768 244.43 84.6833C244.343 84.7591 244.275 84.8566 244.166 84.9822L244.177 84.9844ZM211.815 60.9668L211.669 60.943C211.619 61.1878 211.514 61.4347 211.529 61.6752C211.608 62.8297 211.619 64.0015 211.841 65.1322C212.468 68.3077 213.753 71.2514 215.257 74.1041C217.669 78.6832 221.314 82.0558 225.782 84.6075C225.943 84.7006 226.164 84.8089 226.321 84.7721C227.063 84.5945 227.787 84.3389 228.532 84.1656C231.096 83.5699 233.65 82.9439 236.297 82.7728C238.15 82.6515 239.945 82.8074 241.667 83.4768C242.169 83.6717 242.463 83.5894 242.808 83.2363C244.79 81.2175 246.471 78.9821 247.839 76.515C250.694 71.3619 252.213 65.7712 253.208 60.0289C253.889 56.0997 254.409 52.1444 254.992 48.1978C255.07 47.6693 255.101 47.1342 255.153 46.6036C255.103 46.5819 255.051 46.5624 255 46.5407C254.531 46.9566 254.053 47.3617 253.597 47.7906C250.873 50.3465 248.769 53.3812 246.763 56.4917C244.644 59.7777 242.631 63.1373 240.132 66.1676C239.652 66.7481 239.067 67.0925 238.343 67.2441C237.668 67.3849 237.378 67.2506 237.275 66.6008C236.968 64.6622 236.688 62.717 236.415 60.7719C236.182 59.1192 236.036 57.4491 235.739 55.8094C235.3 53.3942 234.724 51.0029 234.272 48.5899C233.565 44.823 232.986 41.0324 232.214 37.2807C231.413 33.3796 230.066 29.6648 227.824 26.316C227.709 26.1427 227.573 25.9803 227.405 25.7572C227.24 25.9738 227.111 26.1168 227.01 26.2792C225.109 29.3291 223.138 32.3377 221.329 35.4417C218.356 40.5429 215.901 45.8714 214.805 51.7177C214.556 53.0476 214.445 54.4036 214.273 55.7488C214.216 56.1971 214.279 56.4939 214.868 56.3249C215.207 56.2275 215.576 56.1885 215.927 56.208C216.156 56.221 216.379 56.3856 216.604 56.4809C216.494 56.717 216.451 57.0527 216.265 57.1697C215.91 57.3928 215.488 57.5488 215.071 57.6246C214.297 57.7675 214.198 57.7849 214.27 58.5473C214.399 59.9553 214.543 61.3654 214.785 62.7582C214.89 63.3604 214.696 63.6809 214.214 63.8824C213.875 64.0232 213.496 64.0903 213.129 64.1423C212.57 64.2225 212.282 63.943 212.201 63.3972C212.081 62.5849 211.942 61.7748 211.811 60.9647L211.815 60.9668ZM243.064 87.9129C243.408 87.7244 243.125 87.445 242.944 87.1634C242.826 86.9815 242.693 86.8082 242.583 86.6219C242.411 86.3273 242.225 86.2818 241.907 86.4595C241.32 86.7865 240.717 87.0941 240.093 87.3454C236.555 88.7772 232.941 88.71 229.293 87.8349C228.708 87.6948 228.383 87.9172 228.318 88.5021C228.289 88.7555 228.254 89.0089 228.213 89.2602C228.154 89.6284 228.311 89.8407 228.65 89.9923C229.162 90.2219 229.658 90.4949 230.16 90.7505C230.16 90.8155 230.162 90.8804 230.164 90.9454C229.625 91.162 229.097 91.4241 228.538 91.5757C228.172 91.6732 228.093 91.8573 228.126 92.1606C228.228 93.0768 228.278 94.0039 228.457 94.9072C228.968 97.4935 230.256 99.5946 232.541 101.024C232.733 101.145 232.965 101.208 233.176 101.297C233.115 101.007 232.951 100.853 232.869 100.665C232.799 100.507 232.753 100.273 232.821 100.13C233.211 99.2913 234.787 99.1224 235.379 99.8393C235.793 100.344 236.239 100.829 236.596 101.371C236.93 101.875 237.336 101.949 237.867 101.813C239.436 101.408 241.01 101.011 242.579 100.608C242.837 100.543 243.09 100.459 243.45 100.353C242.974 99.5123 242.533 98.7693 242.136 98.0068C242.007 97.7599 241.878 97.4263 241.944 97.1837C242.092 96.6422 242.562 96.3801 243.105 96.3086C243.629 96.2415 244.133 96.2437 244.439 96.8177C244.829 97.5476 245.275 98.2494 245.67 98.9772C245.868 99.3455 246.047 99.4473 246.451 99.2004C247.713 98.4249 248.014 97.7253 247.625 96.2913C246.888 93.5512 245.443 91.149 243.93 88.7858C243.729 88.4717 243.395 88.2443 243.055 87.9086L243.064 87.9129ZM240.842 84.8587C240.658 84.7309 240.543 84.6248 240.405 84.5576C239.323 84.0334 238.181 83.7454 236.978 83.6717C234.285 83.5093 231.705 84.1526 229.119 84.7569C228.634 84.8696 228.615 85.2529 228.63 85.5692C228.639 85.7576 228.896 86.0327 229.099 86.1021C231.042 86.7627 233.019 87.1548 235.101 86.9837C237.026 86.8255 238.781 86.2407 240.394 85.2096C240.538 85.1165 240.665 84.9995 240.844 84.8609L240.842 84.8587Z"
            fill="white" />
        <path
            d="M231.64 80.3665C230.014 80.3665 228.386 80.4272 226.764 80.3492C225.286 80.2755 224.138 79.5412 223.35 78.2762C222.479 76.8726 222.043 75.3174 221.881 73.7036C221.687 71.7672 221.613 69.8199 221.484 67.8791C221.419 66.8978 221.327 65.9187 221.303 64.9375C221.297 64.7101 221.454 64.3613 221.637 64.2682C222.231 63.9649 222.868 63.7505 223.494 63.5122C224.04 63.3043 224.374 63.5447 224.666 64.0061C226.277 66.5577 228.333 68.7022 230.765 70.5C233.722 72.6856 237.027 74.2083 240.464 75.4733C241.392 75.8156 242.333 76.1253 243.276 76.4307C243.688 76.565 243.795 76.7643 243.623 77.1759C243.23 78.1225 242.527 78.7506 241.636 79.2098C240.22 79.9398 238.679 80.2366 237.116 80.3427C235.296 80.4683 233.469 80.477 231.644 80.5355C231.644 80.4792 231.644 80.4228 231.642 80.3665H231.64ZM224.317 67.7209C224.276 67.7469 224.232 67.7729 224.191 67.7989C224.191 68.0718 224.169 68.3469 224.195 68.6177C224.293 69.6141 224.346 70.6213 224.529 71.6025C224.843 73.2791 225.151 74.9665 225.638 76.5997C226.131 78.2546 227.364 79.2986 229.128 79.3571C231.919 79.4524 234.72 79.4438 237.511 79.3485C238.452 79.316 239.408 78.9607 240.305 78.6207C241.071 78.3304 241.08 77.7802 240.421 77.295C240.231 77.1542 240.028 77.0178 239.807 76.9354C238.847 76.565 237.889 76.1881 236.913 75.8632C232.432 74.3708 228.469 72.0683 225.206 68.635C224.913 68.3274 224.612 68.0263 224.315 67.7209H224.317Z"
            fill="white" />
        <path
            d="M249.483 65.2798C249.241 65.9946 249.121 66.783 248.736 67.4112C247.505 69.4256 245.709 70.7881 243.398 71.3621C242.071 71.6914 241.161 70.7491 241.495 69.4105C241.802 68.1758 242.217 66.9628 242.669 65.7715C243.088 64.6689 243.603 63.601 244.103 62.531C244.655 61.3461 246.152 60.8718 247.239 61.5952C248.518 62.4487 249.339 63.614 249.339 65.2191C249.387 65.2386 249.435 65.2581 249.483 65.2776V65.2798ZM245.919 63.5772C245.002 65.6047 244.116 67.5238 244.066 69.757C245.253 69.3823 246.497 67.8249 246.748 66.4083C246.927 65.401 246.711 64.4675 245.919 63.5772Z"
            fill="white" />
        <path
            d="M224.998 59.7757C224.411 59.6241 223.793 59.5418 223.243 59.31C222.226 58.879 221.857 57.9736 222.187 56.9208C222.545 55.7815 223.322 54.9497 224.236 54.2284C224.64 53.91 225.057 53.6067 225.489 53.3251C225.858 53.0847 226.1 52.8291 226.242 52.3612C226.469 51.6118 228.165 51.3822 228.787 51.9475C230.514 53.5179 230.54 56.2385 228.833 58.0407C227.805 59.1259 226.554 59.7237 224.998 59.7757ZM227.161 54.2739C226.153 54.9194 225.254 55.6017 224.749 56.6847C224.56 57.0941 224.568 57.4883 224.922 57.8219C225.271 58.1512 225.662 58.1403 226.081 57.9649C227.427 57.3974 227.949 55.749 227.161 54.2739Z"
            fill="white" />
    </g>
    <mask id="mask0_2966_11717" style="mask-type:alpha" maskUnits="userSpaceOnUse" x="10" y="8" width="288"
        height="134">
        <rect x="298" y="8.00002" width="134" height="288" rx="5" transform="rotate(90 298 8.00002)" fill="#BFBFBF" />
    </mask>
    <g mask="url(#mask0_2966_11717)">
        <ellipse cx="51" cy="77" rx="168" ry="130" transform="rotate(90 51 77)" fill="white" />
    </g>
    <defs>
        <filter id="filter0_d_2966_11717" x="0.00012207" y="1.52588e-05" width="308" height="154"
            filterUnits="userSpaceOnUse" color-interpolation-filters="sRGB">
            <feFlood flood-opacity="0" result="BackgroundImageFix" />
            <feColorMatrix in="SourceAlpha" type="matrix" values="0 0 0 0 0 0 0 0 0 0 0 0 0 0 0 0 0 0 127 0"
                result="hardAlpha" />
            <feOffset dy="2" />
            <feGaussianBlur stdDeviation="5" />
            <feComposite in2="hardAlpha" operator="out" />
            <feColorMatrix type="matrix" values="0 0 0 0 0 0 0 0 0 0 0 0 0 0 0 0 0 0 0.1 0" />
            <feBlend mode="normal" in2="BackgroundImageFix" result="effect1_dropShadow_2966_11717" />
            <feBlend mode="normal" in="SourceGraphic" in2="effect1_dropShadow_2966_11717" result="shape" />
        </filter>
        <linearGradient id="paint0_linear_2966_11717" x1="154" y1="-15" x2="154" y2="176.5"
            gradientUnits="userSpaceOnUse">
            <stop stop-color="#50048A" />
            <stop offset="1" stop-color="#BA68C8" />
        </linearGradient>
        <clipPath id="clip0_2966_11717">
            <rect width="61" height="92" fill="white" transform="translate(208 23)" />
        </clipPath>
    </defs>
</svg>