<svg width="16" height="14" viewBox="0 0 16 14" fill="none" xmlns="http://www.w3.org/2000/svg">
<g clip-path="url(#clip0_898_11681)">
<path d="M12.2267 3.13333L11.7734 0.87333C11.7134 0.559996 11.44 0.339996 11.12 0.339996H4.88004C4.56004 0.339996 4.28671 0.566663 4.22671 0.87333L3.77337 3.13333C3.71337 3.44666 3.44004 3.66666 3.12004 3.66666H1.66671C0.933374 3.66666 0.333374 4.26666 0.333374 5V12.3333C0.333374 13.0667 0.933374 13.6667 1.66671 13.6667H14.3334C15.0667 13.6667 15.6667 13.0667 15.6667 12.3333V5C15.6667 4.26666 15.0667 3.66666 14.3334 3.66666H12.88C12.56 3.66666 12.2867 3.44 12.2267 3.13333Z" stroke="white" stroke-miterlimit="10"/>
<path d="M8.00004 11.6667C10.0251 11.6667 11.6667 10.025 11.6667 7.99999C11.6667 5.97495 10.0251 4.33333 8.00004 4.33333C5.975 4.33333 4.33337 5.97495 4.33337 7.99999C4.33337 10.025 5.975 11.6667 8.00004 11.6667Z" stroke="white" stroke-miterlimit="10"/>
</g>
<defs>
<clipPath id="clip0_898_11681">
<rect width="16" height="14" fill="white"/>
</clipPath>
</defs>
</svg>
