<svg width="255" height="239" viewBox="0 0 255 239" fill="none" xmlns="http://www.w3.org/2000/svg">
    <path
        d="M150.5 239C104.461 239 -7.1822e-06 164.309 -5.15794e-06 118C-3.13369e-06 71.6905 95.9617 -6.44913e-06 142 -4.43671e-06C188.039 -2.42429e-06 243.5 80.3398 243.5 126.649C243.5 172.959 196.539 239 150.5 239Z"
        fill="#DFB5FF" />
    <path opacity="0.7"
        d="M150.5 239C104.461 239 -7.1822e-06 164.309 -5.15794e-06 118C-3.13369e-06 71.6905 95.9617 -6.44913e-06 142 -4.43671e-06C188.039 -2.42429e-06 243.5 80.3398 243.5 126.649C243.5 172.959 196.539 239 150.5 239Z"
        fill="white" />
    <ellipse cx="7" cy="7" rx="7" ry="7" transform="matrix(-4.37114e-08 1 1 4.37114e-08 241 61)" fill="#F1DEFF" />
    <ellipse cx="3.5" cy="3.5" rx="3.5" ry="3.5" transform="matrix(-4.37114e-08 1 1 4.37114e-08 229 49)"
        fill="#DFB5FF" />
    <ellipse cx="2" cy="2" rx="2" ry="2" transform="matrix(-4.37114e-08 1 1 4.37114e-08 246 36)" fill="#DCCDE8" />
    <g clip-path="url(#clip0_835_7243)">
        <path
            d="M151.521 10.4072H76.5648C63.9402 10.4072 53.706 20.6552 53.706 33.2967V197.703C53.706 210.345 63.9402 220.593 76.5648 220.593H151.521C164.146 220.593 174.38 210.345 174.38 197.703V33.2967C174.38 20.6552 164.146 10.4072 151.521 10.4072Z"
            fill="#50048A" />
        <path
            d="M151.456 222H76.63C63.2172 222 52.3007 211.069 52.3007 197.638V33.362C52.3007 19.9311 63.2172 9 76.63 9H151.456C164.869 9 175.785 19.9311 175.785 33.362V197.638C175.785 211.069 164.869 222 151.456 222ZM76.63 11.8144C64.7648 11.8144 55.1113 21.4809 55.1113 33.362V197.638C55.1113 209.519 64.7648 219.186 76.63 219.186H151.456C163.321 219.186 172.975 209.519 172.975 197.638V33.362C172.975 21.4809 163.321 11.8144 151.456 11.8144H76.63Z"
            fill="#3C3C3C" />
        <path d="M174.38 32.7564H53.706V191.261H174.38V32.7564Z" fill="white" />
        <path
            d="M174.38 192.668H53.706C52.9292 192.668 52.3007 192.039 52.3007 191.261V32.7564C52.3007 31.9786 52.9292 31.3492 53.706 31.3492H174.38C175.157 31.3492 175.785 31.9786 175.785 32.7564V191.255C175.785 192.033 175.157 192.662 174.38 192.662V192.668ZM55.1113 189.854H172.975V34.1636H55.1113V189.854Z"
            fill="#3C3C3C" />
        <path
            d="M126.137 204.062H104.398C103.622 204.062 102.993 203.433 102.993 202.655C102.993 201.877 103.622 201.248 104.398 201.248H126.137C126.913 201.248 127.542 201.877 127.542 202.655C127.542 203.433 126.913 204.062 126.137 204.062Z"
            fill="white" />
        <g opacity="0.13">
            <path
                d="M163.499 30.8267C159.384 30.7079 155.269 30.5238 151.148 30.5713C140.065 30.4585 128.983 30.4704 117.9 30.6248C109.178 30.6842 100.461 31.0464 91.7506 30.4585C81.0594 30.126 70.3742 29.4966 59.6712 29.9182C58.171 29.9479 56.6708 29.936 55.1766 29.8648C54.2693 29.7935 53.2969 29.6629 52.4786 30.1379C48.399 31.6995 49.662 38.0349 54.0559 37.9874C59.2739 38.3674 64.5098 37.9518 69.7338 38.0705C75.9659 38.0409 82.1801 38.5574 88.4063 38.6881C111.65 38.8306 134.906 38.9256 158.151 38.5159C161.24 38.5634 164.323 38.504 167.413 38.4387C169.968 38.7237 172.566 37.5183 172.595 34.6327C172.287 29.6688 166.95 31.0048 163.505 30.8207L163.499 30.8267Z"
                fill="#3C3C3C" />
        </g>
        <path
            d="M179.426 151.716C189.234 161.377 199.036 171.037 208.843 180.692C214.02 185.792 219.214 190.905 224.859 195.334C227.901 197.721 231.287 199.977 234.993 199.977C238.693 199.977 242.63 196.854 242.601 192.662C242.577 189.391 240.324 186.766 238.213 184.534C222.6 168.045 206.282 152.411 189.335 137.71C186.227 142.27 183.12 146.824 179.426 151.716Z"
            fill="white" />
        <path
            d="M234.993 201.385C230.866 201.385 227.267 199.004 223.993 196.439C218.277 191.956 212.982 186.737 207.859 181.695L178.442 152.72C177.938 152.227 177.879 151.431 178.306 150.867C181.976 146.01 185.125 141.391 188.167 136.932C188.392 136.599 188.754 136.374 189.151 136.326C189.548 136.273 189.951 136.391 190.254 136.653C207.171 151.331 223.644 167.119 239.227 183.572C241.521 186 243.976 188.898 244 192.656C244.012 194.841 243.128 196.949 241.498 198.588C239.76 200.34 237.323 201.385 234.987 201.385H234.993ZM181.288 151.574L209.827 179.689C214.891 184.676 220.127 189.836 225.725 194.224C228.601 196.48 231.714 198.564 234.993 198.57C236.6 198.57 238.284 197.834 239.511 196.599C240.608 195.495 241.207 194.099 241.195 192.668C241.177 189.937 239.209 187.627 237.193 185.501C222.043 169.5 206.038 154.127 189.607 139.806C187.022 143.594 184.336 147.495 181.288 151.574Z"
            fill="#3C3C3C" />
        <path
            d="M141.162 44.8988C107.393 44.8988 80.0099 72.3128 80.0099 106.133C80.0099 139.954 107.387 167.368 141.162 167.368C174.937 167.368 202.315 139.954 202.315 106.133C202.315 72.3128 174.937 44.8988 141.162 44.8988ZM141.162 152.637C115.511 152.637 94.7213 131.814 94.7213 106.133C94.7213 80.4532 115.517 59.63 141.162 59.63C166.808 59.63 187.603 80.4532 187.603 106.133C187.603 131.814 166.808 152.637 141.162 152.637ZM141.162 152.637C115.511 152.637 94.7213 131.814 94.7213 106.133C94.7213 80.4532 115.517 59.63 141.162 59.63C166.808 59.63 187.603 80.4532 187.603 106.133C187.603 131.814 166.808 152.637 141.162 152.637Z"
            fill="white" />
        <path
            d="M141.162 168.769C106.67 168.769 78.6105 140.667 78.6105 106.133C78.6105 71.6003 106.675 43.4975 141.162 43.4975C175.649 43.4975 203.714 71.5943 203.714 106.133C203.714 140.673 175.649 168.769 141.162 168.769ZM141.162 46.306C108.217 46.306 81.4152 73.144 81.4152 106.133C81.4152 139.123 108.217 165.961 141.162 165.961C174.107 165.961 200.909 139.123 200.909 106.133C200.909 73.144 174.107 46.306 141.162 46.306ZM141.162 154.044C114.781 154.044 93.316 132.55 93.316 106.133C93.316 79.717 114.781 58.2228 141.162 58.2228C167.543 58.2228 189.009 79.717 189.009 106.133C189.009 132.55 167.543 154.044 141.162 154.044ZM96.1207 106.133C96.1207 131 116.323 151.236 141.162 151.236C166.002 151.236 186.204 131.006 186.204 106.133C186.204 81.2607 166.002 61.0372 141.162 61.0372C116.323 61.0372 96.1207 81.2667 96.1207 106.133Z"
            fill="#3C3C3C" />
        <path
            d="M160.218 91V116.529C160.218 118.535 158.613 120.176 156.652 120.176H124.565C122.605 120.176 121 118.535 121 116.529V91"
            fill="#DFB5FF" />
        <path
            d="M160.218 91V116.529C160.218 118.535 158.613 120.176 156.652 120.176H124.565C122.605 120.176 121 118.535 121 116.529V91"
            stroke="#3C3C3C" stroke-width="3" stroke-linecap="round" stroke-linejoin="round" />
        <path d="M160.218 91L142.712 105.844C141.465 106.774 139.771 106.774 138.523 105.844L121 91H160.218Z"
            stroke="#3C3C3C" stroke-width="3" stroke-linecap="round" stroke-linejoin="round" />
        <path d="M121 91H160.218" stroke="#3C3C3C" stroke-width="3" stroke-linecap="round" stroke-linejoin="round" />
        <path
            d="M187.313 153.468C187.271 153.468 187.23 153.468 187.182 153.45C186.933 153.379 186.791 153.118 186.862 152.868L187.941 149.098C188.012 148.849 188.267 148.7 188.522 148.777C188.771 148.849 188.914 149.11 188.843 149.359L187.763 153.13C187.704 153.337 187.52 153.468 187.313 153.468Z"
            fill="#3C3C3C" />
        <path
            d="M192.454 160.071C192.454 160.071 192.412 160.071 192.394 160.071C192.139 160.035 191.956 159.803 191.991 159.542C192.566 155.137 193.26 150.683 194.055 146.313C194.102 146.058 194.345 145.898 194.6 145.933C194.855 145.981 195.021 146.224 194.98 146.479C194.191 150.838 193.497 155.273 192.922 159.661C192.892 159.898 192.691 160.071 192.46 160.071H192.454Z"
            fill="#3C3C3C" />
        <path
            d="M199.136 166.477C198.875 166.477 198.668 166.27 198.668 166.008C198.668 163.805 199.006 160.112 199.302 156.852C199.486 154.857 199.64 153.136 199.694 152.049C199.706 151.794 199.925 151.562 200.186 151.604C200.447 151.616 200.642 151.835 200.631 152.096C200.577 153.201 200.417 154.935 200.233 156.936C199.937 160.172 199.599 163.847 199.599 166.002C199.599 166.264 199.391 166.471 199.13 166.471L199.136 166.477Z"
            fill="#3C3C3C" />
        <path
            d="M205.973 172.795C205.718 172.795 205.511 172.593 205.505 172.338L205.155 156.698C205.155 156.437 205.357 156.223 205.612 156.217C205.884 156.217 206.086 156.419 206.092 156.674L206.442 172.314C206.442 172.575 206.24 172.789 205.985 172.795H205.973Z"
            fill="#3C3C3C" />
        <path
            d="M212.484 179.712C212.235 179.712 212.027 179.516 212.016 179.261L211.405 162.885C211.393 162.63 211.595 162.41 211.855 162.398C212.116 162.41 212.33 162.594 212.342 162.849L212.952 179.225C212.964 179.481 212.763 179.7 212.502 179.712H212.484Z"
            fill="#3C3C3C" />
        <path
            d="M219.107 185.543C218.858 185.543 218.657 185.347 218.639 185.098L217.815 169.796C217.803 169.535 217.999 169.316 218.254 169.304C218.556 169.28 218.734 169.488 218.746 169.743L219.57 185.044C219.582 185.306 219.386 185.525 219.131 185.537C219.119 185.537 219.113 185.537 219.107 185.537V185.543Z"
            fill="#3C3C3C" />
        <path
            d="M225.666 190.928C225.422 190.928 225.221 190.744 225.203 190.495L224.053 175.603C224.035 175.348 224.225 175.123 224.486 175.099C224.717 175.063 224.966 175.271 224.99 175.532L226.134 190.424C226.152 190.679 225.962 190.905 225.701 190.928C225.689 190.928 225.677 190.928 225.666 190.928Z"
            fill="#3C3C3C" />
        <path
            d="M231.874 195.774C231.637 195.774 231.435 195.595 231.411 195.352L230.071 182.289C230.048 182.034 230.231 181.802 230.486 181.773C230.718 181.737 230.973 181.933 230.996 182.188L232.336 195.251C232.36 195.506 232.176 195.738 231.921 195.762C231.904 195.762 231.892 195.762 231.874 195.762V195.774Z"
            fill="#3C3C3C" />
        <path
            d="M237.952 195.079C237.726 195.079 237.525 194.913 237.489 194.687L236.546 188.85C236.505 188.595 236.677 188.352 236.932 188.31C237.193 188.262 237.43 188.441 237.471 188.696L238.414 194.533C238.456 194.788 238.284 195.031 238.029 195.073C238.005 195.073 237.976 195.079 237.952 195.079Z"
            fill="#3C3C3C" />
        <g opacity="0.13">
            <path
                d="M184.425 120.942C182.889 122.242 182.178 124.332 180.873 125.876C180.636 126.321 177.493 129.854 175.72 131.54C174.184 132.912 172.714 134.117 171.214 135.263C170.947 135.317 170.686 135.418 170.431 135.572C162.788 141.112 157.042 143.137 147.371 144.918C142.781 145.779 137.498 146.497 130.27 144.704C125.206 143.523 122.763 142.133 117.473 138.571C115.226 136.991 110.227 132.58 106.824 128.459C103.165 123.447 101.914 119.066 101.161 117.07C100.402 115.022 99.8268 112.914 99.2279 110.818C98.3444 107.933 98.0716 106.923 98.0716 104.471C97.5142 102.909 96.9983 101.33 96.5417 99.7327C96.0911 99.5308 95.593 99.4239 95.0949 99.4655C94.2766 105.795 94.3952 112.142 95.1957 118.442C96.5714 123.887 98.2673 129.795 103.473 135.661C107.678 140.293 110.559 141.902 112.362 143.392C116.578 146.438 121.055 149.217 126.024 150.832C128.734 151.621 131.556 151.948 134.361 152.281C134.379 152.281 134.385 152.281 134.408 152.292C137.45 152.845 140.557 152.862 143.629 152.518C146.036 152.316 148.355 151.616 150.673 150.986C155.494 149.799 160.309 148.326 164.709 145.993C166.494 144.888 167.116 144.455 167.952 143.825C173.36 140.453 178.94 135.768 181.804 132.49C182.545 130.953 183.269 129.403 183.939 127.835C184.781 125.496 185.629 123.157 186.459 120.805C185.807 120.55 185.048 120.568 184.419 120.948L184.425 120.942Z"
                fill="#3C3C3C" />
        </g>
        <g opacity="0.13">
            <path
                d="M194.393 140.922C192.062 140.251 190.509 141.872 189.358 143.653C189.311 143.713 189.263 143.766 189.204 143.837C187.17 146.212 186.595 146.01 183.245 149.045C183.233 149.056 183.215 149.068 183.203 149.08C182.539 149.543 181.751 149.87 181.336 150.594C180.292 151.883 180.227 153.355 180.749 154.59C179.912 154.602 179.088 154.982 178.543 155.647C176.9 157.209 177.707 156.449 176.414 157.434C173.491 159.53 166.286 163.194 165.367 163.396C156.075 166.982 149.576 168.769 140.635 168.211C126.32 167.843 114.337 162.38 103.734 154.905C101.861 153.45 100.011 151.912 98.5697 150.006C98.7179 150.196 98.8661 150.386 99.0144 150.576C97.5083 148.777 96.3401 146.432 94.2173 145.31C91.4719 144.033 88.9577 147.756 91.1339 149.888C93.0314 151.497 94.3122 154.27 97.3719 156.983C100.343 159.602 103.568 161.888 107.085 163.716C109.877 165.646 112.902 167.136 115.955 168.603C117.675 169.369 123.041 171.726 127.198 172.599C134.159 174.089 141.382 174.849 148.497 174.22C156.793 173.264 164.768 170.266 172.115 166.376C175.797 164.269 179.687 162.345 182.717 159.305C183.346 158.705 183.589 157.856 183.494 157.043C184.472 157.333 185.575 157.274 186.649 156.645C189.317 155.172 191.606 153.094 193.438 150.666C194.618 149.371 195.762 148.023 196.67 146.521C197.956 144.431 196.747 141.533 194.387 140.91L194.393 140.922Z"
                fill="#3C3C3C" />
        </g>
        <path
            d="M61.3671 141.118C61.2604 141.118 61.1537 141.082 61.0647 141.005C60.869 140.839 60.8453 140.542 61.0113 140.346C64.664 136.053 68.708 132.039 73.0189 128.411C73.2145 128.245 73.511 128.269 73.6771 128.471C73.8431 128.667 73.8194 128.964 73.6178 129.13C69.3425 132.722 65.34 136.706 61.717 140.958C61.6221 141.064 61.4916 141.124 61.3612 141.124L61.3671 141.118Z"
            fill="#3C3C3C" />
        <path
            d="M59.7127 154.715C59.5941 154.715 59.4756 154.667 59.3866 154.578C59.2028 154.394 59.2028 154.097 59.3866 153.913C66.0041 147.174 72.835 140.488 79.7016 134.04C79.8854 133.862 80.1878 133.868 80.3597 134.064C80.5376 134.254 80.5258 134.551 80.336 134.723C73.4814 141.165 66.6564 147.839 60.0507 154.567C59.9618 154.662 59.8373 154.709 59.7187 154.709L59.7127 154.715Z"
            fill="#3C3C3C" />
        <path
            d="M58.1414 170.972C58.0346 170.972 57.922 170.937 57.833 170.859C57.6374 170.687 57.6196 170.396 57.7856 170.2C65.2688 161.585 73.2205 153.189 81.4093 145.25C81.5931 145.072 81.8896 145.078 82.0734 145.262C82.2513 145.446 82.2454 145.743 82.0615 145.927C73.8905 153.854 65.9626 162.226 58.4912 170.818C58.3964 170.925 58.2718 170.978 58.1354 170.978L58.1414 170.972Z"
            fill="#3C3C3C" />
        <path
            d="M74.4598 166.471C74.353 166.471 74.2463 166.436 74.1633 166.365C73.9676 166.198 73.9379 165.901 74.104 165.705C78.3377 160.587 83.0103 155.76 87.9912 151.354C88.1869 151.182 88.4834 151.2 88.6494 151.396C88.8213 151.592 88.8036 151.889 88.6079 152.055C83.6685 156.425 79.0315 161.217 74.8215 166.299C74.7266 166.412 74.5961 166.471 74.4598 166.471Z"
            fill="#3C3C3C" />
        <path
            d="M89.9065 164.257C89.7879 164.257 89.6693 164.215 89.5803 164.126C89.3965 163.948 89.3906 163.651 89.5685 163.461L96.3223 156.502C96.5062 156.318 96.7967 156.312 96.9865 156.49C97.1703 156.668 97.1762 156.965 96.9983 157.155L90.2445 164.114C90.1555 164.209 90.031 164.257 89.9065 164.257Z"
            fill="#3C3C3C" />
    </g>
    <defs>
        <clipPath id="clip0_835_7243">
            <rect width="194" height="213" fill="white" transform="translate(50 9)" />
        </clipPath>
    </defs>
</svg>