<svg width="103" height="19" viewBox="0 0 103 19" fill="none" xmlns="http://www.w3.org/2000/svg">
    <path
        d="M6.10094 18V1.104H10.3969V18H6.10094ZM0.892938 4.68V0.983999H15.6049V4.68H0.892938ZM20.9669 11.112V8.04H24.2069C24.9109 8.04 25.4469 7.872 25.8149 7.536C26.1989 7.184 26.3909 6.712 26.3909 6.12C26.3909 5.544 26.1989 5.08 25.8149 4.728C25.4469 4.36 24.9109 4.176 24.2069 4.176H20.9669V0.983999H24.8069C25.9589 0.983999 26.9669 1.2 27.8309 1.632C28.7109 2.064 29.3989 2.656 29.8949 3.408C30.3909 4.16 30.6389 5.04 30.6389 6.048C30.6389 7.056 30.3829 7.944 29.8709 8.712C29.3749 9.464 28.6789 10.056 27.7829 10.488C26.8869 10.904 25.8389 11.112 24.6389 11.112H20.9669ZM17.5589 18V0.983999H21.8549V18H17.5589ZM26.7749 18L21.8309 10.704L25.6949 9.768L31.7429 18H26.7749ZM41.7529 18.312C40.4409 18.312 39.2329 18.088 38.1289 17.64C37.0249 17.192 36.0569 16.568 35.2249 15.768C34.4089 14.968 33.7689 14.032 33.3049 12.96C32.8409 11.872 32.6089 10.704 32.6089 9.456C32.6089 8.208 32.8329 7.056 33.2809 6C33.7449 4.928 34.3849 3.992 35.2009 3.192C36.0169 2.392 36.9769 1.776 38.0809 1.344C39.1849 0.895999 40.3929 0.671999 41.7049 0.671999C43.0169 0.671999 44.2249 0.895999 45.3289 1.344C46.4329 1.776 47.3929 2.392 48.2089 3.192C49.0249 3.992 49.6569 4.928 50.1049 6C50.5689 7.072 50.8009 8.232 50.8009 9.48C50.8009 10.728 50.5689 11.888 50.1049 12.96C49.6569 14.032 49.0249 14.976 48.2089 15.792C47.3929 16.592 46.4329 17.216 45.3289 17.664C44.2409 18.096 43.0489 18.312 41.7529 18.312ZM41.7049 14.472C42.6649 14.472 43.4969 14.264 44.2009 13.848C44.9049 13.432 45.4489 12.848 45.8329 12.096C46.2169 11.344 46.4089 10.464 46.4089 9.456C46.4089 8.72 46.2969 8.048 46.0729 7.44C45.8649 6.832 45.5529 6.312 45.1369 5.88C44.7209 5.432 44.2249 5.088 43.6489 4.848C43.0729 4.608 42.4249 4.488 41.7049 4.488C40.7449 4.488 39.9129 4.696 39.2089 5.112C38.5049 5.512 37.9609 6.088 37.5769 6.84C37.1929 7.592 37.0009 8.464 37.0009 9.456C37.0009 10.224 37.1049 10.92 37.3129 11.544C37.5369 12.152 37.8569 12.68 38.2729 13.128C38.6889 13.56 39.1849 13.896 39.7609 14.136C40.3369 14.36 40.9849 14.472 41.7049 14.472ZM61.4873 18.312C60.1753 18.312 58.9673 18.088 57.8633 17.64C56.7593 17.192 55.7913 16.568 54.9593 15.768C54.1433 14.968 53.5033 14.032 53.0393 12.96C52.5753 11.872 52.3433 10.704 52.3433 9.456C52.3433 8.208 52.5673 7.056 53.0153 6C53.4793 4.928 54.1193 3.992 54.9353 3.192C55.7513 2.392 56.7113 1.776 57.8153 1.344C58.9193 0.895999 60.1273 0.671999 61.4393 0.671999C62.7513 0.671999 63.9593 0.895999 65.0633 1.344C66.1673 1.776 67.1273 2.392 67.9433 3.192C68.7593 3.992 69.3913 4.928 69.8393 6C70.3033 7.072 70.5353 8.232 70.5353 9.48C70.5353 10.728 70.3033 11.888 69.8393 12.96C69.3913 14.032 68.7593 14.976 67.9433 15.792C67.1273 16.592 66.1673 17.216 65.0633 17.664C63.9753 18.096 62.7833 18.312 61.4873 18.312ZM61.4393 14.472C62.3993 14.472 63.2313 14.264 63.9353 13.848C64.6393 13.432 65.1833 12.848 65.5673 12.096C65.9513 11.344 66.1433 10.464 66.1433 9.456C66.1433 8.72 66.0313 8.048 65.8073 7.44C65.5993 6.832 65.2873 6.312 64.8713 5.88C64.4553 5.432 63.9593 5.088 63.3833 4.848C62.8073 4.608 62.1593 4.488 61.4393 4.488C60.4793 4.488 59.6473 4.696 58.9433 5.112C58.2393 5.512 57.6953 6.088 57.3113 6.84C56.9273 7.592 56.7353 8.464 56.7353 9.456C56.7353 10.224 56.8393 10.92 57.0473 11.544C57.2713 12.152 57.5913 12.68 58.0073 13.128C58.4233 13.56 58.9193 13.896 59.4953 14.136C60.0713 14.36 60.7193 14.472 61.4393 14.472ZM77.8439 18L71.4359 0.983999H76.0199L80.8199 14.736H78.8519L83.7239 0.983999H88.2119L81.7319 18H77.8439ZM90.0042 18V0.983999H94.3002V18H90.0042ZM93.4122 18V14.376H102.628V18H93.4122ZM93.4122 11.088V7.56H101.764V11.088H93.4122ZM93.4122 4.608V0.983999H102.484V4.608H93.4122Z"
        fill="url(#paint0_linear_2966_11765)" />
    <defs>
        <linearGradient id="paint0_linear_2966_11765" x1="27.1193" y1="63.1791" x2="27.1193"
            y2="5.19404" gradientUnits="userSpaceOnUse">
            <stop stop-color="#9A32EB" />
            <stop offset="1" stop-color="#50048A" />
        </linearGradient>
    </defs>
</svg>
    