<svg width="29" height="45" viewBox="0 0 29 45" fill="none" xmlns="http://www.w3.org/2000/svg">
    <g clip-path="url(#clip0_2966_11766)">
        <path
            d="M28.6752 34.993C28.2238 34.9274 27.9001 35.0842 27.7019 35.5058C26.7276 37.5708 25.7646 39.6421 24.7903 41.7071C24.5081 42.3046 24.2372 42.9128 23.8938 43.4733C23.5638 44.0104 23.0813 44.0888 22.5812 43.7201C22.2169 43.451 21.8787 43.1342 21.5757 42.7941C20.5017 41.5905 19.6353 40.2354 18.8446 38.8263C18.6589 38.4947 18.4752 38.162 18.2781 37.8071C18.4835 37.6969 18.6589 37.6068 18.8301 37.5104C19.9009 36.9086 20.235 36.1394 19.9331 34.9358C19.6706 33.8901 19.0988 33.0023 18.5219 32.1186C18.3673 31.8813 18.2085 31.6461 18.0467 31.4014C18.1525 31.3018 18.2314 31.2191 18.3185 31.1471C20.3741 29.4339 22.661 28.1466 25.1815 27.3043C26.0479 27.015 26.9403 26.8021 27.8171 26.5436C27.9893 26.4927 28.146 26.3889 28.311 26.3105C28.2986 26.2575 28.2861 26.2056 28.2737 26.1526C28.1149 26.1526 27.9489 26.1229 27.7974 26.1569C25.0601 26.7692 22.4597 27.7472 20.0555 29.2294C19.3126 29.6871 18.6142 30.2179 17.8879 30.7042C17.809 30.7572 17.6461 30.7879 17.5859 30.7413C17.4396 30.63 17.3296 30.4669 17.201 30.3186C17.2529 30.2582 17.285 30.2105 17.3265 30.1723C18.634 28.9952 19.5481 27.531 20.2776 25.9354C21.723 22.7739 22.4276 19.3994 22.99 15.9867C23.1954 14.7365 23.3677 13.48 23.5503 12.2255C23.6333 11.6555 23.7101 11.0834 23.7827 10.5113C23.8284 10.151 23.762 10.0546 23.4071 10.1055C23.1363 10.1436 22.8499 10.2337 22.6216 10.382C20.814 11.5633 19.4402 13.1854 18.2511 14.9792C17.2352 16.5123 16.2495 18.0655 15.2481 19.6092C15.1734 19.7236 15.0832 19.8285 14.969 19.9789C14.9275 19.8581 14.8974 19.7999 14.8881 19.7374C14.7179 18.6175 14.5342 17.4986 14.3869 16.3756C14.1451 14.5183 13.9386 12.6557 13.6969 10.7984C13.4613 8.98453 13.1064 7.19504 12.5627 5.44899C11.9889 3.60758 11.193 1.8806 10.0205 0.35069C9.6428 -0.141976 9.01295 -0.11337 8.65912 0.408962C8.53564 0.591195 8.4215 0.779786 8.30321 0.966257C6.80796 3.32046 5.31169 5.67466 4.10076 8.20156C2.80993 10.8959 1.84389 13.6834 1.76814 16.7252C1.76607 16.8153 1.70277 16.9286 1.63221 16.988C0.892371 17.6162 0.626735 18.4585 0.590418 19.3962C0.546837 20.5182 0.796908 21.5947 1.14867 22.6467C2.43119 26.4842 4.6642 29.4816 8.39348 31.1471C8.45678 31.1757 8.55431 31.2414 8.55328 31.2869C8.54394 31.5868 8.51073 31.8845 8.48376 32.2108C7.01757 31.786 5.58562 31.6472 4.12359 31.8379C2.68023 32.0265 1.30639 32.4354 0.00415039 33.0944C0.403642 33.2014 0.765779 33.1008 1.1248 32.945C2.20291 32.4778 3.32979 32.2161 4.49921 32.1843C5.77862 32.1494 7.00823 32.4132 8.1901 32.9186C8.39556 33.0065 8.45989 33.1241 8.4713 33.3498C8.50866 34.0978 8.51904 34.8543 8.64666 35.5885C8.98597 37.5443 10.2706 39.0509 12.5451 39.1897C12.653 39.1961 12.8066 39.2522 12.8543 39.3359C13.0037 39.5997 13.149 39.8773 13.2279 40.1687C13.3607 40.6603 13.1843 40.8881 12.6821 40.8891C12.2307 40.8913 11.7783 40.8499 11.3269 40.8224C10.2177 40.7535 9.10945 40.6762 8.00021 40.6137C7.8757 40.6063 7.73562 40.6486 7.62147 40.7069C7.45026 40.7949 7.25208 40.94 7.35376 41.1455C7.41291 41.2642 7.63912 41.3426 7.79787 41.3574C8.34886 41.4083 8.904 41.4136 9.45603 41.4517C10.3577 41.5143 11.2574 41.6255 12.1591 41.6467C12.763 41.6605 13.3534 41.4973 13.8868 41.171C14.4896 40.8012 14.6432 40.3859 14.4066 39.7078C14.335 39.5023 14.2396 39.3052 14.1524 39.0954C14.2126 39.0668 14.252 39.0403 14.2966 39.0276C15.0832 38.7935 15.8697 38.5593 16.6573 38.3294C17.0588 38.2118 17.0619 38.215 17.2622 38.5911C17.9647 39.9144 18.6755 41.2314 19.5876 42.4212C20.2734 43.3165 21.0444 44.1227 22.0219 44.6885C22.9755 45.2405 24.1345 45.0731 24.81 44.1068C25.444 43.1999 26.0012 42.2517 26.4495 41.2388C27.2972 39.3264 28.1242 37.4045 28.9595 35.4857C29.0757 35.2187 28.9699 35.0365 28.6804 34.9941L28.6752 34.993ZM8.45574 30.1331C6.33169 28.8851 4.59883 27.2354 3.45223 24.9956C2.73834 23.6003 2.12613 22.1604 1.82832 20.6072C1.72248 20.0541 1.7173 19.481 1.67994 18.9162C1.67164 18.7986 1.72248 18.6779 1.74635 18.5581L1.81587 18.5698C1.87813 18.966 1.94454 19.3623 2.00161 19.7596C2.04 20.0255 2.17697 20.1633 2.44261 20.1241C2.61693 20.0976 2.79748 20.0658 2.95832 19.9969C3.18763 19.8984 3.27998 19.7416 3.23018 19.4471C3.11604 18.7658 3.04755 18.0761 2.98529 17.3874C2.95209 17.0145 2.99878 17.0049 3.36611 16.9361C3.56326 16.899 3.76456 16.8216 3.9337 16.7136C4.0219 16.6574 4.04265 16.4921 4.09453 16.3766C3.98766 16.33 3.88182 16.2495 3.77286 16.2431C3.6058 16.2336 3.43044 16.2537 3.26961 16.3004C2.98944 16.383 2.95935 16.2368 2.98633 16.0185C3.06831 15.3606 3.12122 14.6973 3.23952 14.0468C3.75937 11.1862 4.92672 8.58086 6.34103 6.08574C7.20123 4.56749 8.13822 3.09585 9.04201 1.60407C9.08974 1.52567 9.15096 1.45468 9.22982 1.34874C9.30972 1.45786 9.37405 1.53627 9.42905 1.62209C10.4947 3.25901 11.1339 5.0771 11.5157 6.98526C11.882 8.82031 12.158 10.6755 12.4942 12.5169C12.7101 13.6972 12.983 14.8669 13.1915 16.0482C13.3337 16.8513 13.4032 17.6671 13.5132 18.4755C13.6429 19.4269 13.7757 20.3784 13.922 21.3266C13.9708 21.6445 14.1088 21.7101 14.4294 21.6413C14.7739 21.5671 15.052 21.3997 15.2803 21.1147C16.4684 19.6314 17.4251 17.9892 18.4327 16.3819C19.3863 14.8605 20.3876 13.3761 21.6815 12.1259C21.8984 11.9162 22.1256 11.718 22.3487 11.5146L22.4214 11.5453C22.3965 11.8049 22.3819 12.0666 22.3446 12.3251C22.0675 14.2545 21.8206 16.1902 21.4968 18.1121C21.0237 20.9208 20.3015 23.6554 18.9442 26.1759C18.2936 27.3827 17.4946 28.4771 16.5525 29.4635C16.3885 29.6352 16.2484 29.6765 16.0098 29.5811C15.1911 29.2538 14.3371 29.1775 13.4572 29.2368C12.1985 29.3205 10.9834 29.6267 9.76524 29.9181C9.41141 30.0028 9.06795 30.1278 8.71411 30.2147C8.63836 30.2327 8.5346 30.1798 8.45781 30.1342L8.45574 30.1331ZM15.6144 30.256C15.5304 30.3238 15.4692 30.3821 15.4007 30.4266C14.6328 30.9309 13.7996 31.217 12.8844 31.2943C11.8955 31.378 10.9544 31.1852 10.0309 30.8631C9.93438 30.8292 9.81194 30.6957 9.80779 30.6025C9.80156 30.4478 9.80986 30.2603 10.0402 30.2052C11.2698 29.9106 12.4953 29.5949 13.7768 29.6744C14.3485 29.7104 14.8922 29.8513 15.4059 30.1077C15.4712 30.1406 15.5262 30.1925 15.6134 30.255L15.6144 30.256ZM17.9138 37.164C17.726 36.808 17.5143 36.4647 17.3286 36.1076C17.1823 35.8269 16.9436 35.8258 16.6946 35.8587C16.4352 35.8936 16.2131 36.0218 16.1426 36.2867C16.1115 36.4043 16.1727 36.5685 16.2339 36.6893C16.4238 37.0633 16.6324 37.4257 16.8586 37.8367C16.6863 37.8887 16.567 37.9289 16.4445 37.9618C15.6974 38.1588 14.9503 38.3527 14.2043 38.5508C13.9521 38.6176 13.7581 38.5816 13.6004 38.3347C13.4302 38.0698 13.2185 37.8325 13.0214 37.5856C12.7412 37.2349 11.991 37.3176 11.8052 37.7276C11.7731 37.7975 11.7949 37.912 11.8281 37.9893C11.8675 38.0815 11.9453 38.1567 11.9744 38.2987C11.8737 38.2552 11.7637 38.2235 11.6724 38.1652C10.585 37.467 9.97381 36.4382 9.731 35.1732C9.64591 34.7314 9.62101 34.2779 9.57328 33.8297C9.55771 33.6814 9.59507 33.5913 9.76939 33.5437C10.035 33.4706 10.2851 33.3413 10.5424 33.2353C10.5424 33.2036 10.5414 33.1718 10.5404 33.14C10.3017 33.015 10.0662 32.8825 9.82231 32.7692C9.66148 32.695 9.58573 32.5912 9.61478 32.4111C9.6345 32.2882 9.65006 32.1642 9.66459 32.0402C9.69572 31.7542 9.85033 31.6454 10.1284 31.7139C11.8623 32.1409 13.5806 32.1748 15.2627 31.4745C15.5584 31.3516 15.8458 31.2011 16.1239 31.0411C16.2754 30.9543 16.3626 30.9754 16.4456 31.1206C16.4975 31.2117 16.5618 31.2965 16.6168 31.3855C16.7019 31.5232 16.8378 31.6599 16.6739 31.7521C16.8357 31.9163 16.9945 32.0286 17.09 32.1811C17.809 33.3371 18.496 34.512 18.8467 35.8523C19.0303 36.5537 18.8871 36.8959 18.2884 37.2752C18.0965 37.396 18.0114 37.3462 17.917 37.1661L17.9138 37.164Z"
            fill="#50048A" />
        <path
            d="M11.2386 28.0597C11.2386 28.0873 11.2386 28.1148 11.2397 28.1424C12.1071 28.1137 12.9757 28.1095 13.841 28.0481C14.584 27.9951 15.3166 27.8499 15.99 27.4939C16.4134 27.2693 16.7475 26.9621 16.9343 26.4991C17.0152 26.2978 16.9654 26.1992 16.7693 26.1346C16.322 25.9852 15.8748 25.8337 15.4328 25.6663C13.7985 25.0476 12.2286 24.3038 10.8215 23.2337C9.66558 22.3543 8.68812 21.3054 7.92234 20.0573C7.7833 19.8306 7.62454 19.7141 7.36513 19.8158C7.06836 19.9323 6.76433 20.0372 6.4821 20.1855C6.39493 20.2311 6.32022 20.4017 6.32334 20.5129C6.33579 20.9929 6.37937 21.4718 6.40946 21.9517C6.47068 22.9021 6.50596 23.8546 6.59831 24.8007C6.6751 25.59 6.88262 26.3497 7.29664 27.0373C7.67019 27.6571 8.21703 28.0163 8.91951 28.0512C9.69048 28.0904 10.4646 28.0597 11.2376 28.0597H11.2386ZM8.38617 26.2172C8.15477 25.4194 8.00847 24.593 7.85905 23.773C7.77188 23.293 7.74698 22.8004 7.70029 22.313C7.68783 22.1806 7.69821 22.046 7.69821 21.9125L7.75839 21.8744C7.89951 22.0238 8.04271 22.171 8.18175 22.3215C9.73199 23.9997 11.6174 25.127 13.7477 25.857C14.2115 26.0159 14.667 26.2003 15.1236 26.3815C15.2273 26.4228 15.3249 26.4895 15.4151 26.5573C15.7285 26.7947 15.7244 27.0638 15.3602 27.2058C14.9337 27.3721 14.4792 27.5459 14.032 27.5617C12.7048 27.6084 11.3735 27.6126 10.0464 27.566C9.20902 27.5363 8.62275 27.0267 8.3872 26.2172H8.38617Z"
            fill="#50048A" />
        <path
            d="M16.8284 23.6564C17.9273 23.3746 18.7813 22.7092 19.3665 21.7239C19.5491 21.4156 19.6062 21.031 19.7214 20.6814C19.6985 20.6718 19.6757 20.6623 19.6529 20.6528C19.6529 19.8687 19.2627 19.2977 18.6547 18.8802C18.1379 18.5253 17.4271 18.7584 17.1636 19.3379C16.926 19.8613 16.6811 20.3836 16.4819 20.9229C16.2671 21.5056 16.0699 22.1 15.9236 22.7029C15.7648 23.3576 16.1975 23.8185 16.8284 23.6575V23.6564ZM18.0269 19.8486C18.4046 20.284 18.5063 20.7407 18.4212 21.2334C18.3019 21.9263 17.7104 22.688 17.1459 22.8713C17.1698 21.779 17.5901 20.8403 18.0269 19.8486Z"
            fill="#50048A" />
        <path
            d="M7.24684 17.7604C7.50937 17.8748 7.80198 17.915 8.08111 17.9881C8.81991 17.9627 9.41447 17.6703 9.90424 17.1395C10.7157 16.258 10.7043 14.9273 9.88245 14.1591C9.58672 13.8826 8.78048 13.9949 8.67256 14.3615C8.60512 14.5903 8.48994 14.7154 8.31458 14.833C8.11016 14.9707 7.91093 15.118 7.71897 15.2748C7.28524 15.6276 6.9148 16.0344 6.74462 16.5917C6.58794 17.1066 6.76226 17.5495 7.24684 17.7604ZM7.96281 16.4762C8.20251 15.9476 8.63002 15.6128 9.10941 15.297C9.484 16.0185 9.236 16.8248 8.59578 17.1024C8.39655 17.1882 8.21081 17.1946 8.04479 17.0325C7.87669 16.8693 7.8715 16.6765 7.96281 16.4762Z"
            fill="#50048A" />
    </g>
    <defs>
        <clipPath id="clip0_2966_11766">
            <rect width="29" height="45" fill="white" />
        </clipPath>
    </defs>
</svg>
    