<svg width="20" height="20" viewBox="0 0 20 20" fill="none" xmlns="http://www.w3.org/2000/svg">
<path d="M12.5298 4.24922C13.3247 4.40401 14.0553 4.79205 14.628 5.36365C15.2007 5.93525 15.5895 6.66441 15.7446 7.45782M12.5298 1C14.1814 1.18312 15.7214 1.9213 16.8972 3.09331C18.0729 4.26533 18.8144 5.80154 19 7.4497M18.1861 13.9319V16.3688C18.1871 16.595 18.1406 16.819 18.0498 17.0262C17.959 17.2335 17.8258 17.4196 17.6588 17.5725C17.4918 17.7255 17.2946 17.8419 17.0799 17.9144C16.8652 17.9869 16.6377 18.0138 16.4119 17.9934C13.9075 17.7218 11.5019 16.8677 9.38831 15.4996C7.42189 14.2525 5.7547 12.5885 4.50516 10.6258C3.12971 8.50667 2.27375 6.09396 2.00661 3.58313C1.98627 3.3585 2.01301 3.1321 2.08514 2.91836C2.15727 2.70461 2.2732 2.5082 2.42555 2.34162C2.5779 2.17504 2.76334 2.04195 2.97005 1.95082C3.17675 1.85969 3.40021 1.81252 3.62619 1.8123H6.06777C6.46274 1.80842 6.84565 1.94802 7.14512 2.20508C7.4446 2.46214 7.64021 2.81911 7.69549 3.20947C7.79854 3.98933 7.98966 4.75506 8.26519 5.49204C8.37469 5.78279 8.39839 6.09876 8.33348 6.40254C8.26857 6.70631 8.11777 6.98515 7.89895 7.20601L6.86535 8.23763C8.02392 10.2713 9.71097 11.9551 11.7485 13.1115L12.7821 12.0798C13.0034 11.8614 13.2828 11.7109 13.5871 11.6461C13.8915 11.5814 14.2081 11.605 14.4994 11.7143C15.2377 11.9893 16.0049 12.1801 16.7863 12.2829C17.1816 12.3386 17.5427 12.5373 17.8008 12.8414C18.0589 13.1454 18.196 13.5335 18.1861 13.9319Z" stroke="#3C3C3C" stroke-width="1.5" stroke-linecap="round" stroke-linejoin="round"/>
</svg>
