<svg width="28" height="25" viewBox="0 0 28 25" fill="none" xmlns="http://www.w3.org/2000/svg">
    <g clip-path="url(#clip0_1273_11384)">
        <path
            d="M23.1369 10.7954H5.24773L4.34977 8.15908C4.18651 7.69317 3.74336 7.38635 3.2419 7.38635H0.583008L1.58592 13.25C1.67922 13.7954 2.16901 14.2045 2.74044 14.2045H11.0786L8.74627 24.4318H12.2448L18.0757 14.2045H26.6005C27.3235 14.2045 27.6967 13.3523 27.1719 12.8523L26.4372 12.1364C25.5626 11.2841 24.3731 10.8068 23.1369 10.8068V10.7954Z"
            stroke="#3C3C3C" stroke-width="1.5" stroke-linecap="round" stroke-linejoin="round" />
        <path
            d="M11.0787 10.7954L8.74634 0.568176H11.5568C11.9767 0.568176 12.3732 0.795449 12.5714 1.14772L18.0641 10.7954H11.067H11.0787Z"
            stroke="#3C3C3C" stroke-width="1.5" stroke-miterlimit="10" stroke-linecap="round" />
    </g>
    <defs>
        <clipPath id="clip0_1273_11384">
            <rect width="28" height="25" fill="white" />
        </clipPath>
    </defs>
</svg>