<svg width="25" height="25" viewBox="0 0 25 25" fill="none" xmlns="http://www.w3.org/2000/svg">
    <g clip-path="url(#clip0_1273_11392)">
        <path
            d="M20.6318 20.6318C16.1408 25.1227 8.85921 25.1227 4.36823 20.6318C-0.122744 16.1408 -0.122744 8.85921 4.36823 4.36823C8.85921 -0.122744 16.1408 -0.122744 20.6318 4.36823C25.1227 8.85921 25.1227 16.1408 20.6318 20.6318Z"
            stroke="#3C3C3C" stroke-width="1.5" stroke-miterlimit="10" />
        <path d="M4 21L10.6431 14.3633L14.3674 10.6367L21 4" stroke="#3C3C3C" stroke-width="1.5"
            stroke-miterlimit="10" />
        <path d="M12.1932 1C10.1839 4.01385 10.7328 8.36374 13.6845 11.3155C16.6363 14.2672 20.9965 14.8161 24 12.8068"
            stroke="#3C3C3C" stroke-width="1.5" stroke-miterlimit="10" />
        <path d="M11.8986 24C13.7533 21.218 13.2466 17.2027 10.522 14.478C7.7973 11.7534 3.77246 11.2467 1 13.1014"
            stroke="#3C3C3C" stroke-width="1.5" stroke-miterlimit="10" />
    </g>
    <defs>
        <clipPath id="clip0_1273_11392">
            <rect width="25" height="25" fill="white" />
        </clipPath>
    </defs>
</svg>