<svg width="31" height="26" viewBox="0 0 31 26" fill="none" xmlns="http://www.w3.org/2000/svg">
    <g clip-path="url(#clip0_1273_11371)">
        <path d="M7.87158 18.6027C8.76992 17.3243 9.98325 16.2644 11.4066 15.5214" stroke="#3C3C3C" stroke-width="1.5"
            stroke-linecap="round" stroke-linejoin="round" />
        <path
            d="M13.25 11.7954V10.8339C13.25 9.927 14.0317 9.19492 15 9.19492C15.9683 9.19492 16.75 9.927 16.75 10.8339V11.7954"
            stroke="#3C3C3C" stroke-width="1.5" stroke-linejoin="round" />
        <path d="M12.0834 1.54633C10.9167 3.73164 13.25 3.73164 12.0834 5.91695" stroke="#3C3C3C" stroke-width="1.5"
            stroke-linecap="round" stroke-linejoin="round" />
        <path d="M15.5834 1.54633C14.4167 3.73164 16.75 3.73164 15.5834 5.91695" stroke="#3C3C3C" stroke-width="1.5"
            stroke-linecap="round" stroke-linejoin="round" />
        <path d="M19.0834 1.54633C17.9167 3.73164 20.25 3.73164 19.0834 5.91695" stroke="#3C3C3C" stroke-width="1.5"
            stroke-linecap="round" stroke-linejoin="round" />
        <path d="M1.58325 25.4537H28.4166" stroke="#3C3C3C" stroke-width="1.5" stroke-linecap="round"
            stroke-linejoin="round" />
        <path
            d="M27.25 23.2683H2.75C2.75 16.9309 8.23333 11.7954 15 11.7954C21.7667 11.7954 27.25 16.9309 27.25 23.2683Z"
            stroke="#3C3C3C" stroke-width="1.5" stroke-linecap="round" stroke-linejoin="round" />
    </g>
    <defs>
        <clipPath id="clip0_1273_11371">
            <rect width="31" height="26" fill="white" />
        </clipPath>
    </defs>
</svg>