<svg width="30" height="30" viewBox="0 0 30 30" fill="none" xmlns="http://www.w3.org/2000/svg">
<path d="M19.3512 7.97712C18.8417 7.97712 18.4239 7.54771 18.4239 7.04674V4.93038C18.4239 4.41918 18.8417 4 19.3512 4C19.8505 4 20.2683 4.41918 20.2683 4.93038V7.04674C20.2683 7.54771 19.8505 7.97712 19.3512 7.97712ZM13.2982 9.95034L11.8105 8.44742C11.4538 8.08958 11.4538 7.49659 11.8105 7.14898C12.1569 6.79114 12.748 6.78092 13.1046 7.14898L14.6026 8.66212C14.9592 9.01996 14.949 9.60273 14.6128 9.95034C14.2663 10.3082 13.6651 10.3184 13.2982 9.95034ZM24.0897 9.96057C23.7432 9.60273 23.733 9.00974 24.0897 8.66212L25.5978 7.14898C25.9545 6.79114 26.5353 6.79114 26.892 7.14898C27.2486 7.50682 27.2486 8.08958 26.892 8.44742L25.4042 9.95034C25.0374 10.3184 24.4361 10.3082 24.0897 9.96057ZM22.0618 19.0803C21.7255 15.9825 19.4633 13.8559 16.1515 13.6003C15.8356 12.9971 15.4688 12.5063 15.0204 12.0565C15.8662 10.5944 17.4864 9.5925 19.3512 9.5925C22.1739 9.5925 24.4463 11.8724 24.4463 14.7045C24.4463 16.5141 23.5292 18.0784 22.0618 19.0803ZM4.30027 25C1.72215 25 0 23.3539 0 21.0331C0 19.1519 1.16168 17.6694 2.89402 17.1582C3.20992 13.7537 6.06318 11.1261 9.45652 11.1261C12.1365 11.1261 14.2154 12.5881 15.3567 14.7658C18.4647 14.7863 20.7779 16.964 20.7779 19.8676C20.7779 22.761 18.5258 25 15.6012 25H4.30027ZM26.9735 15.6349C26.4742 15.6349 26.0462 15.2157 26.0462 14.7147C26.0462 14.2035 26.4742 13.7843 26.9735 13.7843H29.0829C29.5924 13.7843 30 14.2035 30 14.7147C30 15.2157 29.5924 15.6349 29.0829 15.6349H26.9735ZM25.5978 22.2804L24.0897 20.7775C23.7432 20.4299 23.733 19.8369 24.0897 19.4791C24.4463 19.1212 25.0272 19.1315 25.3838 19.4791L26.8818 20.982C27.2385 21.3398 27.2486 21.9226 26.892 22.2804C26.5353 22.6383 25.9545 22.6485 25.5978 22.2804Z" fill="#F8D74A"/>
<path d="M0 20.9971C0 23.339 1.74056 25 4.34625 25H15.768C18.7239 25 21 22.7406 21 19.8209C21 16.8909 18.6621 14.6934 15.5208 14.6728C14.3673 12.4753 12.2663 11 9.55763 11C6.128 11 3.24424 13.6514 2.92496 17.087C1.1741 17.6028 0 19.0987 0 20.9971Z" fill="white"/>
</svg>
