<svg width="20" height="20" viewBox="0 0 20 20" fill="none" xmlns="http://www.w3.org/2000/svg">
<path d="M16.9643 5.76674C17.7191 5.01195 17.7191 3.7882 16.9643 3.03341C16.2095 2.27862 14.9858 2.27862 14.231 3.03341L11.1897 6.07472C10.4349 6.8295 10.4349 8.05326 11.1897 8.80804C11.9445 9.56283 13.1682 9.56283 13.923 8.80804L16.9643 5.76674Z" stroke="#3C3C3C" stroke-width="1.5" stroke-linecap="round" stroke-linejoin="round"/>
<path d="M8.79733 13.9332C9.55211 13.1785 9.55211 11.9547 8.79733 11.1999C8.04254 10.4451 6.81879 10.4451 6.064 11.1999L3.02269 14.2412C2.26791 14.996 2.26791 16.2198 3.0227 16.9745C3.77748 17.7293 5.00123 17.7293 5.75602 16.9745L8.79733 13.9332Z" stroke="#3C3C3C" stroke-width="1.5" stroke-linecap="round" stroke-linejoin="round"/>
<path d="M12.5 7.5L7.5 12.5" stroke="#3C3C3C" stroke-width="1.5" stroke-linecap="round" stroke-linejoin="round"/>
</svg>
