<svg width="24" height="27" viewBox="0 0 24 27" fill="none" xmlns="http://www.w3.org/2000/svg">
    <path d="M13 15V24" stroke="#3C3C3C" stroke-width="1.5" stroke-miterlimit="10" />
    <path d="M9 26C11.7314 23.3333 14.2686 23.3333 17 26" stroke="#3C3C3C" stroke-width="1.5" stroke-miterlimit="10"
        stroke-linecap="round" />
    <path d="M11 11L10 12" stroke="#3C3C3C" stroke-width="1.5" stroke-miterlimit="10" stroke-linecap="round" />
    <path d="M21 1L15 7" stroke="#3C3C3C" stroke-width="1.5" stroke-miterlimit="10" stroke-linecap="round" />
    <path d="M20.9048 3H23C23 9.32727 18.0762 15 12 15C5.92381 15 1 9.32727 1 3H15.6667" stroke="#3C3C3C"
        stroke-width="1.5" stroke-miterlimit="10" stroke-linecap="round" />
    <path
        d="M13 12C14.6569 12 16 10.6569 16 9C16 7.34315 14.6569 6 13 6C11.3431 6 10 7.34315 10 9C10 10.6569 11.3431 12 13 12Z"
        stroke="#3C3C3C" stroke-width="1.5" stroke-miterlimit="10" stroke-linecap="round" />
</svg>