<svg width="25" height="24" viewBox="0 0 25 24" fill="none" xmlns="http://www.w3.org/2000/svg">
    <path d="M22.0242 12H16.0242L14.0242 15H10.0242L8.02417 12H2.02417" stroke="currentColor" stroke-width="1.5"
        stroke-linecap="round" stroke-linejoin="round" />
    <path
        d="M5.47417 5.11L2.02417 12V18C2.02417 18.5304 2.23488 19.0391 2.60996 19.4142C2.98503 19.7893 3.49374 20 4.02417 20H20.0242C20.5546 20 21.0633 19.7893 21.4384 19.4142C21.8135 19.0391 22.0242 18.5304 22.0242 18V12L18.5742 5.11C18.4086 4.77679 18.1533 4.49637 17.8371 4.30028C17.5209 4.10419 17.1563 4.0002 16.7842 4H7.26417C6.89209 4.0002 6.52743 4.10419 6.21121 4.30028C5.895 4.49637 5.63975 4.77679 5.47417 5.11Z"
        stroke="currentColor" stroke-width="1.5" stroke-linecap="round" stroke-linejoin="round" />
</svg>