<svg width="25" height="24" viewBox="0 0 18 18" fill="none" xmlns="http://www.w3.org/2000/svg">
<path d="M4.9115 9H3.48187C2.3773 9 1.48187 9.89543 1.48187 11V13C1.48187 14.1046 2.3773 15 3.48187 15H14.4819C15.5864 15 16.4819 14.1046 16.4819 13V11C16.4819 9.89543 15.5864 9 14.4819 9H13.0522C12.3835 9 11.7591 9.3342 11.3881 9.8906L11.0756 10.3594C10.7047 10.9158 10.0802 11.25 9.41151 11.25H8.55224C7.88353 11.25 7.25907 10.9158 6.88814 10.3594L6.57561 9.8906C6.20467 9.3342 5.58021 9 4.9115 9Z" fill="#50048A"/>
<path d="M16.5 9H12L10.5 11.25H7.5L6 9H1.5" stroke="#50048A" stroke-width="1.5" stroke-linecap="round" stroke-linejoin="round"/>
<path d="M4.0875 3.8325L1.5 9V13.5C1.5 13.8978 1.65804 14.2794 1.93934 14.5607C2.22064 14.842 2.60218 15 3 15H15C15.3978 15 15.7794 14.842 16.0607 14.5607C16.342 14.2794 16.5 13.8978 16.5 13.5V9L13.9125 3.8325C13.7883 3.58259 13.5969 3.37228 13.3597 3.22521C13.1226 3.07814 12.8491 3.00015 12.57 3H5.43C5.15094 3.00015 4.87745 3.07814 4.64028 3.22521C4.40312 3.37228 4.21168 3.58259 4.0875 3.8325Z" stroke="#50048A" stroke-width="1.5" stroke-linecap="round" stroke-linejoin="round"/>
</svg>
