<svg width="20" height="20" viewBox="0 0 20 20" fill="none" xmlns="http://www.w3.org/2000/svg">
<path d="M9.37492 14.0833H10.6249V8.72917H9.37492V14.0833ZM9.99992 7.35417C10.2006 7.35417 10.3688 7.28628 10.5046 7.15052C10.6404 7.01475 10.7083 6.84653 10.7083 6.64583C10.7083 6.44514 10.6404 6.27691 10.5046 6.14114C10.3688 6.00538 10.2006 5.9375 9.99992 5.9375C9.79922 5.9375 9.63099 6.00538 9.49523 6.14114C9.35947 6.27691 9.29158 6.44514 9.29158 6.64583C9.29158 6.84653 9.35947 7.01475 9.49523 7.15052C9.63099 7.28628 9.79922 7.35417 9.99992 7.35417ZM9.99992 18.3125C8.05547 17.8264 6.45825 16.6979 5.20825 14.9271C3.95825 13.1562 3.33325 11.2153 3.33325 9.10417V4.14583L9.99992 1.64583L16.6666 4.14583V9.10417C16.6666 11.2153 16.0416 13.1562 14.7916 14.9271C13.5416 16.6979 11.9444 17.8264 9.99992 18.3125ZM9.99992 17.0208C11.5971 16.4931 12.8992 15.4965 13.9062 14.0312C14.9131 12.566 15.4166 10.9236 15.4166 9.10417V5.02083L9.99992 2.97917L4.58325 5.02083V9.10417C4.58325 10.9236 5.08672 12.566 6.09367 14.0312C7.10061 15.4965 8.4027 16.4931 9.99992 17.0208Z" fill="#3C3C3C"/>
</svg>
