<svg width="65" height="64" viewBox="0 0 65 64" fill="none" xmlns="http://www.w3.org/2000/svg">
<path d="M44.5 18C44.5 11.9249 39.5751 7 33.5 7C29.6384 7 26.2416 8.98979 24.2789 12L17.5 12C16.3954 12 15.5 12.8954 15.5 14L15.5 22C15.5 22.0623 15.5028 22.124 15.5084 22.1848H15.5V26C15.5 29.3137 18.1863 32 21.5 32H23.028C23.0342 32 23.0404 31.9999 23.0466 31.9999C24.4018 31.9999 25.5004 30.9026 25.5004 29.5489C25.5004 28.1953 24.4018 27.0979 23.0466 27.0979C22.2924 27.0979 21.6177 27.4378 21.1676 27.9725C20.2212 27.8142 19.5 26.9913 19.5 26V24H20.498C21.6875 24 22.7961 23.6539 23.7287 23.0569C25.5596 26.5876 29.2481 29 33.5 29C39.5751 29 44.5 24.0751 44.5 18ZM26.5 18C26.5 14.134 29.634 11 33.5 11C37.366 11 40.5 14.134 40.5 18C40.5 21.866 37.366 25 33.5 25C29.634 25 26.5 21.866 26.5 18ZM22.498 18C22.498 19.1046 21.6026 20 20.498 20L19.5 20L19.5 16L22.498 16V18Z" fill="#EC6531"/>
<path fill-rule="evenodd" clip-rule="evenodd" d="M52.5 39C52.5 35.6863 49.8137 33 46.5 33H18.5C15.1863 33 12.5 35.6863 12.5 39V41C12.5 48.8858 19.938 57 32.5 57C45.062 57 52.5 48.8858 52.5 41V39ZM16.5 39C16.5 37.8954 17.3954 37 18.5 37H32.5H46.5C47.6046 37 48.5 37.8954 48.5 39V41C48.5 46.7506 42.7714 53 32.5 53C22.2286 53 16.5 46.7506 16.5 41V39Z" fill="#0B0B0C"/>
</svg>
