<svg width="54" height="53" viewBox="0 0 54 53" fill="none" xmlns="http://www.w3.org/2000/svg">
    <path
        d="M44.6667 13.2501C45.2295 13.2507 45.7709 13.4662 46.1802 13.8526C46.5895 14.239 46.8358 14.7671 46.8687 15.329C46.9017 15.8909 46.7189 16.4442 46.3577 16.8758C45.9964 17.3074 45.484 17.5848 44.925 17.6513L44.6667 17.6667H44.4878L42.4583 41.9584C42.4584 43.6483 41.8128 45.2743 40.6535 46.5037C39.4942 47.7332 37.9089 48.4732 36.222 48.5724L35.8333 48.5834H18.1667C14.6377 48.5834 11.7537 45.8252 11.5593 42.5105L11.5483 42.1417L9.50999 17.6667H9.33333C8.77047 17.6661 8.22909 17.4506 7.81981 17.0642C7.41052 16.6778 7.16423 16.1497 7.13124 15.5878C7.09825 15.0259 7.28107 14.4727 7.64233 14.041C8.00359 13.6094 8.51603 13.332 9.07495 13.2655L9.33333 13.2501H44.6667ZM23.7118 24.6009C23.2491 24.3255 22.7017 24.2286 22.1726 24.3285C21.6435 24.4283 21.1691 24.7181 20.8386 25.1432C20.5082 25.5684 20.3444 26.0996 20.3782 26.637C20.412 27.1744 20.641 27.681 21.022 28.0614L23.8752 30.9167L21.022 33.7721L20.8387 33.9797C20.4955 34.4236 20.3342 34.9814 20.3874 35.5399C20.4406 36.0985 20.7044 36.6158 21.1252 36.9869C21.546 37.358 22.0923 37.555 22.6531 37.5378C23.214 37.5207 23.7472 37.2908 24.1446 36.8947L27 34.0415L29.8554 36.8947L30.063 37.078C30.5068 37.4212 31.0647 37.5826 31.6232 37.5294C32.1817 37.4762 32.6991 37.2124 33.0702 36.7915C33.4412 36.3707 33.6382 35.8244 33.6211 35.2636C33.604 34.7028 33.374 34.1695 32.978 33.7721L30.1248 30.9167L32.978 28.0614L33.1612 27.8538C33.5044 27.4099 33.6658 26.8521 33.6126 26.2935C33.5594 25.735 33.2956 25.2177 32.8748 24.8466C32.4539 24.4755 31.9076 24.2785 31.3468 24.2957C30.786 24.3128 30.2528 24.5427 29.8554 24.9388L27 27.792L24.1446 24.9388L23.937 24.7555L23.7118 24.6009Z"
        fill="currentColor" />
    <path
        d="M31.4167 4.41675C32.5881 4.41675 33.7114 4.88207 34.5397 5.71036C35.368 6.53865 35.8333 7.66204 35.8333 8.83341C35.8327 9.39627 35.6172 9.93765 35.2308 10.3469C34.8444 10.7562 34.3163 11.0025 33.7544 11.0355C33.1925 11.0685 32.6393 10.8857 32.2076 10.5244C31.776 10.1632 31.4986 9.65071 31.4321 9.09179L31.4167 8.83341H22.5833L22.5679 9.09179C22.5014 9.65071 22.224 10.1632 21.7924 10.5244C21.3608 10.8857 20.8075 11.0685 20.2456 11.0355C19.6837 11.0025 19.1556 10.7562 18.7692 10.3469C18.3828 9.93765 18.1673 9.39627 18.1667 8.83341C18.1663 7.71914 18.5872 6.64591 19.3448 5.82887C20.1025 5.01183 21.141 4.51136 22.2521 4.42779L22.5833 4.41675H31.4167Z"
        fill="currentColor" />
    <path
        d="M44.6667 13.2501C45.2295 13.2507 45.7709 13.4662 46.1802 13.8526C46.5895 14.239 46.8358 14.7671 46.8687 15.329C46.9017 15.8909 46.7189 16.4442 46.3577 16.8758C45.9964 17.3074 45.484 17.5848 44.925 17.6513L44.6667 17.6667H44.4878L42.4583 41.9584C42.4584 43.6483 41.8128 45.2743 40.6535 46.5037C39.4942 47.7332 37.9089 48.4732 36.222 48.5724L35.8333 48.5834H18.1667C14.6377 48.5834 11.7537 45.8252 11.5593 42.5105L11.5483 42.1417L9.50999 17.6667H9.33333C8.77047 17.6661 8.22909 17.4506 7.81981 17.0642C7.41052 16.6778 7.16423 16.1497 7.13124 15.5878C7.09825 15.0259 7.28107 14.4727 7.64233 14.041C8.00359 13.6094 8.51603 13.332 9.07495 13.2655L9.33333 13.2501H44.6667ZM23.7118 24.6009C23.2491 24.3255 22.7017 24.2286 22.1726 24.3285C21.6435 24.4283 21.1691 24.7181 20.8386 25.1432C20.5082 25.5684 20.3444 26.0996 20.3782 26.637C20.412 27.1744 20.641 27.681 21.022 28.0614L23.8752 30.9167L21.022 33.7721L20.8387 33.9797C20.4955 34.4236 20.3342 34.9814 20.3874 35.5399C20.4406 36.0985 20.7044 36.6158 21.1252 36.9869C21.546 37.358 22.0923 37.555 22.6531 37.5378C23.214 37.5207 23.7472 37.2908 24.1446 36.8947L27 34.0415L29.8554 36.8947L30.063 37.078C30.5068 37.4212 31.0647 37.5826 31.6232 37.5294C32.1817 37.4762 32.6991 37.2124 33.0702 36.7915C33.4412 36.3707 33.6382 35.8244 33.6211 35.2636C33.604 34.7028 33.374 34.1695 32.978 33.7721L30.1248 30.9167L32.978 28.0614L33.1612 27.8538C33.5044 27.4099 33.6658 26.8521 33.6126 26.2935C33.5594 25.735 33.2956 25.2177 32.8748 24.8466C32.4539 24.4755 31.9076 24.2785 31.3468 24.2957C30.786 24.3128 30.2528 24.5427 29.8554 24.9388L27 27.792L24.1446 24.9388L23.937 24.7555L23.7118 24.6009Z"
        stroke="currentColor" />
    <path
        d="M31.4167 4.41675C32.5881 4.41675 33.7114 4.88207 34.5397 5.71036C35.368 6.53865 35.8333 7.66204 35.8333 8.83341C35.8327 9.39627 35.6172 9.93765 35.2308 10.3469C34.8444 10.7562 34.3163 11.0025 33.7544 11.0355C33.1925 11.0685 32.6393 10.8857 32.2076 10.5244C31.776 10.1632 31.4986 9.65071 31.4321 9.09179L31.4167 8.83341H22.5833L22.5679 9.09179C22.5014 9.65071 22.224 10.1632 21.7924 10.5244C21.3608 10.8857 20.8075 11.0685 20.2456 11.0355C19.6837 11.0025 19.1556 10.7562 18.7692 10.3469C18.3828 9.93765 18.1673 9.39627 18.1667 8.83341C18.1663 7.71914 18.5872 6.64591 19.3448 5.82887C20.1025 5.01183 21.141 4.51136 22.2521 4.42779L22.5833 4.41675H31.4167Z"
        stroke="currentColor" />
</svg>