<svg width="20" height="20" viewBox="0 0 20 20" fill="none" xmlns="http://www.w3.org/2000/svg">
<path d="M6.64575 14.7917H13.3541V13.5417H6.64575V14.7917ZM6.64575 11.25H13.3541V10H6.64575V11.25ZM4.58325 18.3333C4.24992 18.3333 3.95825 18.2083 3.70825 17.9583C3.45825 17.7083 3.33325 17.4167 3.33325 17.0833V2.91667C3.33325 2.58333 3.45825 2.29167 3.70825 2.04167C3.95825 1.79167 4.24992 1.66667 4.58325 1.66667H12.1041L16.6666 6.22917V17.0833C16.6666 17.4167 16.5416 17.7083 16.2916 17.9583C16.0416 18.2083 15.7499 18.3333 15.4166 18.3333H4.58325ZM11.4791 6.79167V2.91667H4.58325V17.0833H15.4166V6.79167H11.4791Z" fill="#3C3C3C"/>
</svg>
