<svg width="16" height="16" viewBox="0 0 16 16" fill="none" xmlns="http://www.w3.org/2000/svg">
<path d="M11.7571 4.56295L11.3541 2.55406C11.3008 2.27554 11.0578 2.07999 10.7734 2.07999H5.22672C4.94228 2.07999 4.69932 2.28147 4.64598 2.55406L4.24302 4.56295C4.18969 4.84147 3.94672 5.03702 3.66228 5.03702H2.37043C1.71858 5.03702 1.18524 5.57036 1.18524 6.22221V12.7407C1.18524 13.3926 1.71858 13.9259 2.37043 13.9259H13.6297C14.2815 13.9259 14.8149 13.3926 14.8149 12.7407V6.22221C14.8149 5.57036 14.2815 5.03702 13.6297 5.03702H12.3378C12.0534 5.03702 11.8104 4.83554 11.7571 4.56295Z" stroke="#3C3C3C" stroke-width="1.5" stroke-miterlimit="10"/>
<path d="M8.00004 12.1482C9.80008 12.1482 11.2593 10.6889 11.2593 8.8889C11.2593 7.08886 9.80008 5.62964 8.00004 5.62964C6.2 5.62964 4.74078 7.08886 4.74078 8.8889C4.74078 10.6889 6.2 12.1482 8.00004 12.1482Z" stroke="#3C3C3C" stroke-width="1.5" stroke-miterlimit="10"/>
</svg>
