<svg width="156" height="228" viewBox="0 0 136 208" fill="none" xmlns="http://www.w3.org/2000/svg">
<path d="M120.954 127.997C119.272 127.757 118.067 128.329 117.329 129.864C113.699 137.386 110.114 144.93 106.484 152.45C105.433 154.627 104.425 156.842 103.146 158.884C101.917 160.839 100.119 161.125 98.257 159.782C96.9007 158.802 95.6406 157.648 94.5127 156.41C90.5123 152.026 87.2853 147.09 84.341 141.958C83.6495 140.75 82.9652 139.538 82.2307 138.246C82.9959 137.845 83.6495 137.517 84.2867 137.166C88.2749 134.973 89.5196 132.173 88.3947 127.788C87.4174 123.98 85.2876 120.746 83.1393 117.528C82.5636 116.663 81.9715 115.807 81.3691 114.915C81.7635 114.552 82.0565 114.251 82.3813 113.989C90.0369 107.749 98.5552 103.061 107.942 99.9927C111.169 98.9396 114.492 98.1641 117.757 97.2216C118.4 97.0372 118.983 96.6592 119.597 96.3734C119.551 96.1797 119.505 95.9913 119.458 95.7987C118.867 95.7987 118.249 95.6901 117.685 95.814C107.489 98.0442 97.8053 101.606 88.8506 107.004C86.0836 108.672 83.4825 110.605 80.778 112.376C80.484 112.569 79.8775 112.68 79.6532 112.511C79.1082 112.106 78.6984 111.512 78.2189 110.972C78.4126 110.751 78.5324 110.577 78.6871 110.439C83.5563 106.152 86.9605 100.818 89.6773 95.0068C95.0608 83.4921 97.6854 71.2016 99.7794 58.7722C100.545 54.2186 101.187 49.642 101.866 45.0731C102.176 42.997 102.461 40.9132 102.732 38.8294C102.902 37.5173 102.655 37.1662 101.333 37.3514C100.324 37.4904 99.2579 37.8183 98.4076 38.3586C91.676 42.6613 86.5589 48.5692 82.1303 55.1023C78.347 60.6861 74.6754 66.3433 70.9462 71.9656C70.668 72.3825 70.3318 72.7645 69.9066 73.3125C69.752 72.8726 69.64 72.6603 69.6052 72.4326C68.9714 68.3538 68.2874 64.2787 67.7386 60.1884C66.8382 53.4238 66.0692 46.6398 65.1687 39.8752C64.2915 33.2688 62.9697 26.7511 60.9447 20.3917C58.8076 13.6848 55.8435 7.39487 51.4765 1.82263C50.0699 0.0282134 47.7241 0.132501 46.4062 2.03489C45.9464 2.69862 45.5212 3.38551 45.0807 4.06462C39.5119 12.6391 33.9391 21.2136 29.4292 30.417C24.6217 40.2302 21.0237 50.3829 20.7416 61.4618C20.7339 61.7898 20.4982 62.2027 20.2353 62.4188C17.4799 64.7072 16.4906 67.775 16.3554 71.19C16.193 75.2766 17.1244 79.1973 18.4345 83.0291C23.2111 97.0065 31.5277 107.923 45.4169 113.989C45.6527 114.093 46.0159 114.333 46.012 114.499C45.9773 115.591 45.8536 116.675 45.7532 117.863C40.2925 116.316 34.9593 115.81 29.5142 116.505C24.1386 117.192 19.0219 118.682 14.1719 121.082C15.6598 121.471 17.0085 121.104 18.3457 120.538C22.3609 118.835 26.5578 117.883 30.9132 117.767C35.6782 117.64 40.2577 118.601 44.6595 120.441C45.4246 120.761 45.6642 121.189 45.7068 122.012C45.8459 124.736 45.8845 127.491 46.3598 130.166C47.6236 137.289 52.4079 142.776 60.879 143.282C61.2809 143.305 61.8529 143.51 62.0307 143.814C62.5872 144.775 63.1282 145.786 63.4219 146.848C63.9166 148.638 63.2596 149.467 61.3891 149.471C59.7081 149.479 58.0231 149.329 56.342 149.228C52.2108 148.977 48.0835 148.696 43.9522 148.468C43.4885 148.442 42.9668 148.595 42.5416 148.807C41.904 149.128 41.1659 149.657 41.5447 150.405C41.7649 150.838 42.6074 151.123 43.1986 151.177C45.2508 151.362 47.3183 151.382 49.3743 151.52C52.7325 151.749 56.0831 152.153 59.4414 152.231C61.6906 152.28 63.8896 151.686 65.876 150.498C68.1212 149.152 68.6932 147.638 67.8121 145.169C67.5454 144.42 67.1899 143.703 66.8653 142.938C67.0894 142.834 67.2362 142.738 67.4024 142.691C70.3318 141.838 73.2607 140.986 76.1947 140.149C77.6903 139.72 77.7016 139.732 78.4474 141.102C81.0638 145.922 83.711 150.718 87.108 155.051C89.662 158.312 92.5335 161.249 96.1743 163.309C99.7261 165.32 104.042 164.71 106.558 161.191C108.919 157.888 110.995 154.434 112.664 150.745C115.821 143.779 118.902 136.779 122.013 129.791C122.445 128.818 122.052 128.155 120.973 128.001L120.954 127.997ZM45.6488 110.296C37.738 105.75 31.2841 99.7417 27.0139 91.5841C24.355 86.5022 22.0749 81.2579 20.9658 75.6008C20.5716 73.5864 20.5523 71.4988 20.4132 69.4419C20.3822 69.0136 20.5716 68.5737 20.6605 68.1377L20.9194 68.1801C21.1513 69.6234 21.3986 71.0666 21.6112 72.5136C21.7542 73.4822 22.2642 73.9839 23.2537 73.8411C23.9028 73.7447 24.5753 73.6288 25.1743 73.378C26.0284 73.0192 26.3724 72.4481 26.1868 71.3753C25.7617 68.8941 25.5066 66.3819 25.2748 63.8736C25.1511 62.5153 25.325 62.4805 26.6931 62.2298C27.4273 62.0946 28.177 61.8129 28.8069 61.4193C29.1355 61.2148 29.2127 60.6129 29.406 60.1922C29.0079 60.0224 28.6137 59.7292 28.208 59.706C27.5858 59.6712 26.9326 59.7446 26.3336 59.9144C25.2902 60.2154 25.1782 59.6829 25.2787 58.8879C25.584 56.4916 25.7811 54.0759 26.2216 51.7065C28.1578 41.2875 32.5054 31.7985 37.7728 22.7108C40.9765 17.1811 44.4663 11.8211 47.8323 6.38774C48.01 6.10213 48.238 5.84356 48.5318 5.45776C48.8294 5.85514 49.0689 6.14075 49.2738 6.45331C53.2426 12.4153 55.6233 19.0371 57.0454 25.9871C58.4096 32.6706 59.4376 39.4275 60.6896 46.1342C61.4935 50.4331 62.5099 54.6933 63.2867 58.996C63.8161 61.921 64.075 64.8924 64.4847 67.8366C64.9678 71.302 65.4624 74.7673 66.0073 78.221C66.1889 79.3786 66.7029 79.6179 67.8971 79.367C69.1801 79.0969 70.2158 78.4872 71.066 77.4492C75.4909 72.0467 79.0539 66.0655 82.8064 60.2115C86.3581 54.6701 90.0871 49.2638 94.9061 44.7104C95.7144 43.9462 96.5606 43.2247 97.3914 42.4837L97.6618 42.5957C97.5696 43.5411 97.5153 44.4942 97.376 45.4358C96.3444 52.4628 95.4245 59.513 94.2187 66.5131C92.4566 76.743 89.7665 86.7026 84.7119 95.8827C82.2891 100.279 79.3131 104.265 75.8043 107.857C75.1938 108.482 74.6713 108.633 73.7831 108.286C70.7337 107.093 67.5532 106.816 64.276 107.032C59.5882 107.336 55.0629 108.452 50.5258 109.513C49.2081 109.821 47.9289 110.277 46.611 110.594C46.3289 110.659 45.9425 110.466 45.6565 110.3L45.6488 110.296ZM72.3104 110.743C71.9974 110.991 71.7694 111.203 71.5143 111.365C68.6546 113.202 65.5513 114.244 62.1428 114.525C58.4598 114.83 54.9547 114.128 51.5152 112.955C51.1558 112.831 50.6998 112.345 50.6843 112.005C50.6612 111.442 50.692 110.759 51.55 110.559C56.1295 109.485 60.6935 108.336 65.4663 108.625C67.5957 108.757 69.6207 109.27 71.5337 110.203C71.7772 110.323 71.982 110.512 72.3066 110.74L72.3104 110.743ZM80.8743 135.904C80.1746 134.607 79.3868 133.357 78.6943 132.057C78.1493 131.033 77.2611 131.03 76.333 131.149C75.3669 131.277 74.5402 131.743 74.2779 132.708C74.1611 133.136 74.3896 133.735 74.618 134.175C75.3249 135.537 76.1014 136.857 76.9445 138.354C76.3022 138.543 75.8576 138.69 75.4017 138.81C72.6194 139.527 69.8371 140.233 67.0585 140.955C66.1194 141.198 65.3967 141.067 64.8093 140.167C64.1755 139.203 63.3872 138.339 62.6529 137.439C61.6095 136.162 58.8153 136.463 58.1236 137.956C58.0038 138.212 58.085 138.627 58.2086 138.909C58.3554 139.245 58.6454 139.52 58.7535 140.036C58.3787 139.878 57.969 139.763 57.6289 139.551C53.5789 137.007 51.3027 133.26 50.3983 128.653C50.0814 127.043 49.9887 125.392 49.8109 123.76C49.753 123.22 49.8921 122.891 50.5413 122.718C51.5306 122.452 52.462 121.98 53.4204 121.595C53.4204 121.479 53.4166 121.364 53.4127 121.248C52.5238 120.792 51.6466 120.309 50.7384 119.897C50.1394 119.627 49.8573 119.249 49.9655 118.592C50.0389 118.145 50.0969 117.693 50.151 117.242C50.267 116.2 50.8428 115.804 51.8785 116.054C58.3362 117.609 64.7359 117.732 71.0003 115.181C72.1017 114.733 73.1726 114.185 74.2083 113.603C74.7717 113.287 75.0965 113.364 75.4058 113.892C75.5995 114.224 75.8392 114.533 76.0441 114.857C76.3606 115.359 76.8667 115.856 76.2561 116.192C76.8595 116.791 77.4506 117.199 77.8061 117.756C80.484 121.965 83.042 126.245 84.3482 131.127C85.0325 133.68 84.4988 134.927 82.2696 136.309C81.5545 136.749 81.238 136.567 80.8856 135.912L80.8743 135.904Z" fill="white"/>
<path d="M56.029 102.739C56.029 102.839 56.029 102.939 56.0329 103.039C59.2637 102.936 62.4983 102.921 65.7213 102.696C68.4883 102.504 71.2167 101.975 73.7248 100.678C75.3014 99.8595 76.5461 98.7408 77.2417 97.0546C77.5429 96.3211 77.3574 95.9625 76.627 95.7269C74.9613 95.1829 73.2955 94.6307 71.6496 94.0212C65.5629 91.7674 59.7158 89.0588 54.4754 85.1614C50.1703 81.9586 46.53 78.1383 43.6779 73.5925C43.16 72.7667 42.5687 72.3423 41.6026 72.7127C40.4973 73.1371 39.365 73.5192 38.3138 74.0594C37.9892 74.2254 37.7109 74.8466 37.7225 75.2518C37.7689 76.9999 37.9313 78.7441 38.0434 80.4922C38.2713 83.9536 38.4027 87.4228 38.7467 90.869C39.0327 93.7436 39.8055 96.5106 41.3475 99.0154C42.7388 101.272 44.7754 102.58 47.3917 102.707C50.2631 102.851 53.1461 102.739 56.0252 102.739H56.029ZM45.4053 96.0281C44.5436 93.1228 43.9987 90.1119 43.4421 87.1257C43.1175 85.3776 43.0247 83.5832 42.8509 81.8081C42.8045 81.3257 42.8431 80.8356 42.8431 80.3494L43.0672 80.2105C43.5929 80.7546 44.1262 81.291 44.644 81.8389C50.4177 87.9514 57.4395 92.0573 65.3735 94.7158C67.101 95.2946 68.7975 95.9666 70.498 96.6264C70.8844 96.7769 71.2477 97.0197 71.5839 97.2666C72.7505 98.1313 72.7352 99.1117 71.3791 99.628C69.7907 100.234 68.098 100.868 66.4324 100.925C61.4897 101.095 56.5314 101.11 51.5886 100.94C48.4699 100.833 46.2864 98.9764 45.4092 96.0281H45.4053Z" fill="white"/>
<path d="M76.8472 86.7017C80.9399 85.6748 84.1208 83.2514 86.2997 79.6627C86.98 78.5397 87.1931 77.1389 87.6223 75.8655C87.5373 75.8307 87.4522 75.796 87.3672 75.7613C87.3672 72.9057 85.9135 70.8258 83.6495 69.3054C81.7246 68.0126 79.0774 68.8616 78.096 70.9724C77.2109 72.8787 76.2981 74.7811 75.5564 76.7454C74.7563 78.8677 74.0228 81.0325 73.4778 83.2282C72.8857 85.613 74.4982 87.2918 76.8472 86.7048V86.7017ZM81.3107 72.8324C82.7173 74.4184 83.0963 76.0816 82.7798 77.8759C82.3352 80.3996 80.1326 83.1742 78.0305 83.8418C78.1186 79.8633 79.6839 76.4443 81.3107 72.8324Z" fill="white"/>
<path d="M41.1619 65.2265C42.1396 65.6433 43.2295 65.7899 44.2691 66.0561C47.0206 65.9635 49.235 64.8985 51.0591 62.9652C54.0812 59.7546 54.0386 54.9078 50.9779 52.1102C49.8765 51.103 46.8738 51.512 46.4718 52.8472C46.2206 53.6808 45.7917 54.136 45.1386 54.5644C44.3772 55.066 43.6352 55.6024 42.9203 56.1735C41.3049 57.4586 39.9252 58.9404 39.2915 60.9702C38.7079 62.8456 39.3572 64.4586 41.1619 65.2265ZM43.8284 60.5495C44.7211 58.6239 46.3134 57.4045 48.0988 56.2546C49.4939 58.8825 48.5703 61.8191 46.1859 62.8302C45.4439 63.1427 44.7521 63.1659 44.1337 62.5755C43.5077 61.9812 43.4884 61.2788 43.8284 60.5495Z" fill="white"/>
<g clip-path="url(#clip0_1174_10852)">
<path d="M18.8901 182.344V187.829H12.5737V207.276H6.95918V187.829H0.642822V182.344H18.8901ZM34.2613 207.276L29.6293 199.084H26.9624V207.276H21.3478V182.344H31.1733C33.5126 182.344 35.5011 183.175 37.1387 184.837C38.7763 186.499 39.5951 188.518 39.5951 190.892C39.5951 192.412 39.174 193.825 38.3318 195.13C37.513 196.413 36.4252 197.41 35.0684 198.122L40.2969 207.276H34.2613ZM26.9624 187.687V194.098H31.1733C31.9453 194.098 32.6003 193.789 33.1384 193.172C33.6998 192.554 33.9805 191.794 33.9805 190.892C33.9805 189.99 33.6998 189.23 33.1384 188.613C32.6003 187.995 31.9453 187.687 31.1733 187.687H26.9624ZM63.368 204.035C60.8883 206.528 57.8705 207.774 54.3146 207.774C50.7587 207.774 47.7409 206.528 45.2611 204.035C42.7814 201.542 41.5415 198.467 41.5415 194.81C41.5415 191.153 42.7814 188.078 45.2611 185.585C47.7409 183.092 50.7587 181.845 54.3146 181.845C57.8705 181.845 60.8883 183.092 63.368 185.585C65.8476 188.078 67.0877 191.153 67.0877 194.81C67.0877 198.467 65.8476 201.542 63.368 204.035ZM49.1913 200.152C50.5716 201.53 52.2793 202.218 54.3146 202.218C56.3498 202.218 58.0459 201.53 59.4028 200.152C60.783 198.775 61.4731 196.994 61.4731 194.81C61.4731 192.625 60.783 190.845 59.4028 189.467C58.0459 188.09 56.3498 187.402 54.3146 187.402C52.2793 187.402 50.5716 188.09 49.1913 189.467C47.8345 190.845 47.156 192.625 47.156 194.81C47.156 196.994 47.8345 198.775 49.1913 200.152ZM91.0228 204.035C88.5432 206.528 85.5254 207.774 81.9693 207.774C78.4132 207.774 75.3954 206.528 72.9159 204.035C70.4363 201.542 69.1962 198.467 69.1962 194.81C69.1962 191.153 70.4363 188.078 72.9159 185.585C75.3954 183.092 78.4132 181.845 81.9693 181.845C85.5254 181.845 88.5432 183.092 91.0228 185.585C93.5023 188.078 94.7424 191.153 94.7424 194.81C94.7424 198.467 93.5023 201.542 91.0228 204.035ZM76.846 200.152C78.2265 201.53 79.9341 202.218 81.9693 202.218C84.0046 202.218 85.7009 201.53 87.0575 200.152C88.438 198.775 89.1279 196.994 89.1279 194.81C89.1279 192.625 88.438 190.845 87.0575 189.467C85.7009 188.09 84.0046 187.402 81.9693 187.402C79.9341 187.402 78.2265 188.09 76.846 189.467C75.4894 190.845 74.8108 192.625 74.8108 194.81C74.8108 196.994 75.4894 198.775 76.846 200.152ZM102.736 207.276L94.7355 182.344H100.876L106.315 200.687L111.755 182.344H117.895L109.895 207.276H102.736ZM125.621 201.791H135.447V207.276H120.007V182.344H135.271V187.829H125.621V191.961H134.394V197.374H125.621V201.791Z" fill="white"/>
</g>
<defs>
<clipPath id="clip0_1174_10852">
<rect width="135.351" height="26.0767" fill="white" transform="translate(0.0986328 181.835)"/>
</clipPath>
</defs>
</svg>
