<svg width="90%" height="90%" viewBox="0 0 287 268" fill="none" xmlns="http://www.w3.org/2000/svg">
<g clip-path="url(#clip0_274_4115)">
<path d="M19.823 135.682C19.823 135.682 19.7018 181.367 56.4025 210.529C93.0972 239.698 145.324 240.056 187.57 241.468C229.816 242.887 263.171 217.508 269.341 180.688C275.504 143.867 243.524 134.239 227.404 93.1327C211.29 52.026 213.32 38.257 177.062 13.8961C140.803 -10.4647 82.1524 7.31786 50.1726 52.3352C18.1928 97.3525 19.823 135.676 19.823 135.676V135.682Z" fill="#DFB5FF"/>
<path opacity="0.7" d="M19.823 135.682C19.823 135.682 19.7018 181.367 56.4025 210.529C93.0972 239.698 145.324 240.056 187.57 241.468C229.816 242.887 263.171 217.508 269.341 180.688C275.504 143.867 243.524 134.239 227.404 93.1327C211.29 52.026 213.32 38.257 177.062 13.8961C140.803 -10.4647 82.1524 7.31786 50.1726 52.3352C18.1928 97.3525 19.823 135.676 19.823 135.676V135.682Z" fill="white"/>
<g clip-path="url(#clip1_274_4115)">
<path d="M51.6668 88.4631C82.1648 66.9784 114.337 44.191 144.834 22.7126C150.427 18.775 156.801 14.6406 163.545 15.7396C167.668 16.4158 171.216 18.9857 174.379 21.7161C203.25 46.6528 221.332 96.2148 239.193 115.708C234.023 147.114 206.513 176.172 180.084 193.861C170.922 199.991 161 205.46 150.118 207.213C141.989 208.522 133.586 207.692 125.688 205.351C102.463 198.461 84.6223 179.01 74.0157 157.208C63.4091 135.405 57.36 112.473 51.6678 88.4568L51.6668 88.4631Z" fill="#50048A"/>
<path d="M133.684 208.614C130.89 208.191 128.076 207.565 125.286 206.737C103.917 200.399 84.7566 182.574 72.7315 157.843C61.7666 135.311 55.6246 111.381 50.2748 88.7924C50.137 88.2184 50.3622 87.6223 50.8438 87.2836C66.0923 76.5444 81.7567 65.4759 97.4275 54.4084C113.092 43.3399 128.763 32.2723 144.011 21.5331C150.095 17.2389 156.661 13.1079 163.78 14.3152C168.392 15.072 172.205 17.9264 175.322 20.6241C192.699 35.6316 206.118 59.3009 217.956 80.1837C225.766 93.9537 233.139 106.963 240.253 114.73C240.55 115.058 240.682 115.502 240.61 115.935C235.266 148.364 206.252 178.068 180.879 195.055C172.947 200.362 162.307 206.706 150.346 208.637C145.046 209.493 139.397 209.48 133.684 208.614ZM53.2951 89.0764C58.5581 111.22 64.6319 134.626 75.3126 156.574C86.9912 180.585 105.502 197.861 126.104 203.966C134.192 206.363 142.419 206.998 149.897 205.79C161.312 203.95 171.6 197.804 179.29 192.66C203.983 176.129 232.18 147.408 237.661 116.151C230.481 108.104 223.179 95.221 215.454 81.6055C203.727 60.926 190.441 37.4826 173.438 22.8019C170.621 20.3684 167.216 17.7943 163.311 17.1577C157.256 16.1309 151.26 19.9366 145.658 23.8858C130.41 34.625 114.745 45.6935 99.0746 56.7611C83.683 67.6394 68.2861 78.5105 53.2888 89.0755L53.2951 89.0764Z" fill="#3C3C3C"/>
<path d="M96.9789 23.6745C91.4725 74.4667 85.0679 125.168 77.7594 175.732C77.7594 175.732 192.799 190.816 193.107 189.415C199.512 139.39 206.862 89.4878 215.151 39.7412L96.9798 23.6682L96.9789 23.6745Z" fill="white"/>
<path d="M77.5431 177.159C77.1727 177.103 76.8368 176.904 76.6122 176.606C76.3822 176.301 76.2805 175.913 76.3324 175.529C83.6076 125.184 90.0725 74.0423 95.5442 23.5214C95.5835 23.135 95.7851 22.7797 96.0907 22.543C96.3972 22.3 96.7851 22.198 97.169 22.2497L215.34 38.3227L215.359 38.3256C215.736 38.3826 216.077 38.5887 216.301 38.8927C216.53 39.204 216.624 39.5978 216.559 39.9866C208.312 89.4953 200.896 139.837 194.524 189.604C194.517 189.648 194.51 189.692 194.504 189.736C194.144 191.348 194.118 191.479 174.782 189.308C165.197 188.228 151.851 186.624 135.13 184.534C106.654 180.978 77.8507 177.206 77.561 177.168L77.5296 177.164L77.5431 177.159ZM98.248 25.301C92.8589 74.8954 86.5146 125.072 79.392 174.494C121.469 180.007 183.038 187.761 191.835 188.065C198.113 139.133 205.397 89.6582 213.488 40.9684L98.249 25.2947L98.248 25.301Z" fill="#3C3C3C"/>
<path d="M51.6668 88.4631C50.3569 119.825 36.4833 187.692 37.714 196.227C38.5152 201.789 42.9019 206.152 48.4697 206.873C48.4697 206.873 147.553 224.183 204.553 231.573C211.885 232.523 221.69 231.262 223.807 217.292C229.168 181.907 231.215 158.948 239.197 115.721C211.523 136.077 183.359 155.761 154.736 174.745C150.217 177.739 144.356 180.781 139.44 178.511C125.207 170.888 114.331 158.37 103.79 146.135C86.5166 126.075 69.2431 106.016 51.6711 88.4767L51.6668 88.4631Z" fill="white"/>
<path d="M163.553 227.18C110.065 219.075 48.9986 208.426 48.223 208.29C48.1288 208.275 48.0284 208.26 47.9342 208.246C41.9639 207.341 37.1717 202.518 36.2961 196.43C35.705 192.32 38.2288 176.469 41.418 156.397C45.029 133.668 49.527 105.382 50.2367 88.4072C50.2588 87.8381 50.6179 87.333 51.1504 87.1243C51.683 86.9155 52.2872 87.0392 52.6877 87.4472C70.2989 105.024 87.8835 125.446 104.884 145.188C114.753 156.646 125.936 169.641 140.121 177.238C144.477 179.255 150.095 176.087 153.943 173.538C182.423 154.648 210.823 134.801 238.347 114.55C238.824 114.198 239.463 114.179 239.961 114.493C240.46 114.806 240.718 115.392 240.61 115.974C235.337 144.548 232.693 163.989 229.895 184.571C228.495 194.868 227.048 205.518 225.233 217.501C223.417 229.485 216.249 234.535 204.37 232.998C192.264 231.428 178.186 229.404 163.558 227.187L163.553 227.18ZM48.6546 205.441C49.7055 205.626 148.43 222.85 204.738 230.141C215.074 231.482 220.847 227.205 222.382 217.07C224.194 205.111 225.639 194.474 227.038 184.183C229.723 164.433 232.268 145.729 237.125 119.015C210.474 138.549 183.035 157.686 155.525 175.939C151.106 178.871 144.564 182.459 138.831 179.815C124.099 171.929 112.73 158.72 102.698 147.07C86.4684 128.216 69.7079 108.755 52.9303 91.7803C51.8394 109.109 47.6511 135.436 44.2455 156.851C41.3443 175.109 38.6036 192.348 39.132 196.023C39.8392 200.935 43.772 204.817 48.6473 205.447L48.6546 205.441Z" fill="#3C3C3C"/>
<g opacity="0.13">
<path d="M85.624 113.064C82.0654 106.415 76.644 101.04 71.0338 96.1057C68.9128 94.1249 66.5376 92.4658 64.2187 90.7317C61.8161 88.9141 59.4365 87.0292 56.7053 85.7278C52.0353 83.7853 49.0121 90.5563 53.572 92.7587C58.3786 95.1978 59.5524 96.2247 63.1156 98.3082C63.1282 98.3101 63.1335 98.3173 63.1451 98.3255C63.5193 98.5687 63.8843 98.8298 64.2411 99.1026C63.6355 100.175 63.725 101.661 64.8187 102.496C68.6995 105.239 70.9223 106.971 73.0878 109.93C74.2527 111.566 75.3824 113.223 76.6196 114.806C77.0946 115.528 77.7453 116.192 78.6416 116.296C79.167 116.388 79.678 116.279 80.1236 116.051C80.2054 116.147 80.2882 116.237 80.3637 116.332C80.6767 116.682 81.4222 117.907 81.5772 118.156C81.5922 118.184 81.6126 118.219 81.6276 118.247C81.7611 118.595 81.9524 118.901 82.2305 119.142C83.4782 120.656 86.1516 120.135 86.8784 118.348C87.6037 116.528 86.3462 114.698 85.623 113.07L85.624 113.064Z" fill="#3C3C3C"/>
</g>
<g opacity="0.13">
<path d="M235.683 114.668C234.658 114.782 233.903 115.569 233.002 116.004C234.33 115.247 231.23 117.016 229.888 117.777C225.029 120.225 220.33 122.966 215.631 125.708C212.401 127.566 210.093 128.812 205.661 131.446C204.213 132.313 202.764 133.187 201.378 134.154C200.737 134.616 199.965 135.001 199.62 135.753C197.601 138.824 201.595 142.471 204.518 140.264C210.467 136.052 216.716 132.278 222.827 128.31C227.502 125.346 229.67 124.562 234.832 121.472C235.994 120.626 237.635 120.225 238.411 118.959C239.731 117.075 237.922 114.345 235.682 114.68L235.683 114.668Z" fill="#3C3C3C"/>
</g>
<g opacity="0.13">
<path d="M191.443 145.216C188.365 147.219 183.6 150.485 181.684 151.642C179.857 152.722 175.23 155.115 170.222 157.822C164.554 161.318 162.133 162.758 156.336 166.092C153.22 167.717 148.671 170.906 143.236 171.047C138.851 170.486 138.556 170.229 134.577 168.77C131.519 167.336 131.497 167.146 128.372 164.794C125.402 162.441 122.597 159.887 119.667 157.481C118.538 156.583 117.484 155.189 115.88 155.434C113.479 155.643 112.497 158.987 114.439 160.451C119.084 164.339 123.431 168.625 128.449 172.042C131.239 173.892 134.36 175.163 137.516 176.245C145.575 179.473 153.682 175.473 160.352 170.952C166.524 167.135 172.393 162.859 178.586 159.077C183.176 156.164 187.7 153.139 192.196 150.083C193 149.433 194.11 149.061 194.664 148.161C195.985 146.181 193.355 143.744 191.451 145.204L191.443 145.216Z" fill="#3C3C3C"/>
</g>
<path d="M47.7315 199.243C47.4929 199.207 47.3187 199 47.3245 198.75C47.5938 190.7 48.822 182.68 50.9863 174.923C51.0567 174.67 51.3311 174.512 51.5765 174.588C51.8292 174.658 51.9813 174.926 51.9108 175.179C49.7705 182.862 48.5484 190.8 48.2833 198.78C48.2756 199.042 48.0511 199.253 47.7889 199.245C47.7701 199.242 47.7513 199.24 47.7324 199.237L47.7315 199.243Z" fill="#3C3C3C"/>
<path d="M55.3348 201.746C55.1088 201.712 54.9327 201.518 54.9303 201.279C54.8644 198.111 55.1095 194.926 55.6467 191.805C55.6857 191.547 55.9369 191.373 56.1943 191.412L56.2068 191.414C56.4705 191.454 56.6443 191.705 56.5981 191.968C56.0704 195.027 55.8339 198.155 55.8968 201.259C55.9016 201.523 55.695 201.743 55.4246 201.747C55.3995 201.743 55.3672 201.744 55.3421 201.74L55.3348 201.746Z" fill="#3C3C3C"/>
<path d="M136.965 131.99C135.659 131.792 134.33 131.539 132.963 131.235C125.136 129.49 117.83 122.266 114.353 112.832C111.882 106.128 109.349 92.7078 120.236 78.1626C128.224 67.4874 145.238 62.3475 156.656 67.184C170.168 72.9039 174.711 83.0983 170.154 97.4963C165.221 113.098 157.638 114.059 155.144 114.375C154.973 114.401 154.836 114.412 154.736 114.436C153.561 114.856 152.192 114.738 150.935 114.091C149.398 113.299 148.142 111.758 147.672 110.072C146.907 107.364 147.671 104.612 148.289 102.396L148.784 100.613C145.566 104.852 141.544 108.468 136.968 111.119C135.785 111.808 134.395 112.46 132.831 112.145C130.222 111.602 128.904 108.817 129.309 104.704C129.758 100.174 130.391 95.4009 132.691 91.2408C135.354 86.4219 140.06 83.4239 144.683 83.5971C147.481 83.6994 150.295 85.2578 152.04 87.6446C152.125 87.7604 152.204 87.8753 152.283 87.9902C152.304 87.9355 152.32 87.8735 152.341 87.8189L153.263 84.4856C153.474 83.7328 154.243 83.2769 155.003 83.4757C155.757 83.6672 156.226 84.4265 156.053 85.1912C155.787 86.3536 155.47 87.5084 155.093 88.6411L151.061 103.177C150.399 105.552 149.935 107.508 150.442 109.296C150.706 110.223 151.413 111.109 152.259 111.539C152.641 111.732 153.222 111.923 153.826 111.712C154.104 111.613 154.405 111.575 154.786 111.523C156.828 111.267 163.036 110.477 167.413 96.6372C171.496 83.7174 167.616 74.9548 155.533 69.8439C145.399 65.562 129.678 70.3511 122.536 79.8939C112.47 93.3478 114.781 105.687 117.053 111.839C120.159 120.246 126.804 126.913 133.593 128.43C149.626 132.011 160.496 127.921 168.843 115.171C169.278 114.504 170.167 114.317 170.832 114.759C171.498 115.194 171.684 116.09 171.243 116.75C162.973 129.37 152.012 134.276 136.964 131.996L136.965 131.99ZM145.203 86.525C144.989 86.4927 144.78 86.4739 144.57 86.4613C141.02 86.3285 137.346 88.7433 135.205 92.6187C133.17 96.3043 132.593 100.745 132.17 104.977C132.022 106.46 132.119 109.041 133.414 109.314C134.006 109.429 134.812 109.03 135.523 108.617C142.154 104.779 147.538 98.7453 150.766 91.7673C150.634 90.9433 150.279 90.1112 149.709 89.3367C148.609 87.8257 146.922 86.792 145.196 86.5304L145.203 86.525Z" fill="#3C3C3C"/>
<path d="M201.551 67.5745C201.287 67.5346 201.113 67.2894 201.153 67.0253C202.277 59.9859 203.315 52.8369 204.238 45.7733C204.278 45.5092 204.511 45.3259 204.776 45.3596C204.998 45.419 205.222 45.6331 205.189 45.8981C204.264 52.9743 203.225 60.1295 202.099 67.1816C202.06 67.4393 201.814 67.6208 201.556 67.5818L201.551 67.5745Z" fill="#3C3C3C"/>
<path d="M194.884 56.2223C194.645 56.1861 194.466 55.9724 194.478 55.7234C194.658 52.1169 195.1 48.4792 195.78 44.929C195.831 44.6731 196.069 44.5033 196.326 44.5423L196.345 44.5452C196.607 44.5977 196.774 44.8482 196.729 45.105C196.055 48.6175 195.621 52.2049 195.441 55.7664C195.427 56.028 195.204 56.2321 194.935 56.2236C194.916 56.2207 194.904 56.2188 194.885 56.216L194.884 56.2223Z" fill="#3C3C3C"/>
</g>
</g>
<defs>
<clipPath id="clip0_274_4115">
<rect width="287" height="268" fill="white"/>
</clipPath>
<clipPath id="clip1_274_4115">
<rect width="192.368" height="210.496" fill="white" transform="translate(63.7476 -0.842285) rotate(8.61624)"/>
</clipPath>
</defs>
</svg>
