<svg width="90%" height="40%" viewBox="0 0 290 279" fill="none" xmlns="http://www.w3.org/2000/svg">
<g clip-path="url(#clip0_274_4396)">
<path d="M184.119 248.21C215.984 241.971 244.534 227.451 264.472 202.21C296.221 162.012 302.388 86.6428 259.712 42.784C240.159 22.685 211.055 11.6416 185.073 5.45611C157.138 -1.18985 125.535 -3.29262 100.46 7.95794C60.061 26.0847 41.9759 91.3778 16.0477 118.698C-9.88043 146.019 -6.25879 204.183 40.7687 225.671C65.6357 237.036 91.979 245.317 118.399 249.361C130.633 251.234 142.974 252.193 155.092 251.633C164.965 251.173 174.692 250.052 184.127 248.21H184.119Z" fill="#DFB5FF"/>
<path opacity="0.7" d="M184.119 248.21C215.984 241.971 244.534 227.451 264.472 202.21C296.221 162.012 302.388 86.6428 259.712 42.784C240.159 22.685 211.055 11.6416 185.073 5.45611C157.138 -1.18985 125.535 -3.29262 100.46 7.95794C60.061 26.0847 41.9759 91.3778 16.0477 118.698C-9.88043 146.019 -6.25879 204.183 40.7687 225.671C65.6357 237.036 91.979 245.317 118.399 249.361C130.633 251.234 142.974 252.193 155.092 251.633C164.965 251.173 174.692 250.052 184.127 248.21H184.119Z" fill="white"/>
<g clip-path="url(#clip1_274_4396)">
<path d="M145.73 18.6438L71.0247 38.6611C58.729 41.9558 51.4371 54.6127 54.7378 66.9312L98.459 230.101C101.76 242.419 114.403 249.735 126.699 246.44L201.404 226.423C213.7 223.128 220.992 210.471 217.691 198.153L173.97 34.983C170.669 22.6645 158.026 15.3492 145.73 18.6438Z" fill="#50048A"/>
<path d="M201.39 227.917L127.458 247.727C114.206 251.279 100.524 243.363 96.9666 230.086L53.453 67.6906C49.8955 54.4135 57.786 40.7174 71.0386 37.1664L144.971 17.3564C158.223 13.8053 171.905 21.7212 175.462 34.9983L218.976 197.393C222.534 210.67 214.643 224.366 201.39 227.917ZM71.7841 39.9486C60.0607 43.0899 53.083 55.2014 56.2301 66.9465L99.7437 229.341C102.891 241.087 114.989 248.087 126.713 244.945L200.645 225.135C212.368 221.994 219.346 209.882 216.199 198.137L172.685 35.7424C169.538 23.9973 157.44 16.9973 145.716 20.1386L71.7841 39.9486Z" fill="#3C3C3C"/>
<path d="M173.913 34.7716L54.6812 66.7198L96.666 223.409L215.898 191.461L173.913 34.7716Z" fill="white"/>
<path d="M216.271 192.852L97.0387 224.801C96.2712 225.006 95.4835 224.55 95.2775 223.782L53.2926 67.0919C53.0866 66.323 53.5409 65.5344 54.3084 65.3287L173.541 33.3805C174.308 33.1749 175.096 33.6307 175.302 34.3996L217.285 191.083C217.491 191.852 217.037 192.641 216.269 192.847L216.271 192.852ZM97.6818 221.646L214.137 190.442L172.898 36.5348L56.4424 67.7389L97.6818 221.646Z" fill="#3C3C3C"/>
<path d="M171.62 216.883L150.142 222.638C149.375 222.843 148.587 222.388 148.381 221.619C148.175 220.85 148.629 220.061 149.397 219.856L170.875 214.101C171.642 213.895 172.43 214.351 172.636 215.12C172.842 215.888 172.388 216.677 171.62 216.883Z" fill="#3C3C3C"/>
<path d="M135.387 77.6259L82.6576 91.7546C81.8901 91.9603 81.1024 91.5045 80.8964 90.7356C80.6903 89.9667 81.1447 89.1781 81.9122 88.9724L134.641 74.8437C135.409 74.638 136.197 75.0938 136.403 75.8627C136.609 76.6317 136.154 77.4202 135.387 77.6259Z" fill="#3C3C3C"/>
<path d="M117.732 117.196L91.3676 124.261C90.6001 124.466 89.8124 124.01 89.6063 123.242C89.4003 122.473 89.8546 121.684 90.6221 121.478L116.987 114.414C117.754 114.208 118.542 114.664 118.748 115.433C118.954 116.202 118.5 116.991 117.732 117.196Z" fill="#3C3C3C"/>
<path d="M126.442 149.702L100.078 156.767C99.3101 156.972 98.5223 156.516 98.3163 155.748C98.1103 154.979 98.5646 154.19 99.3321 153.984L125.697 146.92C126.464 146.714 127.252 147.17 127.458 147.939C127.664 148.708 127.21 149.497 126.442 149.702Z" fill="#3C3C3C"/>
<path d="M135.152 182.208L108.787 189.273C108.02 189.478 107.232 189.022 107.026 188.254C106.82 187.485 107.274 186.696 108.042 186.49L134.407 179.426C135.174 179.22 135.962 179.676 136.168 180.445C136.374 181.214 135.92 182.003 135.152 182.208Z" fill="#3C3C3C"/>
<g opacity="0.13">
<path d="M166.003 37.1931C161.906 38.1652 157.791 39.0728 153.732 40.2108C142.752 43.0333 131.805 45.9791 120.896 49.0658C112.293 51.4338 103.777 54.0995 95.0145 55.8245C84.363 58.3263 73.6388 60.533 63.1753 63.7833C61.7009 64.2099 60.2155 64.5953 58.7202 64.9205C57.8049 65.0902 56.8095 65.2185 56.1268 65.9047C52.5096 68.5285 55.4356 74.457 59.7644 73.2468C65.0208 72.241 70.084 70.4439 75.2771 69.1783C81.4268 67.499 87.7037 66.3644 93.89 64.8452C116.894 58.8323 139.896 52.7633 162.756 46.2103C165.821 45.4394 168.851 44.5644 171.887 43.6819C174.487 43.287 176.734 41.4079 175.999 38.5474C174.379 33.722 169.46 36.4556 166.008 37.1857L166.003 37.1931Z" fill="#3C3C3C"/>
</g>
<path d="M180.257 59.7836C151.391 67.5183 134.517 98.1414 142.566 128.182C145.895 140.608 152.976 150.979 162.167 158.33L162.821 186.364L181.49 168.32C190.375 170.846 199.943 171.101 209.405 168.565C238.272 160.831 255.146 130.208 247.097 100.167C239.048 70.1261 209.122 52.0431 180.256 59.7778L180.257 59.7836Z" fill="white"/>
<path d="M163.194 187.755C162.895 187.835 162.577 187.819 162.273 187.693C161.744 187.476 161.394 186.966 161.386 186.396L160.746 159.025C151.189 151.199 144.431 140.673 141.182 128.547C132.94 97.7899 150.304 66.3187 179.891 58.3909C209.477 50.4631 240.25 69.0364 248.491 99.7932C256.733 130.55 239.369 162.021 209.782 169.949C200.684 172.387 191.06 172.374 181.901 169.921L163.819 187.392C163.639 187.566 163.427 187.686 163.192 187.749L163.194 187.755ZM180.63 61.1747C152.578 68.6912 136.124 98.5852 143.954 127.81C147.103 139.561 153.707 149.726 163.058 157.204C163.392 157.467 163.588 157.867 163.595 158.293L164.174 183.044L180.484 167.281C180.853 166.924 181.383 166.795 181.873 166.934C190.776 169.462 200.162 169.551 209.027 167.176C237.079 159.659 253.533 129.765 245.703 100.54C237.872 71.3156 208.675 53.6539 180.623 61.1704L180.63 61.1747Z" fill="#3C3C3C"/>
<path d="M203.166 139.959L174.105 115.799C169.298 111.803 168.521 104.613 172.373 99.7495C176.225 94.886 183.245 94.1815 188.058 98.1763L193.1 102.368L195.37 96.2171C197.535 90.3526 203.971 87.4453 209.74 89.7369C215.508 92.0227 218.43 98.6381 216.265 104.503L203.177 139.955L203.166 139.959Z" fill="#DFB5FF"/>
<path d="M203.538 141.35C203.087 141.47 202.607 141.366 202.25 141.066L173.19 116.906C167.793 112.42 166.922 104.318 171.248 98.8556C173.345 96.2051 176.331 94.5556 179.669 94.215C183.035 93.8665 186.34 94.8809 188.975 97.075L192.456 99.9671L194.025 95.7218C195.21 92.5041 197.571 89.9717 200.655 88.5917C203.717 87.2239 207.128 87.1592 210.268 88.4003C216.747 90.9736 220.042 98.42 217.611 105.004L204.524 140.456C204.365 140.895 204.001 141.226 203.55 141.346L203.538 141.35ZM178.473 97.3473C176.517 97.8716 174.787 99.0083 173.49 100.639C170.126 104.887 170.81 111.19 175.013 114.688L202.515 137.553L214.9 104C216.79 98.8697 214.237 93.0678 209.194 91.0723C206.783 90.114 204.159 90.1629 201.81 91.2139C199.432 92.2787 197.619 94.2303 196.703 96.7155L194.433 102.866C194.274 103.305 193.91 103.635 193.459 103.756C193.008 103.877 192.528 103.773 192.171 103.472L187.13 99.2806C185.093 97.5867 182.541 96.8046 179.956 97.0695C179.449 97.1235 178.952 97.2127 178.472 97.3414L178.473 97.3473Z" fill="#3C3C3C"/>
<g opacity="0.13">
<path d="M211.48 174.596C211.383 174.352 211.318 174.18 211.277 174.072C211.145 173.793 211.02 173.512 210.877 173.235C210.291 172.059 209.985 170.845 209.942 169.655C209.469 169.668 208.951 169.75 208.394 169.925C202.356 171.341 189.759 171.477 183.111 169.798C181.294 169.649 180.057 171.101 178.846 172.23C176.206 174.542 173.87 177.188 171.203 179.469C169.561 180.865 167.902 182.24 166.21 183.568C165.248 184.31 164.068 184.947 163.777 186.227C162.96 188.874 166.134 191.32 168.48 189.836C173.107 186.363 177.403 182.5 181.461 178.381C182.949 176.975 183.108 176.864 183.626 176.454C184.934 176.72 186.259 176.906 187.583 177.067C194.636 178.103 205.149 177.098 209.278 176.432C210.356 176.401 211.205 176.123 211.852 175.704C211.73 175.341 211.6 174.973 211.483 174.608L211.48 174.596Z" fill="#3C3C3C"/>
</g>
</g>
</g>
<defs>
<clipPath id="clip0_274_4396">
<rect width="290" height="279" fill="white"/>
</clipPath>
<clipPath id="clip1_274_4396">
<rect width="180.078" height="217.989" fill="white" transform="translate(47 43.6075) rotate(-15)"/>
</clipPath>
</defs>
</svg>
