<svg width="100%" height="40%" viewBox="0 0 338 265" fill="none" xmlns="http://www.w3.org/2000/svg">
<g clip-path="url(#clip0_275_1997)">
<path d="M112.385 84.7864C156.58 61.6149 202.037 31.3078 253.382 43.7096C269.304 47.5526 283.79 57.1694 293.582 71.1416C319.767 108.513 317.638 165.749 303.414 207.817C301.556 213.307 299.24 218.63 296.255 223.535C281.817 247.271 257.481 248.391 234.013 241.526C214.149 235.719 196.553 229.746 176.039 235.648C164.675 238.917 153.663 243.414 142.339 246.835C126.925 251.494 111.031 254.658 94.9802 254.976C52.5085 255.826 3.99628 232.749 0.23201 182.236C-0.013001 178.962 -0.0530938 175.674 0.0850036 172.391C0.931407 152.228 7.19034 132.031 24.5371 121.56C41.973 111.032 62.6654 106.871 81.3174 99.4085C91.9242 95.1623 102.215 90.119 112.394 84.7816L112.385 84.7864Z" fill="#DFB5FF"/>
<path opacity="0.7" d="M112.385 84.7864C156.58 61.6149 202.037 31.3078 253.382 43.7096C269.304 47.5526 283.79 57.1694 293.582 71.1416C319.767 108.513 317.638 165.749 303.414 207.817C301.556 213.307 299.24 218.63 296.255 223.535C281.817 247.271 257.481 248.391 234.013 241.526C214.149 235.719 196.553 229.746 176.039 235.648C164.675 238.917 153.663 243.414 142.339 246.835C126.925 251.494 111.031 254.658 94.9802 254.976C52.5085 255.826 3.99628 232.749 0.23201 182.236C-0.013001 178.962 -0.0530938 175.674 0.0850036 172.391C0.931407 152.228 7.19034 132.031 24.5371 121.56C41.973 111.032 62.6654 106.871 81.3174 99.4085C91.9242 95.1623 102.215 90.119 112.394 84.7816L112.385 84.7864Z" fill="white"/>
<g clip-path="url(#clip1_275_1997)">
<path d="M108.013 184.516C108.382 193.991 108.75 203.462 109.115 212.937C114.128 215.082 118.97 217.095 123.669 219.388C105.523 221.87 87.0626 224.308 68.6024 226.747C73.3098 223.296 78.2382 220.45 83.1708 217.603C81.6892 208.558 79.749 199.232 78.2339 190.16C80.4487 189.089 82.9779 188.944 85.4305 188.739C92.9393 188.11 100.384 186.768 108.013 184.516Z" fill="white"/>
<path d="M68.713 227.719C68.2748 227.769 67.8593 227.521 67.6956 227.115C67.5309 226.7 67.6644 226.229 68.0257 225.962C72.5887 222.62 77.4121 219.806 82.0992 217.096C81.3556 212.626 80.4967 208.021 79.6629 203.562C78.8494 199.204 78.006 194.697 77.2731 190.322C77.2029 189.896 77.4201 189.472 77.8122 189.284C80.0518 188.201 82.5135 187.999 84.8893 187.807L85.3547 187.767C93.0535 187.125 100.378 185.754 107.742 183.584C108.037 183.499 108.347 183.55 108.589 183.727C108.835 183.902 108.984 184.18 108.997 184.483L110.076 212.286L111.622 212.943C115.957 214.788 120.046 216.534 124.109 218.514C124.496 218.704 124.713 219.122 124.644 219.546C124.575 219.971 124.238 220.3 123.81 220.357C105.805 222.818 87.1817 225.279 69.1759 227.658L68.7387 227.716L68.7216 227.718L68.713 227.719ZM79.3281 190.752C80.0279 194.875 80.8182 199.106 81.5848 203.204C82.462 207.893 83.3707 212.743 84.1406 217.445C84.2079 217.845 84.0183 218.244 83.6631 218.449C79.9472 220.594 76.1336 222.797 72.4491 225.255C88.264 223.165 104.481 221.016 120.285 218.863C117.221 217.45 114.103 216.122 110.846 214.731L108.733 213.827C108.385 213.68 108.156 213.346 108.139 212.966L107.084 185.793C99.9928 187.802 92.9233 189.079 85.5138 189.701L85.0484 189.741C83.0956 189.902 81.0907 190.065 79.3314 190.743L79.3281 190.752Z" fill="#3C3C3C"/>
<path d="M160.109 73.0277C163.374 120.353 166.154 150.821 169.712 182.095C120.84 186.84 63.9511 194.128 15.4848 199.642C13.4294 171.673 9.18422 130.614 2.79602 89.0398C55.5431 84.166 109.437 77.8562 160.108 73.0234L160.109 73.0277Z" fill="white"/>
<path d="M169.822 183.067L169.805 183.069C136.919 186.264 100.48 190.596 65.245 194.792C47.8568 196.861 31.4343 198.812 15.5953 200.614C15.329 200.645 15.0633 200.566 14.861 200.394C14.6548 200.227 14.5311 199.981 14.5095 199.714C12.0392 166.109 7.29881 124.79 1.82949 89.1888C1.79069 88.9242 1.85978 88.6518 2.02687 88.4376C2.19396 88.2234 2.44578 88.1036 2.70686 88.0653C30.9862 85.4549 59.9062 82.3943 87.8721 79.4379C111.787 76.9077 136.515 74.2937 160.02 72.0532C160.282 72.0276 160.544 72.1106 160.746 72.2785C160.948 72.4507 161.072 72.6926 161.088 72.9553C164.198 118.034 166.889 148.604 170.686 181.979C170.716 182.24 170.641 182.501 170.473 182.702C170.313 182.902 170.079 183.029 169.821 183.058L169.822 183.067ZM3.92285 89.9179C9.27777 124.973 13.9178 165.41 16.3879 198.555C31.9133 196.788 48.0046 194.871 65.0152 192.849C99.9075 188.696 135.976 184.406 168.624 181.221C164.912 148.438 162.253 118.221 159.199 74.0942C136.005 76.3124 111.647 78.8886 88.0761 81.384C60.4458 84.3066 31.8867 87.3261 3.92285 89.9179Z" fill="#3C3C3C"/>
<path d="M140.195 170.501C117.905 172.933 95.5945 175.229 73.2878 177.515C54.4097 179.455 33.0849 181.92 14.2014 183.774C14.9352 190.223 15.4642 195.025 15.4848 199.642C63.9468 194.128 120.834 186.788 169.712 182.095C169.533 178.076 168.693 172.451 168.13 167.505C159.929 168.434 148.395 169.603 140.194 170.497L140.195 170.501Z" fill="#50048A"/>
<path d="M169.822 183.067L169.805 183.069C136.914 186.225 100.482 190.574 65.2479 194.778C47.8602 196.852 31.4386 198.812 15.5996 200.614C15.3247 200.645 15.0452 200.56 14.8371 200.375C14.629 200.191 14.5076 199.927 14.5065 199.65C14.4811 195.219 14.0063 190.741 13.2267 183.889C13.197 183.628 13.2718 183.368 13.4404 183.166C13.6042 182.961 13.834 182.84 14.109 182.808C24.8935 181.75 36.6109 180.478 47.9455 179.245C56.379 178.328 65.0959 177.38 73.191 176.55C93.82 174.433 117.202 172.033 140.089 169.533C143.429 169.17 147.324 168.757 151.319 168.337C157.141 167.723 163.161 167.09 168.02 166.541C168.557 166.48 169.041 166.863 169.102 167.403C169.267 168.854 169.457 170.368 169.646 171.882C170.094 175.471 170.56 179.187 170.687 182.057C170.71 182.571 170.33 183.013 169.819 183.071L169.822 183.067ZM15.2886 184.648C15.9527 190.484 16.3675 194.588 16.4524 198.548C31.9563 196.784 48.0256 194.864 65.0181 192.835C99.9304 188.668 136.019 184.362 168.684 181.209C168.513 178.557 168.102 175.285 167.706 172.116C167.558 170.927 167.41 169.742 167.274 168.582C162.59 169.107 156.974 169.698 151.527 170.274C147.532 170.694 143.641 171.107 140.301 171.469C117.404 173.966 94.0225 176.366 73.3898 178.488C65.299 179.318 56.5863 180.265 48.1529 181.182C37.1619 182.376 25.8058 183.612 15.2886 184.648Z" fill="#3C3C3C"/>
<g opacity="0.13">
<path d="M107.407 193.113C107.352 193.163 107.307 193.225 107.247 193.271C107.62 192.916 107.596 192.932 107.407 193.113Z" fill="#3C3C3C"/>
</g>
<g opacity="0.13">
<path d="M106.462 188.779C104.583 188.52 102.683 189.075 100.806 189.21C98.3013 189.495 95.786 189.456 93.2732 189.438C90.3836 189.398 87.528 189.81 84.6567 190.046C84.3927 190.058 83.7792 190.059 83.4397 190.058C83.4225 190.06 83.4049 190.058 83.3872 190.056C83.2248 190.044 83.0639 190.045 82.8982 190.042C82.8854 190.043 82.8811 190.044 82.8634 190.041C82.0347 189.91 81.0955 190.299 80.7077 191.059C80.386 191.521 80.3195 192.122 80.4564 192.675C80.2695 192.792 80.0941 192.933 79.9471 193.132C78.7033 194.592 80.0409 197.017 81.9496 196.734C86.8286 196.513 91.7044 196.149 96.5656 195.696C100.829 195.38 102.865 195.066 106.115 193.954C106.482 193.774 106.856 193.584 107.185 193.338C107.275 193.25 107.354 193.176 107.412 193.117C107.708 192.849 107.969 192.542 108.15 192.179C108.897 190.797 108.011 189.045 106.466 188.783L106.462 188.779Z" fill="#3C3C3C"/>
</g>
<path d="M56.4841 155.999C55.9472 156.06 55.4598 155.678 55.3984 155.138C55.337 154.599 55.7217 154.117 56.2629 154.055C64.6958 153.096 83.4544 150.679 83.6434 150.658L83.6563 150.656C84.189 150.596 84.6711 150.97 84.7401 151.5C84.8096 152.035 84.4302 152.525 83.8942 152.594C83.7052 152.616 64.9337 155.033 56.488 155.994L56.4841 155.999Z" fill="#3C3C3C"/>
<path d="M69.9359 133.101L55.5217 134.728C54.9847 134.789 54.5011 134.402 54.4402 133.867C54.3793 133.331 54.764 132.85 55.3052 132.788L69.7066 131.162L69.83 132.133L69.9406 133.105L69.9359 133.101Z" fill="#3C3C3C"/>
<path d="M65.4563 112.777C65.4262 112.781 65.3961 112.784 65.366 112.788C63.5953 112.828 60.7649 113.194 57.7722 113.586C56.3355 113.772 54.8821 113.963 53.5289 114.117C52.9919 114.178 52.5045 113.795 52.4431 113.256C52.3817 112.716 52.7664 112.234 53.3077 112.173C54.6523 112.02 56.0933 111.834 57.5209 111.646C60.5699 111.251 63.4514 110.876 65.3262 110.831C65.8643 110.818 66.3136 111.248 66.3268 111.785C66.337 112.295 65.9546 112.721 65.4606 112.777L65.4563 112.777Z" fill="#3C3C3C"/>
<path d="M153.155 87.3264C158.155 81.7432 163.421 76.3986 168.931 71.3169C163.729 71.2234 158.691 71.4279 153.658 71.7099C154.361 66.5636 154.742 61.5015 155.124 56.4438C149.769 61.0523 145.245 65.5794 139.462 71.6205C139.112 76.2365 138.509 81.1459 139.291 86.1408C143.431 87.0404 148.719 86.66 153.151 87.3312L153.155 87.3264Z" fill="white"/>
<path d="M153.265 88.2943C153.179 88.304 153.091 88.301 153.007 88.2888C151.064 87.9938 148.891 87.907 146.788 87.821C144.16 87.7122 141.441 87.6008 139.085 87.0881C138.688 87.0031 138.387 86.6861 138.328 86.285C137.641 81.8911 137.993 77.6392 138.33 73.5277C138.385 72.8622 138.44 72.2009 138.487 71.5449C138.505 71.3216 138.598 71.1071 138.754 70.942C144.63 64.8035 149.088 60.3447 154.482 55.7013C154.783 55.4415 155.209 55.3931 155.564 55.5696C155.919 55.746 156.127 56.1214 156.098 56.5151C155.752 61.1264 155.393 65.8866 154.78 70.6714C158.988 70.4442 163.861 70.2497 168.946 70.3436C169.347 70.35 169.702 70.6002 169.844 70.9701C169.987 71.3443 169.887 71.7634 169.595 72.0351C164.13 77.0814 158.844 82.4456 153.886 87.9806C153.724 88.1596 153.502 88.2759 153.266 88.3028L153.265 88.2943ZM140.163 85.3129C142.214 85.678 144.576 85.7781 146.871 85.8683C148.842 85.9476 150.875 86.0329 152.775 86.2852C157.129 81.4479 161.728 76.743 166.476 72.2686C161.863 72.2643 157.483 72.472 153.712 72.6841C153.418 72.7002 153.135 72.5849 152.937 72.3732C152.738 72.1573 152.645 71.8686 152.686 71.5777C153.275 67.2727 153.642 62.9627 153.964 58.7533C149.466 62.7439 145.463 66.7692 140.411 72.0418C140.368 72.5888 140.322 73.1363 140.276 73.6923C139.967 77.4753 139.645 81.3768 140.163 85.3172L140.163 85.3129Z" fill="#3C3C3C"/>
<path d="M114.494 83.9435C106.195 83.0573 97.5637 85.2582 90.7538 90.002C83.9481 94.7453 79.0274 101.981 77.235 109.901C76.0448 115.16 76.1924 120.626 77.01 125.937C78.1474 133.295 82.9626 140.277 89.2788 144.274C97.081 149.207 104.292 151.314 112.498 150.923C123.621 150.395 134.167 143.682 139.453 134.153C144.739 124.621 144.733 112.636 139.787 103.01C134.84 93.3792 125.388 85.1114 114.494 83.9478L114.494 83.9435Z" fill="white"/>
<path d="M114.596 151.73C113.913 151.807 113.231 151.863 112.543 151.894C104.155 152.293 96.8193 150.195 88.7541 145.092C82.0678 140.865 77.1965 133.581 76.043 126.082C75.0956 119.935 75.1726 114.569 76.2791 109.685C78.1245 101.541 83.197 94.0717 90.1924 89.1984C97.1835 84.3255 106.077 82.06 114.596 82.9689C124.878 84.0677 135.108 91.7568 140.658 102.555C145.828 112.62 145.694 124.907 140.307 134.616C135.122 143.968 125.185 150.521 114.595 151.725L114.596 151.73ZM106.997 84.9483C101.383 85.5871 95.9157 87.6015 91.319 90.8009C84.7188 95.3994 79.9322 102.437 78.1904 110.114C77.1391 114.758 77.0697 119.884 77.9803 125.784C79.0547 132.741 83.5844 139.508 89.8064 143.441C97.5106 148.317 104.496 150.32 112.456 149.939C123.15 149.425 133.403 143.044 138.598 133.674C143.675 124.521 143.793 112.939 138.919 103.447C133.664 93.2181 124.038 85.9417 114.391 84.9138C111.937 84.6508 109.455 84.6687 106.997 84.9483Z" fill="#3C3C3C"/>
<path d="M112.821 99.0294C108.352 98.5706 103.703 99.7458 100.033 102.254C96.3627 104.763 93.7039 108.587 92.7256 112.763C92.075 115.535 92.1508 118.42 92.5822 121.216C93.1845 125.095 95.7697 128.77 99.1634 130.869C103.357 133.459 107.238 134.561 111.656 134.345C117.645 134.054 123.333 130.5 126.19 125.469C129.046 120.438 129.062 114.116 126.41 109.047C123.757 103.975 118.681 99.6293 112.816 99.0299L112.821 99.0294Z" fill="#DFB5FF"/>
<path d="M112.841 135.234C112.463 135.277 112.087 135.306 111.707 135.328C107.094 135.554 103.068 134.437 98.6497 131.708C94.9428 129.419 92.2515 125.461 91.6171 121.378C91.1069 118.079 91.1571 115.193 91.7708 112.555C92.8011 108.148 95.6088 104.102 99.4767 101.459C103.332 98.8207 108.231 97.5867 112.92 98.0682C118.688 98.6569 124.195 102.698 127.282 108.606C130.125 114.047 130.033 120.694 127.046 125.961C124.171 131.021 118.684 134.577 112.842 135.242L112.841 135.234ZM108.835 100.029C105.884 100.365 103.009 101.408 100.586 103.063C97.1177 105.431 94.6007 109.049 93.6825 112.988C93.1231 115.377 93.0805 118.023 93.5577 121.07C94.1082 124.608 96.4575 128.045 99.6872 130.042C103.75 132.551 107.426 133.577 111.615 133.373C117.215 133.105 122.606 129.811 125.344 124.993C128.012 120.299 128.089 114.361 125.548 109.501C122.801 104.249 117.768 100.518 112.723 100.004C111.433 99.8727 110.128 99.8823 108.835 100.029Z" fill="#3C3C3C"/>
<path d="M110.747 117.063C110.476 117.094 110.197 117.013 109.984 116.82C109.582 116.462 109.546 115.842 109.91 115.44C126.494 96.9705 144.134 79.0311 162.338 62.1338C162.735 61.7676 163.351 61.7886 163.723 62.1844C164.09 62.5808 164.068 63.1948 163.671 63.5654C145.511 80.423 127.913 98.3142 111.368 116.745C111.202 116.933 110.979 117.036 110.751 117.062L110.747 117.063Z" fill="#3C3C3C"/>
<g opacity="0.13">
<path d="M155.866 72.5691C154.895 71.413 153.667 71.9431 152.803 72.9133C151.984 73.6745 151.18 74.447 150.342 75.1844C146.778 78.5134 143.106 81.4644 140.48 84.3181C139.576 85.7049 141.389 87.3377 142.707 86.3333C145.895 83.2248 149.312 80.3593 152.634 77.396C153.519 76.649 154.365 75.8544 155.25 75.1117C156.108 74.5803 156.529 73.4177 155.862 72.5696L155.866 72.5691Z" fill="#3C3C3C"/>
</g>
<g opacity="0.13">
<path d="M125.208 113.166C125.207 112.854 125.223 112.843 125.208 113.166V113.166Z" fill="#3C3C3C"/>
</g>
<g opacity="0.13">
<path d="M107.456 129.904C107.517 129.905 107.579 129.907 107.644 129.908C107.621 129.902 107.543 129.902 107.456 129.904Z" fill="#3C3C3C"/>
</g>
<g opacity="0.13">
<path d="M128.842 112.562C128.685 111.721 128.707 110.69 128.073 110.047C127.486 109.363 126.279 109.353 125.672 110.016C124.761 110.844 125.321 112.208 125.207 113.279C125.207 113.236 125.207 113.201 125.207 113.162C125.207 113.201 125.203 113.241 125.2 113.289C125.127 114.412 125.003 115.536 124.736 116.629C124.202 118.785 122.56 122.134 120.723 124.234C118.526 126.454 116.681 127.64 113.421 129.012C111.429 129.829 109.246 129.995 107.368 129.896C107.398 129.893 107.425 129.894 107.455 129.895C103.532 129.795 101.807 129.128 99.3907 127.36C97.7091 126.081 95.7533 128.511 97.3835 129.874C100.941 132.762 105.608 133.779 110.12 133.691C110.992 133.631 111.834 133.496 112.648 133.308C112.653 133.472 112.677 133.643 112.731 133.845C113.636 135.338 114.474 134.67 115.484 134.408C116.847 133.958 116.362 134.13 117.958 133.584C120.683 132.754 122.691 130.634 124.445 128.496C126.724 125.807 128.163 122.538 128.828 119.096C129.254 116.944 129.106 114.727 128.838 112.562L128.842 112.562Z" fill="#3C3C3C"/>
</g>
<g opacity="0.13">
<path d="M111.331 151.598C111.331 151.598 111.305 151.601 111.291 151.598C111.353 151.604 111.389 151.609 111.331 151.598Z" fill="#3C3C3C"/>
</g>
<g opacity="0.13">
<path d="M142.547 112.273C142.372 111.343 142.162 110.417 141.859 109.519C141.725 108.949 141.431 108.392 140.861 108.162C139.6 107.564 138.153 108.952 138.712 110.233C139.348 112.117 139.61 114.724 139.426 116.624C139.188 119.31 138.453 121.922 137.806 124.533C137.669 125.048 137.523 125.559 137.376 126.07C137.115 126.642 137.32 126.532 136.991 127.315C136.425 129.028 135.764 130.713 134.923 132.309C133.166 135.806 129.378 140.331 127.056 142.339C124.932 144.32 125.23 143.536 123.236 145.021C123.445 144.867 123.654 144.713 123.862 144.555C123.532 144.714 123.202 144.877 122.868 145.037C120.074 146.491 117.198 147.794 114.163 148.656C114.049 148.682 113.948 148.711 113.889 148.73C113.783 148.755 113.677 148.78 113.571 148.801C112.628 148.965 111.673 149.065 110.713 149.118C110.32 149.145 109.924 149.147 109.525 149.153C109.25 149.145 108.97 149.208 108.75 149.38C107.918 149.952 108.287 151.398 109.31 151.472C109.896 151.536 110.488 151.577 111.077 151.592C111.069 151.593 111.06 151.594 111.056 151.595C111.081 151.592 111.103 151.593 111.13 151.595C111.182 151.597 111.235 151.6 111.292 151.602C111.27 151.605 111.243 151.599 111.217 151.598C113.629 151.683 115.964 151.053 118.21 150.225C120.504 149.504 122.642 148.407 124.84 147.45C125.188 147.302 124.732 147.458 124.599 147.477C125.514 147.26 126.395 146.813 127.228 146.375C131.916 143.439 135.758 139.189 138.49 134.406C139.464 132.794 140.138 131.03 140.714 129.243C140.949 128.331 141.43 127.426 141.387 126.477C141.381 126.66 141.381 126.846 141.376 127.029C142.054 124.236 142.773 121.413 142.903 118.536C142.9 118.701 142.897 118.87 142.894 119.035C143.06 116.778 143.085 114.481 142.547 112.273Z" fill="#3C3C3C"/>
</g>
<path d="M34.8934 119.564L34.8762 119.566C34.5101 119.599 34.1554 119.427 33.9547 119.116C32.3312 116.55 30.4312 114.155 28.3093 111.989C27.9303 111.603 27.9384 110.986 28.3262 110.608C28.714 110.23 29.3327 110.238 29.7118 110.624C31.4887 112.434 33.1179 114.401 34.5655 116.491L38.7975 105.803C38.9974 105.304 39.5655 105.057 40.0668 105.256C40.5681 105.454 40.8152 106.021 40.6197 106.52L35.6984 118.952C35.5669 119.288 35.2585 119.523 34.8977 119.564L34.8934 119.564Z" fill="#3C3C3C"/>
<path d="M37.3947 141.549L37.3776 141.551C37.0114 141.584 36.6568 141.412 36.456 141.101C34.8326 138.535 32.9326 136.14 30.8106 133.974C30.4316 133.588 30.4398 132.971 30.8275 132.593C31.2153 132.215 31.8341 132.223 32.2131 132.609C33.99 134.419 35.6192 136.385 37.0669 138.476L41.2989 127.788C41.4983 127.284 42.0668 127.042 42.5676 127.236C43.0689 127.435 43.3161 128.001 43.1205 128.501L38.1993 140.933C38.0678 141.269 37.7594 141.503 37.3985 141.544L37.3947 141.549Z" fill="#3C3C3C"/>
<path d="M39.8966 163.538L39.8795 163.54C39.5133 163.573 39.1587 163.401 38.9579 163.09C37.3345 160.525 35.4345 158.13 33.3125 155.964C32.9335 155.577 32.9417 154.96 33.3294 154.582C33.7172 154.204 34.336 154.212 34.715 154.598C36.4919 156.409 38.1212 158.375 39.5688 160.466L43.8008 149.778C44.0002 149.273 44.5687 149.031 45.07 149.23C45.5713 149.429 45.8185 149.995 45.6229 150.494L40.7017 162.926C40.5702 163.262 40.2618 163.497 39.9009 163.538L39.8966 163.538Z" fill="#3C3C3C"/>
<path d="M143.953 78.7784C143.953 78.7784 143.928 78.7814 143.919 78.7823C143.74 78.781 143.594 78.6372 143.591 78.4597L143.554 70.0704C143.555 69.8881 143.705 69.7496 143.878 69.7429C144.057 69.7443 144.204 69.8881 144.207 70.0656L144.243 78.4549C144.245 78.6238 144.117 78.7599 143.953 78.7784Z" fill="#3C3C3C"/>
<path d="M149.272 73.4713C149.092 73.4918 148.933 73.3624 148.913 73.1868C148.604 70.5109 148.486 67.7916 148.564 65.1064C148.57 64.9279 148.724 64.7889 148.902 64.7903C149.081 64.796 149.224 64.9445 149.219 65.1273C149.142 67.782 149.257 70.4713 149.562 73.113C149.582 73.2928 149.453 73.455 149.277 73.4751L149.272 73.4713Z" fill="#3C3C3C"/>
<path d="M163.599 163.093C163.599 163.093 163.581 163.095 163.573 163.096C158.701 163.268 153.776 163.655 148.944 164.253C148.768 164.273 148.606 164.148 148.585 163.968C148.565 163.788 148.69 163.627 148.871 163.606C153.724 163.01 158.667 162.622 163.556 162.447C163.737 162.439 163.889 162.583 163.891 162.76C163.898 162.933 163.771 163.077 163.603 163.097L163.599 163.093Z" fill="#3C3C3C"/>
<path d="M159.692 158.358C158.085 158.541 156.471 158.616 154.856 158.579C154.677 158.573 154.534 158.424 154.536 158.246C154.541 158.068 154.689 157.916 154.869 157.926C157.53 157.984 160.2 157.741 162.81 157.196C162.985 157.168 163.158 157.274 163.196 157.447C163.233 157.621 163.118 157.795 162.943 157.832C161.868 158.054 160.782 158.23 159.691 158.354L159.692 158.358Z" fill="#3C3C3C"/>
<path d="M9.75724 95.7606C9.5897 95.7797 9.43332 95.6673 9.40094 95.4975C9.36759 95.3191 9.48323 95.1498 9.66219 95.1164C13.1184 94.476 16.6374 93.9671 20.1253 93.605C20.3057 93.5844 20.4646 93.7182 20.4845 93.8938C20.5045 94.0693 20.375 94.2315 20.1946 94.2521C16.7325 94.6113 13.222 95.1191 9.78253 95.7534C9.77394 95.7544 9.76535 95.7554 9.76105 95.7558L9.75724 95.7606Z" fill="#3C3C3C"/>
</g>
<g clip-path="url(#clip2_275_1997)">
<path d="M300.85 228.916C305.581 228.24 310.298 223.456 310.621 219.375C311.196 212.094 312.496 200.374 307.456 196.452C304.739 194.335 301.02 192.394 297.346 192.236C282.134 191.57 271.685 191.415 255.693 192.236C242.204 192.929 242.824 205.979 242.824 211.36C242.824 223.487 245.344 228.078 257.669 229.409C273.705 231.143 283.243 229.709 284.592 230.147C285.815 230.546 292.168 238.426 296.341 242.125C297.318 242.99 298.618 244.025 299.953 243.652C302.996 242.801 300.41 234.431 300.843 228.919L300.85 228.916Z" fill="white"/>
<path d="M299.391 244.507C297.859 244.507 296.518 243.321 295.825 242.704C293.738 240.86 291.167 238.034 288.893 235.541C287.101 233.576 284.873 231.129 284.328 230.877C284.041 230.795 282.561 230.85 280.991 230.908C276.679 231.07 268.652 231.381 257.586 230.181C244.287 228.744 242.041 223.211 242.041 211.353V210.671C242.013 205.128 241.958 192.15 255.655 191.446C271.903 190.612 282.453 190.791 297.381 191.446C300.701 191.591 304.548 193.191 307.938 195.828C313.009 199.775 312.142 210.357 311.508 218.082L311.397 219.43C311.054 223.794 306.385 228.547 301.592 229.571C301.523 231.353 301.727 233.408 301.925 235.4C302.365 239.84 302.746 243.673 300.164 244.393C299.901 244.466 299.641 244.5 299.384 244.5L299.391 244.507ZM283.493 229.278C284.155 229.278 284.557 229.312 284.838 229.406C285.586 229.65 286.862 230.995 290.054 234.497C292.3 236.962 294.844 239.754 296.864 241.543C297.828 242.394 298.844 243.152 299.741 242.901C301.058 242.532 300.691 238.83 300.365 235.562C300.136 233.273 299.901 230.905 300.064 228.857C300.091 228.492 300.372 228.199 300.736 228.147C305.023 227.534 309.532 223.159 309.834 219.316L309.945 217.965C310.513 211.009 311.376 200.498 306.971 197.069C303.831 194.625 300.313 193.149 297.312 193.018C282.433 192.367 271.917 192.188 255.735 193.018C243.535 193.646 243.583 204.725 243.611 210.674V211.364C243.611 222.984 245.749 227.337 257.755 228.637C268.704 229.823 276.658 229.519 280.932 229.357C282.069 229.312 282.89 229.285 283.493 229.285V229.278Z" fill="#3C3C3C"/>
<path d="M295.748 207.317C295.748 207.317 295.741 207.317 295.735 207.317C293.094 207.186 287.337 207.224 282.713 207.255C280.963 207.265 279.372 207.279 278.169 207.279C278.024 207.279 277.906 207.162 277.906 207.017C277.906 206.872 278.024 206.755 278.169 206.755C279.372 206.755 280.959 206.745 282.71 206.734C287.34 206.703 293.104 206.665 295.762 206.796C295.908 206.803 296.019 206.924 296.012 207.069C296.005 207.206 295.891 207.317 295.752 207.317H295.748Z" fill="#3C3C3C"/>
<path d="M269.709 207.272C269.709 207.272 269.699 207.272 269.692 207.272C267.692 207.141 263.322 207.179 259.814 207.21C258.483 207.22 257.277 207.234 256.365 207.234C256.22 207.234 256.102 207.117 256.102 206.972C256.102 206.827 256.22 206.71 256.365 206.71C257.277 206.71 258.483 206.7 259.811 206.689C263.328 206.658 267.709 206.62 269.73 206.751C269.876 206.762 269.983 206.886 269.973 207.027C269.962 207.165 269.848 207.268 269.713 207.268L269.709 207.272Z" fill="#3C3C3C"/>
<path d="M295.748 215.373C289.454 215.373 281.303 215.3 273.418 215.231C266.742 215.173 260.434 215.117 256.31 215.117C256.164 215.117 256.047 215 256.047 214.855C256.047 214.711 256.164 214.594 256.31 214.594C260.438 214.594 266.742 214.649 273.421 214.707C281.303 214.776 289.454 214.849 295.748 214.849C295.894 214.849 296.008 214.966 296.008 215.111C296.008 215.255 295.891 215.373 295.748 215.373Z" fill="#3C3C3C"/>
<path d="M281.628 149.358C281.497 149.358 281.362 149.323 281.237 149.254C280.862 149.037 280.734 148.561 280.949 148.189C284.703 141.722 287.604 134.787 289.576 127.579C289.69 127.162 290.123 126.917 290.539 127.031C290.959 127.145 291.205 127.572 291.09 127.989C289.084 135.328 286.127 142.388 282.308 148.972C282.162 149.223 281.899 149.361 281.628 149.361V149.358Z" fill="#3C3C3C"/>
<path d="M287.222 155.993C286.924 155.993 286.637 155.821 286.505 155.535C286.328 155.145 286.498 154.69 286.883 154.508C289.839 153.112 293.27 151.481 296.137 150.071C298.31 148.913 300.441 147.689 302.528 146.404C302.812 146.228 303.183 146.252 303.443 146.466C303.703 146.679 303.796 147.034 303.675 147.348C303.457 147.91 303.311 148.286 296.819 151.478C293.783 153.094 290.678 154.583 287.531 155.928C287.43 155.973 287.323 155.99 287.222 155.99V155.993Z" fill="#3C3C3C"/>
<path d="M305.619 171.109C305.491 171.109 305.363 171.078 305.242 171.012C300.254 168.285 294.896 166.307 289.323 165.131C288.9 165.042 288.626 164.628 288.716 164.204C288.806 163.78 289.226 163.515 289.648 163.601C295.374 164.807 300.875 166.838 305.997 169.64C306.378 169.847 306.517 170.323 306.306 170.702C306.163 170.96 305.893 171.105 305.616 171.105L305.619 171.109Z" fill="#3C3C3C"/>
<path d="M202.932 216.386C210.636 224.214 217.752 232.615 224.198 241.498C227.609 246.2 231.2 251.325 236.703 253.245C237.896 253.663 239.188 253.911 240.422 253.652C242.263 253.266 243.732 251.767 244.446 250.036C245.157 248.306 245.202 246.369 244.983 244.511C244.814 243.077 244.481 241.636 243.736 240.402C243.043 239.254 242.024 238.337 241.008 237.454C233.952 231.312 226.198 225.779 220.539 218.172C221.609 217.379 222.691 216.579 223.55 215.566C224.41 214.552 225.041 213.287 225.044 211.96C225.051 209.94 223.668 208.213 222.469 206.527C236.648 200.922 251.52 197.051 266.559 194.68C263.01 188.385 260.091 181.764 257.176 175.156C253.222 166.19 249.267 157.22 245.046 148.744C235.854 158.63 224.528 166.262 213.309 173.801C205.601 178.982 197.872 184.173 189.592 188.385C185.176 190.633 180.216 192.994 178.362 197.572C177.191 200.461 177.527 203.787 178.636 206.7C179.745 209.612 181.571 212.194 183.412 214.718C184.923 216.789 186.743 219.016 189.422 219.568C194.177 219.54 198.925 218.351 202.935 216.389L202.932 216.386Z" fill="white"/>
<path d="M262.75 155.542C265.353 163.032 268.631 170.292 272.541 177.2C274.797 176.734 276.527 174.801 277.334 172.653C278.145 170.505 278.183 168.158 278.145 165.866C278.128 164.921 278.1 163.959 277.795 163.067C277.525 162.27 277.046 161.564 276.558 160.878C275.359 159.196 274.035 157.544 272.298 156.421C269.491 154.601 265.703 154.39 262.75 155.542Z" fill="white"/>
<path d="M266.195 195.431C259.173 179.544 252.154 163.656 245.115 147.514C248.553 144.077 251.219 139.827 252.851 135.194C252.851 135.194 281.122 196.331 281.136 196.069C276.322 194.604 271.179 194.287 266.195 195.431Z" fill="#50048A"/>
<path d="M213.901 210.705C213.614 210.705 213.336 210.547 213.201 210.278C208.481 201.009 204.308 191.333 200.79 181.512C200.669 181.178 200.79 180.805 201.088 180.605C204.173 178.506 207.389 176.39 210.501 174.345C228.444 162.539 247.001 150.33 252.019 134.16C252.116 133.849 252.394 133.632 252.716 133.611C253.052 133.591 253.347 133.77 253.482 134.063L282.159 195.921C282.339 196.314 282.169 196.776 281.774 196.958C281.621 197.027 281.455 197.044 281.303 197.017C281.102 197.155 280.842 197.2 280.596 197.113C262.212 190.712 214.688 210.447 214.21 210.647C214.109 210.688 214.009 210.709 213.905 210.709L213.901 210.705ZM202.474 181.557C205.843 190.891 209.812 200.092 214.276 208.926C220.32 206.448 261.689 189.974 280.155 195.331L252.875 136.486C246.921 152.253 228.857 164.139 211.368 175.648C208.429 177.582 205.399 179.575 202.478 181.557H202.474Z" fill="#3C3C3C"/>
<path d="M265.865 194.942C265.564 194.942 265.28 194.769 265.148 194.48L244.866 149.185C244.689 148.792 244.866 148.33 245.264 148.155C245.659 147.979 246.124 148.155 246.301 148.551L266.583 193.846C266.76 194.239 266.583 194.7 266.184 194.876C266.08 194.921 265.973 194.945 265.865 194.945V194.942Z" fill="#3C3C3C"/>
<path d="M273.265 178.203C273.019 178.203 272.776 178.089 272.624 177.872C272.374 177.52 272.461 177.031 272.815 176.783C275.275 175.062 277.039 172.229 277.532 169.206C278.024 166.183 277.247 162.922 275.459 160.488C274.589 159.303 273.477 158.272 272.156 157.42C269.907 155.973 266.52 154.98 263.755 156.524C263.377 156.734 262.899 156.6 262.684 156.228C262.472 155.852 262.604 155.376 262.982 155.163C266.358 153.277 270.371 154.415 273.005 156.111C274.489 157.065 275.74 158.227 276.724 159.568C278.755 162.332 279.635 166.031 279.077 169.458C278.519 172.887 276.516 176.104 273.716 178.061C273.577 178.158 273.421 178.203 273.265 178.203Z" fill="#3C3C3C"/>
<path d="M191.602 220.543C190.448 220.543 189.304 220.347 188.188 219.885C185.124 218.616 183.218 215.738 181.377 212.646C179.891 210.147 178.203 207.313 177.423 204.132C176.542 200.55 177.049 197.082 178.806 194.625C180.112 192.801 181.963 191.639 184.074 190.416C189.599 187.21 195.099 184.059 201.608 180.767C201.993 180.571 202.467 180.723 202.665 181.109C202.862 181.495 202.707 181.964 202.322 182.16C195.848 185.435 190.371 188.575 184.864 191.767C182.913 192.898 181.208 193.959 180.085 195.531C178.591 197.62 178.175 200.623 178.948 203.763C179.672 206.717 181.294 209.444 182.729 211.85C184.431 214.704 186.174 217.358 188.791 218.44C192.35 219.912 196.381 218.141 200.208 216.2C202.613 214.98 204.803 213.821 206.925 212.701C209.056 211.577 211.257 210.412 213.68 209.182C214.064 208.985 214.539 209.137 214.737 209.523C214.934 209.906 214.782 210.378 214.394 210.574C211.981 211.798 209.784 212.96 207.659 214.08C205.535 215.204 203.337 216.362 200.918 217.589C198.007 219.064 194.766 220.536 191.598 220.536L191.602 220.543Z" fill="#3C3C3C"/>
<path d="M238.745 255C234.86 255 231.411 252.042 229.938 250.571C227.065 247.703 224.746 244.287 222.507 240.981C221.998 240.229 221.488 239.478 220.972 238.733C215.51 230.843 209.215 223.525 202.266 216.989C201.951 216.693 201.937 216.2 202.235 215.886C202.533 215.572 203.029 215.559 203.344 215.855C210.373 222.47 216.736 229.867 222.265 237.851C222.784 238.599 223.297 239.357 223.81 240.112C226.011 243.356 228.285 246.71 231.054 249.474C232.628 251.046 236.717 254.542 240.713 253.101C244.308 251.805 245.68 246.855 244.505 243.29C243.452 240.095 241.168 238.451 238.01 236.172C237.414 235.741 236.79 235.293 236.145 234.811L235.958 234.669C231.137 231.098 226.087 226.31 220.944 220.443C219.613 218.923 218.306 216.507 216.92 213.949C216.165 212.549 215.381 211.105 214.605 209.837C214.38 209.468 214.497 208.989 214.868 208.764C215.236 208.54 215.721 208.658 215.946 209.026C216.743 210.329 217.537 211.794 218.303 213.211C219.644 215.693 220.913 218.034 222.126 219.419C227.197 225.204 232.163 229.916 236.894 233.418L237.088 233.563C237.726 234.038 238.343 234.483 238.932 234.907C242.2 237.265 244.782 239.126 245.996 242.801C247.399 247.051 245.794 252.928 241.247 254.566C240.405 254.869 239.566 255 238.748 255H238.745Z" fill="#3C3C3C"/>
<path d="M221.076 218.919C220.882 218.919 220.688 218.847 220.535 218.706C220.22 218.409 220.209 217.913 220.507 217.603L223.082 214.911C223.426 214.552 223.748 214.214 223.966 213.832C224.451 212.984 224.451 211.781 223.97 210.619C223.498 209.481 222.663 208.492 221.852 207.534C221.571 207.203 221.616 206.71 221.949 206.434C222.282 206.155 222.777 206.2 223.055 206.531C223.9 207.53 224.857 208.661 225.422 210.026C226.087 211.629 226.053 213.342 225.332 214.607C225.02 215.155 224.594 215.6 224.219 215.989L221.644 218.682C221.488 218.844 221.284 218.923 221.076 218.923V218.919Z" fill="#3C3C3C"/>
<path d="M184.906 199.981C184.632 199.981 184.368 199.84 184.223 199.588C184.008 199.213 184.14 198.737 184.514 198.523C189.332 195.79 194.34 193.277 199.393 191.057C199.792 190.881 200.253 191.06 200.429 191.457C200.606 191.85 200.426 192.312 200.027 192.487C195.023 194.687 190.063 197.175 185.29 199.881C185.169 199.95 185.034 199.985 184.902 199.985L184.906 199.981Z" fill="#3C3C3C"/>
<path d="M188.06 206.055C187.768 206.055 187.488 205.893 187.353 205.614C187.165 205.224 187.328 204.759 187.72 204.573C192.68 202.194 197.75 199.885 202.793 197.71C203.192 197.537 203.653 197.72 203.826 198.116C203.999 198.513 203.816 198.971 203.417 199.144C198.395 201.312 193.342 203.611 188.399 205.983C188.288 206.034 188.174 206.059 188.06 206.059V206.055Z" fill="#3C3C3C"/>
<path d="M191.186 212.667C190.909 212.667 190.638 212.518 190.496 212.26C190.288 211.881 190.43 211.408 190.812 211.202C195.688 208.558 200.766 206.162 205.899 204.09C206.301 203.928 206.758 204.121 206.921 204.521C207.084 204.921 206.89 205.376 206.488 205.538C201.41 207.589 196.388 209.957 191.56 212.574C191.442 212.639 191.311 212.67 191.186 212.67V212.667Z" fill="#3C3C3C"/>
<path d="M258.192 192.143C258.102 192.143 258.015 192.094 257.967 192.012L252.13 181.915C252.057 181.791 252.102 181.633 252.227 181.56C252.352 181.488 252.511 181.529 252.584 181.657L258.421 191.753C258.494 191.877 258.448 192.036 258.324 192.108C258.282 192.132 258.237 192.143 258.192 192.143Z" fill="#3C3C3C"/>
<path d="M253.489 193.615C253.399 193.615 253.312 193.57 253.263 193.487L250.297 188.444C250.224 188.32 250.265 188.161 250.39 188.089C250.515 188.017 250.674 188.058 250.747 188.182L253.714 193.225C253.787 193.349 253.745 193.508 253.62 193.58C253.579 193.604 253.534 193.615 253.489 193.615Z" fill="#3C3C3C"/>
<path d="M248.255 195.766C248.165 195.766 248.079 195.721 248.03 195.638L245.777 191.857C245.704 191.733 245.746 191.574 245.867 191.502C245.992 191.429 246.151 191.471 246.224 191.591L248.477 195.373C248.55 195.497 248.508 195.655 248.387 195.728C248.345 195.752 248.3 195.766 248.255 195.766Z" fill="#3C3C3C"/>
<path d="M242.44 197.182C242.349 197.182 242.259 197.134 242.211 197.048L240.568 194.135C240.499 194.011 240.544 193.852 240.668 193.78C240.793 193.711 240.953 193.752 241.025 193.88L242.668 196.793C242.738 196.917 242.693 197.075 242.568 197.148C242.526 197.169 242.485 197.182 242.44 197.182Z" fill="#3C3C3C"/>
<g opacity="0.13">
<path d="M278.61 166.927C278.346 166.055 277.13 165.79 276.481 166.414C276.093 166.758 276.066 167.3 275.868 167.751C275.348 169.375 274.097 171.236 273.102 172.181C271.969 173.367 272.225 172.687 271.203 173.815C270.139 175.511 272.361 177.355 273.844 176.007C276.475 174.084 277.071 172.181 278.155 169.84C278.405 169.168 278.599 168.465 278.651 167.744C278.707 167.469 278.745 167.186 278.61 166.927Z" fill="#3C3C3C"/>
</g>
<g opacity="0.13">
<path d="M279.012 191.781C276.599 190.898 273.99 191.24 271.477 191.067C265.668 191.029 259.842 191.701 254.14 192.773C251.635 193.435 249.063 193.666 246.508 194.059C244.315 194.39 242.204 195.083 240.086 195.721C233.799 197.686 227.321 199.037 221.19 201.495C214.73 204.032 208.689 207.465 202.672 210.891C198.728 213.128 196.284 214.687 192.576 215.39C190.818 215.752 190.046 215.6 187.47 215.414C186.632 215.269 185.592 215.393 185.249 216.286C184.725 217.248 185.516 218.547 186.614 218.564C188.534 218.764 190.437 219.295 192.382 219.099C196.745 218.84 200.44 216.293 204.228 214.387C204.616 214.2 205.001 214.004 205.386 213.811C204.824 214.163 204.266 214.521 203.715 214.893C202.661 215.39 201.923 216.727 202.745 217.744C203.109 218.334 203.833 218.575 204.498 218.465C204.939 218.768 205.524 218.861 206.058 218.561C207.028 217.972 208.065 217.51 209.125 217.11C209.978 216.827 210.175 216.682 211.642 216.517C211.791 216.517 212.186 216.513 212.46 216.544C213.686 216.837 213.43 216.879 213.967 217.141C214.265 217.327 214.553 217.53 214.834 217.744C216.147 218.995 217.544 220.16 218.851 221.419C219.554 222.108 220.195 222.86 220.993 223.449C221.239 223.594 221.703 223.945 222.275 224.4C222.362 224.48 222.441 224.562 222.528 224.638C223.069 225.114 223.637 225.555 224.216 225.983C225.003 226.631 225.81 227.296 226.496 227.844C226.531 227.875 227.685 228.833 228.441 229.412C228.999 229.936 229.865 230.395 230.555 229.829C230.967 229.571 231.161 229.081 231.116 228.609C230.943 228.478 230.78 228.347 230.631 228.223C229.91 227.634 229.196 227.034 228.493 226.42C227.099 225.204 225.713 223.945 224.472 222.57C221.984 219.816 219.703 216.872 217.894 213.628C217.71 213.301 217.811 212.997 218.026 212.804C217.759 212.411 217.561 212.125 217.315 211.801C219.436 211.067 219.686 210.791 221.932 210.471C221.942 210.474 221.953 210.481 221.963 210.485C222.864 210.791 223.918 210.25 224.192 209.344C224.718 207.796 222.892 206.424 221.526 207.324C221.526 207.324 221.519 207.327 221.516 207.33C221.447 207.351 221.374 207.368 221.304 207.389C220.75 207.499 220.206 207.641 219.669 207.792C221.474 207.02 223.065 206.348 223.634 206.127C228.742 204.394 232.69 203.07 238.481 201.495C242.166 200.457 243.403 199.709 246.418 198.913C250.557 198.02 254.65 196.882 258.84 196.258C260.168 196.045 261.488 195.786 262.829 195.662C263.963 195.51 264.008 195.635 264.538 195.448C264.878 195.355 265.169 195.083 265.297 194.759C265.314 194.728 265.325 194.697 265.339 194.666C267.813 194.407 270.253 194.263 273.369 194.421C275.903 194.487 276.89 194.363 278.741 195.052C278.807 195.073 278.869 195.097 278.935 195.118C278.973 195.138 279.005 195.166 279.046 195.18C279.705 195.548 280.589 195.245 280.984 194.631C281.833 193.087 280.304 192.219 279.012 191.767V191.781ZM215.451 209.919C215.34 209.854 215.232 209.802 215.121 209.754C215.281 209.685 215.444 209.616 215.61 209.547C215.534 209.668 215.485 209.795 215.451 209.923V209.919Z" fill="#3C3C3C"/>
</g>
</g>
<g clip-path="url(#clip3_275_1997)">
<path d="M179.118 103.312C185.217 80.072 196.588 20.0033 197.273 19.0391C198.261 17.6513 201.442 15.0593 203.057 14.5281C206.496 13.3957 210.232 13.8539 213.807 14.4136C230.459 17.0186 246.802 21.5649 262.406 27.9325C264.035 28.5956 265.805 29.4214 266.504 31.0369C266.999 32.1832 267.051 31.352 266.805 32.576C259.792 67.4005 254.093 93.7376 249.597 116.064C248.464 121.687 237.767 122.821 232.043 122.484C228.45 122.274 224.847 122.059 221.295 121.485C215.885 120.608 210.645 118.901 205.435 117.2C196.53 114.293 187.873 108.345 179.122 103.309L179.118 103.312Z" fill="white"/>
<path d="M219.008 121.911C214.272 120.957 209.656 119.45 205.172 117.985C198.256 115.728 191.416 111.613 184.798 107.636C182.801 106.437 180.735 105.194 178.702 104.025C178.378 103.841 178.221 103.459 178.315 103.098C182.13 88.5597 188.102 59.1455 192.055 39.6818C195.694 21.7599 196.288 18.9934 196.6 18.557C197.68 17.0391 201.004 14.3306 202.798 13.7423C206.384 12.5614 210.265 13.0227 213.934 13.5975C230.647 16.2148 247.058 20.7748 262.72 27.169C264.49 27.8902 266.447 28.8208 267.262 30.7129C267.402 31.0353 267.479 31.1328 267.523 31.1901C267.859 31.6116 267.785 31.943 267.699 32.3317C267.679 32.4319 267.648 32.5672 267.612 32.7461C263.717 52.0875 260.214 68.8746 257.123 83.6854C254.589 95.8262 252.403 106.309 250.404 116.234C249.118 122.619 237.796 123.657 231.991 123.315C228.436 123.105 224.758 122.89 221.159 122.307C220.441 122.192 219.723 122.058 219.011 121.915L219.008 121.911ZM180.074 102.909C181.942 103.992 183.826 105.124 185.649 106.221C192.187 110.152 198.945 114.213 205.683 116.412C210.785 118.076 216.058 119.801 221.418 120.668C224.935 121.238 228.567 121.452 232.083 121.658C238.02 122.008 247.803 120.753 248.781 115.9C250.78 105.971 252.971 95.4818 255.502 83.3403C258.592 68.533 262.094 51.7495 265.989 32.4117C266.023 32.2399 266.05 32.1075 266.074 32.0044C265.974 31.8539 265.865 31.6569 265.738 31.3631C265.169 30.0456 263.624 29.3211 262.089 28.6954C246.547 22.3515 230.257 17.8195 213.672 15.2283C210.061 14.6649 206.548 14.2442 203.31 15.3089C201.898 15.7731 198.938 18.1714 197.988 19.4474C197.63 20.5038 195.792 29.556 193.669 40.0069C189.77 59.2208 183.901 88.1232 180.068 102.904L180.074 102.909Z" fill="#3C3C3C"/>
<path d="M197.799 19.2232C221.254 22.4681 244.159 27.092 266.804 32.5798C266.907 31.8481 267.012 31.1208 267.113 30.3813C268.262 22.0099 267.181 16.5596 255.094 14.5872C246.494 13.1831 232.858 9.36064 213.881 6.2578C203.916 4.25108 199.422 12.5708 197.273 19.0392C197.448 19.0967 197.626 19.155 197.799 19.2232Z" fill="#DFB5FF"/>
<path d="M197.635 20.0357C197.589 20.0263 197.543 20.0133 197.494 19.9961C197.339 19.935 197.179 19.8804 197.021 19.8301C196.811 19.7618 196.636 19.6147 196.535 19.4156C196.437 19.2171 196.419 18.9901 196.488 18.7804C200.825 5.71045 208.429 4.3144 214.045 5.44534C225.381 7.29638 234.836 9.41269 242.434 11.1141C247.455 12.2371 251.793 13.2074 255.229 13.769C267.486 15.7831 269.182 21.4204 267.935 30.4948C267.834 31.2379 267.729 31.9652 267.626 32.6969C267.594 32.9288 267.463 33.1334 267.273 33.2663C267.079 33.3985 266.836 33.439 266.615 33.3872C241.999 27.4206 219.455 23.0593 197.689 20.0465C197.671 20.0429 197.657 20.04 197.639 20.0364L197.635 20.0357ZM227.511 9.59118C223.281 8.73919 218.694 7.88242 213.747 7.07243C206.717 5.65677 201.55 9.49123 198.346 18.4657C219.772 21.4472 241.952 25.7315 266.115 31.5621C266.175 31.1347 266.236 30.7038 266.294 30.2685C267.479 21.6436 266.091 17.219 254.96 15.4019C251.481 14.8316 247.118 13.8562 242.072 12.7282C237.81 11.7731 232.959 10.6882 227.515 9.5919L227.511 9.59118Z" fill="#3C3C3C"/>
<path d="M179.118 103.312C179.091 103.444 179.069 103.574 179.047 103.704C178.468 106.872 177.899 110.142 178.583 113.29C179.268 116.437 185.522 120.78 188.846 121.453C204.459 124.746 216.042 126.87 231.684 130.02C241.133 131.923 245.91 126.085 247.575 122.405C248.4 120.583 249.003 118.682 249.501 116.745C226.041 112.266 202.582 107.788 179.119 103.308L179.118 103.312Z" fill="#DFB5FF"/>
<path d="M200.359 124.669C196.647 123.921 192.806 123.133 188.672 122.263C185.139 121.552 178.543 117.021 177.773 113.465C177.041 110.093 177.674 106.619 178.231 103.554L178.303 103.163C178.342 102.947 178.467 102.753 178.648 102.629C178.83 102.505 179.055 102.458 179.271 102.497L249.653 115.934L249.66 115.935C249.882 115.98 250.075 116.112 250.197 116.304C250.318 116.496 250.356 116.731 250.3 116.954C249.717 119.22 249.093 121.061 248.329 122.751C246.031 127.833 240.408 132.622 231.52 130.833C225.614 129.643 220.268 128.596 215.098 127.585C210.161 126.617 205.381 125.68 200.359 124.669ZM179.78 104.279C179.271 107.086 178.76 110.212 179.389 113.117C179.966 115.765 185.785 119.991 189.009 120.644C198.724 122.69 206.832 124.282 215.414 125.961C220.584 126.973 225.934 128.02 231.843 129.21C241.829 131.222 245.829 124.251 246.816 122.066C247.442 120.68 247.975 119.179 248.466 117.389L179.777 104.275L179.78 104.279Z" fill="#3C3C3C"/>
<path d="M221.147 46.2071C219.183 45.752 217.032 46.1866 215.518 47.3416C214.004 48.4966 213.163 50.3457 213.314 52.1824C213.401 53.2466 213.815 54.3018 214.527 55.1641C215.977 56.916 218.663 57.6914 220.903 57.0887C223.144 56.4859 224.822 54.5893 225.125 52.4567C225.457 50.103 224.165 46.9007 221.144 46.2028L221.147 46.2071Z" fill="white"/>
<path d="M217.873 57.9682C216.313 57.6539 214.853 56.8572 213.892 55.6952C213.092 54.7297 212.596 53.509 212.491 52.2551C212.316 50.1455 213.283 48.0088 215.016 46.6894C216.719 45.3899 219.132 44.8927 221.334 45.4069C224.701 46.1854 226.351 49.7354 225.945 52.581C225.592 55.0758 223.654 57.2105 221.121 57.8959C220.073 58.1766 218.949 58.1923 217.872 57.9753L217.873 57.9682ZM220.798 46.9785C219.116 46.6397 217.302 47.0268 216.022 48.0017C214.732 48.9859 214.013 50.5616 214.139 52.1177C214.214 53.0379 214.581 53.9348 215.165 54.6408C216.396 56.1289 218.722 56.8244 220.691 56.2936C222.594 55.7792 224.045 54.1945 224.309 52.3447C224.564 50.5636 223.674 47.6397 220.962 47.0152C220.908 47.0044 220.851 46.9929 220.797 46.9821L220.798 46.9785Z" fill="#3C3C3C"/>
<path d="M224.93 74.9119C224.93 74.9119 225.935 65.4462 223.212 61.4193C222.058 59.7122 220.332 58.2063 218.215 57.7502C217.008 57.4923 215.669 57.3902 214.574 57.8549C207.499 60.8619 204.831 70.5066 204.831 70.5066L224.931 74.9083L224.93 74.9119Z" fill="#50048A"/>
<path d="M224.768 75.7208L224.753 75.7179L204.656 71.3169C204.435 71.2686 204.243 71.1294 204.126 70.9345C204.009 70.7396 203.978 70.5062 204.037 70.2871C204.149 69.8777 206.895 60.2189 214.254 57.094C215.35 56.6294 216.707 56.5825 218.393 56.9406C220.499 57.3946 222.458 58.8206 223.901 60.9548C226.76 65.1802 225.798 74.5988 225.755 74.9961C225.731 75.2295 225.609 75.4434 225.418 75.5799C225.231 75.7135 224.997 75.7669 224.771 75.7215L224.768 75.7208ZM205.9 69.8951L224.184 73.9013C224.349 71.4764 224.574 64.9038 222.53 61.8852C221.832 60.8547 220.322 59.0497 218.044 58.5612C216.728 58.2924 215.662 58.2974 214.9 58.6207C209.467 60.9305 206.725 67.5549 205.903 69.8994L205.9 69.8951Z" fill="#3C3C3C"/>
<g opacity="0.13">
<path d="M223.349 56.1883C223.441 55.4918 222.887 54.8402 222.219 54.6983C221.507 54.5734 220.865 55.0587 220.159 55.1251C220.377 55.0796 220.687 55.0191 220.28 55.0973C219.311 55.1777 219.818 55.1941 218.641 54.9347C218.613 54.9254 218.589 54.9132 218.561 54.9039C216.642 54.1896 216.664 53.8738 215.276 53.1101C213.742 52.4995 212.498 54.6437 213.748 55.7072C214.273 56.1332 214.846 56.5206 215.45 56.8508C214.197 57.321 214.307 59.3839 215.738 59.6386C216.756 59.728 217.795 59.781 218.784 60.0472C220.075 60.4077 221.217 59.0846 220.666 57.9161C220.789 57.8962 220.912 57.8763 221.038 57.8457C221.965 57.6414 223.333 57.3619 223.351 56.1812L223.349 56.1883Z" fill="#3C3C3C"/>
</g>
<path d="M205.355 117.485C204.918 117.398 204.63 116.978 204.704 116.539C204.78 116.088 205.206 115.783 205.656 115.859C210.31 116.644 215.011 117.531 219.628 118.498C220.075 118.591 220.363 119.029 220.269 119.476C220.176 119.919 219.742 120.208 219.294 120.118L219.287 120.116C214.688 119.153 210.009 118.27 205.38 117.491C205.369 117.488 205.362 117.487 205.355 117.485Z" fill="#3C3C3C"/>
<g opacity="0.13">
<path d="M261.057 31.2882C253.785 30.0547 246.641 28.1914 239.394 26.8177C232.474 25.3943 225.452 24.55 218.529 23.1632C211.77 21.5674 204.901 20.6124 198.053 19.5163C195.799 19.1109 195.085 22.4344 197.358 22.963C203.902 24.1281 210.501 24.9653 216.992 26.4104C222.149 27.5085 227.399 28.089 232.57 29.1155C242.086 31.0393 251.531 33.3325 261.061 35.1883C261.787 35.2973 262.523 35.3821 263.236 35.5556C263.257 35.5635 263.274 35.5707 263.294 35.5822C263.401 35.6446 263.445 35.6683 263.452 35.6698C263.488 35.692 263.528 35.7185 263.564 35.7408C264.513 36.2447 265.793 35.8247 266.26 34.8537C267.31 31.6016 263.63 31.6575 261.059 31.2925L261.057 31.2882Z" fill="#3C3C3C"/>
</g>
<path d="M205.744 89.699C204.857 89.0735 203.577 89.1584 202.688 89.7837C201.799 90.4054 201.288 91.4831 201.211 92.5663C201.166 93.1977 201.263 93.8616 201.628 94.3784C201.881 94.7345 202.245 94.9978 202.631 95.206C203.478 95.6632 204.482 95.8729 205.421 95.6672C206.36 95.4616 207.219 94.804 207.554 93.8994C208.072 92.4881 207.362 90.8368 205.748 89.6997L205.744 89.699Z" fill="white"/>
<path d="M203.727 96.4805C203.222 96.3789 202.719 96.1956 202.235 95.9344C201.667 95.63 201.247 95.2736 200.951 94.8565C200.513 94.2394 200.316 93.4251 200.385 92.5079C200.488 91.1097 201.173 89.8361 202.213 89.1072C203.432 88.2539 205.081 88.221 206.222 89.0281C208.153 90.3889 208.981 92.4142 208.329 94.1898C207.911 95.3234 206.867 96.2005 205.6 96.4816C205 96.614 204.363 96.6124 203.729 96.4848L203.727 96.4805ZM204.692 90.1351C204.19 90.0342 203.606 90.1437 203.159 90.4596C202.517 90.9077 202.097 91.7169 202.03 92.6269C202.003 92.9977 202.028 93.5204 202.298 93.9024C202.446 94.111 202.68 94.2996 203.019 94.4834C203.748 94.876 204.554 95.016 205.24 94.8637C205.949 94.7085 206.551 94.2189 206.772 93.6192C207.159 92.5686 206.565 91.2983 205.264 90.3808C205.098 90.2617 204.901 90.1848 204.69 90.1423L204.692 90.1351Z" fill="#3C3C3C"/>
<path d="M220.573 92.6853C219.686 92.0598 218.406 92.1447 217.517 92.77C216.628 93.3918 216.117 94.4694 216.04 95.5526C215.995 96.1841 216.092 96.848 216.457 97.3647C216.71 97.7209 217.074 97.9841 217.46 98.1923C218.307 98.6495 219.311 98.8592 220.25 98.6536C221.189 98.4479 222.048 97.7903 222.382 96.8857C222.901 95.4745 222.191 93.8231 220.576 92.6861L220.573 92.6853Z" fill="white"/>
<path d="M218.555 99.4669C218.051 99.3652 217.548 99.182 217.064 98.9207C216.496 98.6163 216.076 98.2599 215.776 97.8421C215.339 97.2214 215.145 96.4114 215.21 95.4935C215.313 94.0953 215.998 92.8217 217.038 92.0928C218.257 91.2395 219.906 91.2066 221.047 92.0137C222.978 93.3745 223.806 95.3998 223.155 97.1753C222.736 98.3089 221.692 99.1861 220.425 99.4672C219.825 99.5996 219.188 99.598 218.555 99.4704L218.555 99.4669ZM219.524 93.1222C219.023 93.0213 218.438 93.1307 217.991 93.4466C217.35 93.8947 216.93 94.7039 216.862 95.6139C216.836 95.9847 216.861 96.5075 217.13 96.8895C217.278 97.098 217.512 97.2866 217.851 97.4704C218.59 97.8688 219.379 98.0051 220.073 97.8507C220.782 97.6956 221.383 97.2059 221.604 96.6062C221.991 95.5556 221.398 94.2853 220.096 93.3678C219.93 93.2487 219.734 93.1719 219.523 93.1293L219.524 93.1222Z" fill="#3C3C3C"/>
<path d="M235.398 95.6709C234.511 95.0454 233.231 95.1303 232.342 95.7556C231.453 96.3774 230.942 97.455 230.865 98.5382C230.82 99.1697 230.917 99.8335 231.282 100.35C231.535 100.706 231.899 100.97 232.285 101.178C233.132 101.635 234.136 101.845 235.075 101.639C236.014 101.433 236.873 100.776 237.208 99.8713C237.727 98.4601 237.016 96.8087 235.402 95.6717L235.398 95.6709Z" fill="white"/>
<path d="M233.384 102.453C232.88 102.352 232.376 102.168 231.893 101.907C231.325 101.603 230.905 101.246 230.605 100.828C230.168 100.208 229.973 99.3977 230.039 98.4799C230.142 97.0816 230.827 95.8081 231.867 95.0791C233.086 94.2258 234.735 94.193 235.876 95C237.807 96.3609 238.635 98.3861 237.984 100.162C237.565 101.295 236.521 102.172 235.254 102.454C234.654 102.586 234.017 102.584 233.383 102.457L233.384 102.453ZM234.353 96.1085C233.852 96.0076 233.267 96.1171 232.82 96.4329C232.179 96.881 231.759 97.6903 231.691 98.6002C231.665 98.9711 231.69 99.4938 231.959 99.8758C232.107 100.084 232.341 100.273 232.68 100.457C233.419 100.855 234.207 100.991 234.901 100.837C235.611 100.682 236.212 100.192 236.433 99.5925C236.82 98.5419 236.227 97.2717 234.925 96.3541C234.759 96.2351 234.563 96.1582 234.351 96.1157L234.353 96.1085Z" fill="#3C3C3C"/>
<g opacity="0.13">
<path d="M207.518 96.9052C207.422 96.2342 206.734 95.7342 206.067 95.7899C205.74 95.8245 205.414 95.852 205.084 95.8415C204.897 95.8112 204.677 95.7558 204.535 95.7198C204.291 95.6185 204.052 95.4957 203.831 95.3508C203.828 95.3501 203.824 95.3494 203.821 95.3451C203.694 95.2375 203.575 95.1242 203.462 95.0009C203.396 94.9206 203.311 94.8067 203.233 94.6977C202.938 94.3107 202.779 93.7907 202.332 93.548C200.907 92.4864 199.023 94.3713 200.031 95.8183C200.774 97.0666 201.785 98.2794 203.271 98.5972C204.652 98.8754 207.848 99.0573 207.519 96.9016L207.518 96.9052Z" fill="#3C3C3C"/>
</g>
<g opacity="0.13">
<path d="M222.472 99.7678C222.415 99.313 222.085 98.9524 221.698 98.7328C221.193 98.445 220.632 98.6598 220.094 98.6669C219.313 98.6287 219.637 98.7572 218.483 98.4392C218.431 98.4177 218.376 98.3954 218.311 98.3674C217.176 97.826 217.744 97.8361 216.649 97.3363C214.997 96.6796 213.661 98.9877 215.006 100.134C215.937 100.872 217.024 101.412 218.213 101.573C219.676 101.763 222.812 102.037 222.475 99.7721L222.472 99.7678Z" fill="#3C3C3C"/>
</g>
<g opacity="0.13">
<path d="M235.039 101.524C234.732 101.548 233.66 101.324 233.144 101.075C232.224 100.67 232.212 100.616 232.002 100.439C231.713 100.173 231.453 99.8371 231.049 99.7521C229.384 99.089 228.036 101.417 229.39 102.572C230.724 103.955 232.674 104.429 234.545 104.366C235.299 104.321 236.21 104.456 236.758 103.825C237.765 102.542 236.526 101.093 235.04 101.52L235.039 101.524Z" fill="#3C3C3C"/>
</g>
<path d="M245.681 47.3455C240.937 45.6601 237.066 39.7113 237.587 35.4067C238.515 27.728 239.623 15.2888 245.648 12.2639C248.896 10.6314 253.143 9.38984 256.97 9.98926C272.818 12.4621 283.642 14.4743 299.982 18.6512C313.767 22.176 310.398 35.5973 309.273 41.1843C306.737 53.7755 303.175 58.0188 290.169 56.8371C273.245 55.3022 263.695 51.8297 262.211 52.0038C260.864 52.1645 252.655 59.0251 247.572 61.9976C246.382 62.6927 244.824 63.4961 243.524 62.832C240.559 61.3151 244.979 53.1629 245.684 47.3498L245.681 47.3455Z" fill="white"/>
<path d="M243.928 63.8371C243.663 63.7838 243.402 63.6939 243.145 63.564C240.63 62.2754 241.825 58.3747 243.207 53.86C243.828 51.8324 244.469 49.7418 244.771 47.8734C240.035 45.8135 236.207 39.9071 236.765 35.3046L236.933 33.8821C237.893 25.7295 239.21 14.5651 245.272 11.5216C249.324 9.48496 253.635 8.62866 257.09 9.16815C272.643 11.5926 283.579 13.6014 300.181 17.8459C314.179 21.4247 311.405 34.8877 310.221 40.6378L310.078 41.3464C307.599 53.6549 304.123 58.9322 290.089 57.659C278.41 56.5994 270.184 54.615 265.766 53.5466C264.161 53.1563 262.64 52.7941 262.303 52.823C261.715 52.9655 258.902 55.0431 256.64 56.7141C253.775 58.8297 250.525 61.2254 247.984 62.7098C247.135 63.2056 245.507 64.155 243.925 63.8364L243.928 63.8371ZM279.13 14.6866C271.975 13.2457 265.058 12.0837 256.84 10.801C253.713 10.3128 249.768 11.1123 246.017 12.9976C240.751 15.6426 239.441 26.734 238.577 34.0755L238.408 35.5051C237.92 39.5592 241.658 45.0381 245.957 46.5668C246.322 46.6962 246.547 47.0617 246.503 47.444C246.243 49.6074 245.505 52.0136 244.79 54.3426C243.77 57.6678 242.617 61.4353 243.9 62.0886C244.774 62.5401 245.981 61.9639 247.155 61.2767C249.616 59.8394 252.831 57.4701 255.662 55.3775C259.69 52.405 261.289 51.2744 262.113 51.176C262.701 51.1044 263.718 51.3428 266.161 51.9354C270.541 52.9923 278.688 54.9608 290.246 56.0074C302.917 57.1549 306.035 53.0793 308.465 41.0142L308.609 40.2984C309.883 34.1231 312.249 22.63 299.781 19.445C292.006 17.4584 285.477 15.961 279.134 14.6838L279.13 14.6866Z" fill="#3C3C3C"/>
<path d="M255.466 25.98C255.323 25.9512 255.227 25.8164 255.25 25.6683C255.273 25.5165 255.413 25.4143 255.564 25.4374C258.334 25.8535 264.278 27.0916 269.057 28.0875C270.862 28.4623 272.499 28.8032 273.738 29.0526C273.888 29.0828 273.982 29.2283 273.951 29.3786C273.921 29.5289 273.775 29.6261 273.628 29.5966C272.386 29.3465 270.746 29.0049 268.944 28.6273C264.176 27.6335 258.239 26.3969 255.484 25.9836C255.481 25.9829 255.474 25.9815 255.47 25.9807L255.466 25.98Z" fill="#3C3C3C"/>
<path d="M282.367 31.349C282.227 31.3209 282.128 31.1854 282.149 31.0408C282.169 30.8883 282.309 30.7861 282.458 30.8049C284.572 31.0892 289.084 32.0389 292.707 32.802C294.079 33.0896 295.323 33.3511 296.264 33.5407C296.415 33.571 296.512 33.7172 296.481 33.8675C296.451 34.0178 296.306 34.1114 296.155 34.0811C295.21 33.8908 293.963 33.6285 292.591 33.341C288.975 32.5794 284.474 31.6318 282.381 31.3519C282.374 31.3504 282.37 31.3497 282.363 31.3483L282.367 31.349Z" fill="#3C3C3C"/>
<path d="M253.782 34.3444C253.632 34.3141 253.534 34.1679 253.565 34.0176C253.595 33.8673 253.741 33.7701 253.891 33.8003C260.388 35.1086 268.821 36.7288 276.979 38.297C283.884 39.6245 290.41 40.8791 294.673 41.7375C294.823 41.7678 294.921 41.914 294.89 42.0643C294.86 42.2147 294.714 42.3118 294.564 42.2816C290.304 41.4238 283.782 40.1699 276.876 38.8425C268.719 37.2742 260.285 35.6541 253.785 34.3451L253.782 34.3444Z" fill="#3C3C3C"/>
<g opacity="0.13">
<path d="M303.045 52.872C302.296 53.0264 302.262 53.2504 302.14 53.2445C300.558 53.8682 300.353 53.8715 299.603 54.0223C295.48 54.596 292.971 54.0908 288.861 53.5089C283.676 52.6806 278.494 51.8381 273.311 50.9956C269.658 50.4573 265.968 49.4757 262.254 49.8488C259.33 50.1091 256.837 51.7597 254.601 53.5439C252.456 55.2608 250.822 56.6413 249.195 57.8778C247.5 59.082 246.475 59.5868 245.001 60.1763C244.478 60.4398 243.814 60.4289 243.362 60.807C242.371 61.6019 243.316 63.2707 244.526 62.8292C246.451 62.2596 246.854 61.8864 248.416 61.1023C249.757 60.3409 251.131 59.6195 252.349 58.6617C255.693 56.2554 258.377 53.2876 261.763 52.599C264.007 51.9784 268.265 52.6979 272.077 53.3167C276.989 54.2426 281.949 54.8579 286.876 55.675C291.844 56.3404 297.137 57.652 301.991 55.8141C302.804 55.4414 304.011 55.234 304.267 54.2613C304.425 53.5297 303.791 52.8136 303.045 52.872Z" fill="#3C3C3C"/>
</g>
</g>
</g>
<defs>
<clipPath id="clip0_275_1997">
<rect width="338" height="265" fill="white"/>
</clipPath>
<clipPath id="clip1_275_1997">
<rect width="169.032" height="161.387" fill="white" transform="translate(0 73.109) rotate(-6.49117)"/>
</clipPath>
<clipPath id="clip2_275_1997">
<rect width="135" height="128" fill="white" transform="translate(177 127)"/>
</clipPath>
<clipPath id="clip3_275_1997">
<rect width="116.985" height="125.023" fill="white" transform="translate(199.682 -3) rotate(11.3862)"/>
</clipPath>
</defs>
</svg>
